<svg height="804" xmlns:ev="http://www.w3.org/2001/xml-events" width="2255" xmlns="http://www.w3.org/2000/svg" xmlns:xlink="http://www.w3.org/1999/xlink" viewBox="0 0 2255 804"><defs/><g transform="translate(5.5,5.5)" id="page1"><rect y="0" height="794" width="2245" fill="#ffffff" x="0"/><g transform="translate(373.250000,29.745000)" id="group1"><g transform="translate(0.000000,62.560200)" id="group2"><path d="M.0,.0L83.7,44.8L83.7,66.4L.0,21.6L.0,.0z" transform="translate(0.000000,41.030800)" stroke-width="0.5" fill-rule="nonzero" stroke="#d6d8df" fill="#d6d8df" id="shape3"/><path d="M.0,.0L77.8,41.1L77.8,62.8L.0,21.6L.0,.0z" transform="matrix(-1.000000,0.000000,0.000000,1.000000,161.500300,44.670600)" stroke-width="0.5" fill-rule="nonzero" stroke="#caccd3" fill="#caccd3" id="shape4"/><path d="M83.7,85.8L.0,41.0L77.8,.0L161.5,44.7L83.7,85.8z" stroke-width="0.5" fill-rule="nonzero" stroke="#e2e4e9" fill="#e2e4e9" id="shape5"/><path d="M.0,5.1C-0.2,2.5,1.3,.2,3.3,.0C5.3,-0.2,7.2,1.8,7.4,4.5C7.6,7.1,6.2,9.4,4.1,9.6C2.1,9.7,.3,7.7,.0,5.1z" transform="matrix(0.999391,-0.034899,0.034899,0.999391,71.260402,88.550650)" stroke-width="0.25" fill-rule="nonzero" stroke="#01acac" fill="#01acac" id="shape6"/><path d="M.0,4.1C-0.2,2.0,1.0,.1,2.6,.0C4.3,-0.1,5.7,1.5,5.9,3.6C6.1,5.7,4.9,7.5,3.3,7.6C1.7,7.8,.2,6.2,.0,4.1z" transform="matrix(0.999391,-0.034899,0.034899,0.999391,72.046701,89.492453)" stroke-width="0.4799999892711639" fill-rule="nonzero" stroke="#76d7d7" fill="#76d7d7" id="shape7"/><path d="M.0,3.5C-0.1,2.0,.4,.7,1.3,.0C1.3,.0,4.9,6.3,4.9,6.3C4.4,6.7,3.9,7.0,3.3,7.0C1.7,7.2,.2,5.6,.0,3.5z" transform="matrix(0.999391,-0.034899,0.034899,0.999391,72.030925,90.091571)" fill-rule="nonzero" fill="#ffffff" id="shape8" fill-opacity="0.29"/><path d="M.0,36.6L69.2,.0" transform="translate(88.231100,55.531600)" stroke-width="1" stroke-dasharray="11,5,2.5,5,2.5,5" stroke="#000000" fill="none" id="shape9"/><path d="M.0,36.6L69.2,.0" transform="translate(88.231100,59.423200)" stroke-width="1" stroke-dasharray="11,5,2.5,5,2.5,5" stroke="#000000" fill="none" id="shape10"/><g transform="translate(9.026500,50.424700)" id="group11"><path d="M.0,.0L20.3,10.7L20.3,21.8L.0,10.7L.0,.0z" stroke-width="1" fill-rule="nonzero" stroke="#ffffff" fill="#ffffff" id="shape12"/><path d="M.0,.0L18.4,9.8L18.4,18.3L.0,8.3L.0,.0z" transform="translate(0.845880,1.739420)" stroke-width="1" fill-rule="nonzero" stroke="#5fb7f1" fill="#5fb7f1" id="shape13"/><path d="M.0,.0L17.6,9.2L17.6,16.9L.0,7.5L.0,.0z" transform="translate(1.273400,2.436220)" fill-rule="nonzero" fill="#ffffff" id="shape14" fill-opacity="0.29"/></g><g transform="translate(39.339700,67.473700)" id="group15"><path d="M.0,.0L20.3,10.7L20.3,21.8L.0,10.7L.0,.0z" stroke-width="1" fill-rule="nonzero" stroke="#ffffff" fill="#ffffff" id="shape16"/><path d="M.0,.0L18.4,9.8L18.4,18.3L.0,8.3L.0,.0z" transform="translate(0.845880,1.739420)" stroke-width="1" fill-rule="nonzero" stroke="#5fb7f1" fill="#5fb7f1" id="shape17"/><path d="M.0,.0L17.6,9.2L17.6,16.9L.0,7.5L.0,.0z" transform="translate(1.273400,2.436220)" fill-rule="nonzero" fill="#ffffff" id="shape18" fill-opacity="0.29"/></g></g><g transform="translate(0.000000,31.280200)" id="group19"><path d="M.0,.0L83.7,44.8L83.7,66.4L.0,21.6L.0,.0z" transform="translate(0.000000,41.030800)" stroke-width="0.5" fill-rule="nonzero" stroke="#d6d8df" fill="#d6d8df" id="shape20"/><path d="M.0,.0L77.8,41.1L77.8,62.8L.0,21.6L.0,.0z" transform="matrix(-1.000000,0.000000,0.000000,1.000000,161.500300,44.670600)" stroke-width="0.5" fill-rule="nonzero" stroke="#caccd3" fill="#caccd3" id="shape21"/><path d="M83.7,85.8L.0,41.0L77.8,.0L161.5,44.7L83.7,85.8z" stroke-width="0.5" fill-rule="nonzero" stroke="#e2e4e9" fill="#e2e4e9" id="shape22"/><path d="M.0,5.1C-0.2,2.5,1.3,.2,3.3,.0C5.3,-0.2,7.2,1.8,7.4,4.5C7.6,7.1,6.2,9.4,4.1,9.6C2.1,9.7,.3,7.7,.0,5.1z" transform="matrix(0.999391,-0.034899,0.034899,0.999391,71.260402,88.550650)" stroke-width="0.25" fill-rule="nonzero" stroke="#01acac" fill="#01acac" id="shape23"/><path d="M.0,4.1C-0.2,2.0,1.0,.1,2.6,.0C4.3,-0.1,5.7,1.5,5.9,3.6C6.1,5.7,4.9,7.5,3.3,7.6C1.7,7.8,.2,6.2,.0,4.1z" transform="matrix(0.999391,-0.034899,0.034899,0.999391,72.046701,89.492453)" stroke-width="0.4799999892711639" fill-rule="nonzero" stroke="#76d7d7" fill="#76d7d7" id="shape24"/><path d="M.0,3.5C-0.1,2.0,.4,.7,1.3,.0C1.3,.0,4.9,6.3,4.9,6.3C4.4,6.7,3.9,7.0,3.3,7.0C1.7,7.2,.2,5.6,.0,3.5z" transform="matrix(0.999391,-0.034899,0.034899,0.999391,72.030925,90.091571)" fill-rule="nonzero" fill="#ffffff" id="shape25" fill-opacity="0.29"/><path d="M.0,36.6L69.2,.0" transform="translate(88.231100,55.531600)" stroke-width="1" stroke-dasharray="11,5,2.5,5,2.5,5" stroke="#000000" fill="none" id="shape26"/><path d="M.0,36.6L69.2,.0" transform="translate(88.231100,59.423200)" stroke-width="1" stroke-dasharray="11,5,2.5,5,2.5,5" stroke="#000000" fill="none" id="shape27"/><g transform="translate(9.026500,50.424700)" id="group28"><path d="M.0,.0L20.3,10.7L20.3,21.8L.0,10.7L.0,.0z" stroke-width="1" fill-rule="nonzero" stroke="#ffffff" fill="#ffffff" id="shape29"/><path d="M.0,.0L18.4,9.8L18.4,18.3L.0,8.3L.0,.0z" transform="translate(0.845880,1.739420)" stroke-width="1" fill-rule="nonzero" stroke="#5fb7f1" fill="#5fb7f1" id="shape30"/><path d="M.0,.0L17.6,9.2L17.6,16.9L.0,7.5L.0,.0z" transform="translate(1.273400,2.436220)" fill-rule="nonzero" fill="#ffffff" id="shape31" fill-opacity="0.29"/></g><g transform="translate(39.339700,67.473700)" id="group32"><path d="M.0,.0L20.3,10.7L20.3,21.8L.0,10.7L.0,.0z" stroke-width="1" fill-rule="nonzero" stroke="#ffffff" fill="#ffffff" id="shape33"/><path d="M.0,.0L18.4,9.8L18.4,18.3L.0,8.3L.0,.0z" transform="translate(0.845880,1.739420)" stroke-width="1" fill-rule="nonzero" stroke="#5fb7f1" fill="#5fb7f1" id="shape34"/><path d="M.0,.0L17.6,9.2L17.6,16.9L.0,7.5L.0,.0z" transform="translate(1.273400,2.436220)" fill-rule="nonzero" fill="#ffffff" id="shape35" fill-opacity="0.29"/></g></g><g id="group36"><path d="M.0,.0L83.7,44.8L83.7,66.4L.0,21.6L.0,.0z" transform="translate(0.000000,41.030800)" stroke-width="0.5" fill-rule="nonzero" stroke="#d6d8df" fill="#d6d8df" id="shape37"/><path d="M.0,.0L77.8,41.1L77.8,62.8L.0,21.6L.0,.0z" transform="matrix(-1.000000,0.000000,0.000000,1.000000,161.500300,44.670600)" stroke-width="0.5" fill-rule="nonzero" stroke="#caccd3" fill="#caccd3" id="shape38"/><path d="M83.7,85.8L.0,41.0L77.8,.0L161.5,44.7L83.7,85.8z" stroke-width="0.5" fill-rule="nonzero" stroke="#e2e4e9" fill="#e2e4e9" id="shape39"/><path d="M.0,5.1C-0.2,2.5,1.3,.2,3.3,.0C5.3,-0.2,7.2,1.8,7.4,4.5C7.6,7.1,6.2,9.4,4.1,9.6C2.1,9.7,.3,7.7,.0,5.1z" transform="matrix(0.999391,-0.034899,0.034899,0.999391,71.260402,88.550650)" stroke-width="0.25" fill-rule="nonzero" stroke="#01acac" fill="#01acac" id="shape40"/><path d="M.0,4.1C-0.2,2.0,1.0,.1,2.6,.0C4.3,-0.1,5.7,1.5,5.9,3.6C6.1,5.7,4.9,7.5,3.3,7.6C1.7,7.8,.2,6.2,.0,4.1z" transform="matrix(0.999391,-0.034899,0.034899,0.999391,72.046701,89.492453)" stroke-width="0.4799999892711639" fill-rule="nonzero" stroke="#76d7d7" fill="#76d7d7" id="shape41"/><path d="M.0,3.5C-0.1,2.0,.4,.7,1.3,.0C1.3,.0,4.9,6.3,4.9,6.3C4.4,6.7,3.9,7.0,3.3,7.0C1.7,7.2,.2,5.6,.0,3.5z" transform="matrix(0.999391,-0.034899,0.034899,0.999391,72.030925,90.091571)" fill-rule="nonzero" fill="#ffffff" id="shape42" fill-opacity="0.29"/><path d="M.0,36.6L69.2,.0" transform="translate(88.231100,55.531600)" stroke-width="1" stroke-dasharray="11,5,2.5,5,2.5,5" stroke="#000000" fill="none" id="shape43"/><path d="M.0,36.6L69.2,.0" transform="translate(88.231100,59.423200)" stroke-width="1" stroke-dasharray="11,5,2.5,5,2.5,5" stroke="#000000" fill="none" id="shape44"/><g transform="translate(9.026500,50.424700)" id="group45"><path d="M.0,.0L20.3,10.7L20.3,21.8L.0,10.7L.0,.0z" stroke-width="1" fill-rule="nonzero" stroke="#ffffff" fill="#ffffff" id="shape46"/><path d="M.0,.0L18.4,9.8L18.4,18.3L.0,8.3L.0,.0z" transform="translate(0.845880,1.739420)" stroke-width="1" fill-rule="nonzero" stroke="#5fb7f1" fill="#5fb7f1" id="shape47"/><path d="M.0,.0L17.6,9.2L17.6,16.9L.0,7.5L.0,.0z" transform="translate(1.273400,2.436220)" fill-rule="nonzero" fill="#ffffff" id="shape48" fill-opacity="0.29"/></g><g transform="translate(39.339700,67.473700)" id="group49"><path d="M.0,.0L20.3,10.7L20.3,21.8L.0,10.7L.0,.0z" stroke-width="1" fill-rule="nonzero" stroke="#ffffff" fill="#ffffff" id="shape50"/><path d="M.0,.0L18.4,9.8L18.4,18.3L.0,8.3L.0,.0z" transform="translate(0.845880,1.739420)" stroke-width="1" fill-rule="nonzero" stroke="#5fb7f1" fill="#5fb7f1" id="shape51"/><path d="M.0,.0L17.6,9.2L17.6,16.9L.0,7.5L.0,.0z" transform="translate(1.273400,2.436220)" fill-rule="nonzero" fill="#ffffff" id="shape52" fill-opacity="0.29"/></g></g></g><g transform="translate(208.000000,232.303000)" id="shape53"><text xml:space="preserve" style="fill:#e16e6a;font-family:微软雅黑;font-size:20.00pt"><tspan y="44.5" x="22.7">Relay Sever 1 </tspan></text></g><g transform="translate(1078.210000,430.150000)" id="group54"><g transform="translate(0.000000,62.560200)" id="group55"><path d="M.0,.0L83.7,44.8L83.7,66.4L.0,21.6L.0,.0z" transform="translate(0.000000,41.030800)" stroke-width="0.5" fill-rule="nonzero" stroke="#d6d8df" fill="#d6d8df" id="shape56"/><path d="M.0,.0L77.8,41.1L77.8,62.8L.0,21.6L.0,.0z" transform="matrix(-1.000000,0.000000,0.000000,1.000000,161.500300,44.670600)" stroke-width="0.5" fill-rule="nonzero" stroke="#caccd3" fill="#caccd3" id="shape57"/><path d="M83.7,85.8L.0,41.0L77.8,.0L161.5,44.7L83.7,85.8z" stroke-width="0.5" fill-rule="nonzero" stroke="#e2e4e9" fill="#e2e4e9" id="shape58"/><path d="M.0,5.1C-0.2,2.5,1.3,.2,3.3,.0C5.3,-0.2,7.2,1.8,7.4,4.5C7.6,7.1,6.2,9.4,4.1,9.6C2.1,9.7,.3,7.7,.0,5.1z" transform="matrix(0.999391,-0.034899,0.034899,0.999391,71.260402,88.550650)" stroke-width="0.25" fill-rule="nonzero" stroke="#01acac" fill="#01acac" id="shape59"/><path d="M.0,4.1C-0.2,2.0,1.0,.1,2.6,.0C4.3,-0.1,5.7,1.5,5.9,3.6C6.1,5.7,4.9,7.5,3.3,7.6C1.7,7.8,.2,6.2,.0,4.1z" transform="matrix(0.999391,-0.034899,0.034899,0.999391,72.046701,89.492453)" stroke-width="0.4799999892711639" fill-rule="nonzero" stroke="#76d7d7" fill="#76d7d7" id="shape60"/><path d="M.0,3.5C-0.1,2.0,.4,.7,1.3,.0C1.3,.0,4.9,6.3,4.9,6.3C4.4,6.7,3.9,7.0,3.3,7.0C1.7,7.2,.2,5.6,.0,3.5z" transform="matrix(0.999391,-0.034899,0.034899,0.999391,72.030925,90.091571)" fill-rule="nonzero" fill="#ffffff" id="shape61" fill-opacity="0.29"/><path d="M.0,36.6L69.2,.0" transform="translate(88.231100,55.531600)" stroke-width="1" stroke-dasharray="11,5,2.5,5,2.5,5" stroke="#000000" fill="none" id="shape62"/><path d="M.0,36.6L69.2,.0" transform="translate(88.231100,59.423200)" stroke-width="1" stroke-dasharray="11,5,2.5,5,2.5,5" stroke="#000000" fill="none" id="shape63"/><g transform="translate(9.026500,50.424700)" id="group64"><path d="M.0,.0L20.3,10.7L20.3,21.8L.0,10.7L.0,.0z" stroke-width="1" fill-rule="nonzero" stroke="#ffffff" fill="#ffffff" id="shape65"/><path d="M.0,.0L18.4,9.8L18.4,18.3L.0,8.3L.0,.0z" transform="translate(0.845880,1.739420)" stroke-width="1" fill-rule="nonzero" stroke="#5fb7f1" fill="#5fb7f1" id="shape66"/><path d="M.0,.0L17.6,9.2L17.6,16.9L.0,7.5L.0,.0z" transform="translate(1.273400,2.436220)" fill-rule="nonzero" fill="#ffffff" id="shape67" fill-opacity="0.29"/></g><g transform="translate(39.339700,67.473700)" id="group68"><path d="M.0,.0L20.3,10.7L20.3,21.8L.0,10.7L.0,.0z" stroke-width="1" fill-rule="nonzero" stroke="#ffffff" fill="#ffffff" id="shape69"/><path d="M.0,.0L18.4,9.8L18.4,18.3L.0,8.3L.0,.0z" transform="translate(0.845880,1.739420)" stroke-width="1" fill-rule="nonzero" stroke="#5fb7f1" fill="#5fb7f1" id="shape70"/><path d="M.0,.0L17.6,9.2L17.6,16.9L.0,7.5L.0,.0z" transform="translate(1.273400,2.436220)" fill-rule="nonzero" fill="#ffffff" id="shape71" fill-opacity="0.29"/></g></g><g transform="translate(0.000000,31.280200)" id="group72"><path d="M.0,.0L83.7,44.8L83.7,66.4L.0,21.6L.0,.0z" transform="translate(0.000000,41.030800)" stroke-width="0.5" fill-rule="nonzero" stroke="#d6d8df" fill="#d6d8df" id="shape73"/><path d="M.0,.0L77.8,41.1L77.8,62.8L.0,21.6L.0,.0z" transform="matrix(-1.000000,0.000000,0.000000,1.000000,161.500300,44.670600)" stroke-width="0.5" fill-rule="nonzero" stroke="#caccd3" fill="#caccd3" id="shape74"/><path d="M83.7,85.8L.0,41.0L77.8,.0L161.5,44.7L83.7,85.8z" stroke-width="0.5" fill-rule="nonzero" stroke="#e2e4e9" fill="#e2e4e9" id="shape75"/><path d="M.0,5.1C-0.2,2.5,1.3,.2,3.3,.0C5.3,-0.2,7.2,1.8,7.4,4.5C7.6,7.1,6.2,9.4,4.1,9.6C2.1,9.7,.3,7.7,.0,5.1z" transform="matrix(0.999391,-0.034899,0.034899,0.999391,71.260402,88.550650)" stroke-width="0.25" fill-rule="nonzero" stroke="#01acac" fill="#01acac" id="shape76"/><path d="M.0,4.1C-0.2,2.0,1.0,.1,2.6,.0C4.3,-0.1,5.7,1.5,5.9,3.6C6.1,5.7,4.9,7.5,3.3,7.6C1.7,7.8,.2,6.2,.0,4.1z" transform="matrix(0.999391,-0.034899,0.034899,0.999391,72.046701,89.492453)" stroke-width="0.4799999892711639" fill-rule="nonzero" stroke="#76d7d7" fill="#76d7d7" id="shape77"/><path d="M.0,3.5C-0.1,2.0,.4,.7,1.3,.0C1.3,.0,4.9,6.3,4.9,6.3C4.4,6.7,3.9,7.0,3.3,7.0C1.7,7.2,.2,5.6,.0,3.5z" transform="matrix(0.999391,-0.034899,0.034899,0.999391,72.030925,90.091571)" fill-rule="nonzero" fill="#ffffff" id="shape78" fill-opacity="0.29"/><path d="M.0,36.6L69.2,.0" transform="translate(88.231100,55.531600)" stroke-width="1" stroke-dasharray="11,5,2.5,5,2.5,5" stroke="#000000" fill="none" id="shape79"/><path d="M.0,36.6L69.2,.0" transform="translate(88.231100,59.423200)" stroke-width="1" stroke-dasharray="11,5,2.5,5,2.5,5" stroke="#000000" fill="none" id="shape80"/><g transform="translate(9.026500,50.424700)" id="group81"><path d="M.0,.0L20.3,10.7L20.3,21.8L.0,10.7L.0,.0z" stroke-width="1" fill-rule="nonzero" stroke="#ffffff" fill="#ffffff" id="shape82"/><path d="M.0,.0L18.4,9.8L18.4,18.3L.0,8.3L.0,.0z" transform="translate(0.845880,1.739420)" stroke-width="1" fill-rule="nonzero" stroke="#5fb7f1" fill="#5fb7f1" id="shape83"/><path d="M.0,.0L17.6,9.2L17.6,16.9L.0,7.5L.0,.0z" transform="translate(1.273400,2.436220)" fill-rule="nonzero" fill="#ffffff" id="shape84" fill-opacity="0.29"/></g><g transform="translate(39.339700,67.473700)" id="group85"><path d="M.0,.0L20.3,10.7L20.3,21.8L.0,10.7L.0,.0z" stroke-width="1" fill-rule="nonzero" stroke="#ffffff" fill="#ffffff" id="shape86"/><path d="M.0,.0L18.4,9.8L18.4,18.3L.0,8.3L.0,.0z" transform="translate(0.845880,1.739420)" stroke-width="1" fill-rule="nonzero" stroke="#5fb7f1" fill="#5fb7f1" id="shape87"/><path d="M.0,.0L17.6,9.2L17.6,16.9L.0,7.5L.0,.0z" transform="translate(1.273400,2.436220)" fill-rule="nonzero" fill="#ffffff" id="shape88" fill-opacity="0.29"/></g></g><g id="group89"><path d="M.0,.0L83.7,44.8L83.7,66.4L.0,21.6L.0,.0z" transform="translate(0.000000,41.030800)" stroke-width="0.5" fill-rule="nonzero" stroke="#d6d8df" fill="#d6d8df" id="shape90"/><path d="M.0,.0L77.8,41.1L77.8,62.8L.0,21.6L.0,.0z" transform="matrix(-1.000000,0.000000,0.000000,1.000000,161.500300,44.670600)" stroke-width="0.5" fill-rule="nonzero" stroke="#caccd3" fill="#caccd3" id="shape91"/><path d="M83.7,85.8L.0,41.0L77.8,.0L161.5,44.7L83.7,85.8z" stroke-width="0.5" fill-rule="nonzero" stroke="#e2e4e9" fill="#e2e4e9" id="shape92"/><path d="M.0,5.1C-0.2,2.5,1.3,.2,3.3,.0C5.3,-0.2,7.2,1.8,7.4,4.5C7.6,7.1,6.2,9.4,4.1,9.6C2.1,9.7,.3,7.7,.0,5.1z" transform="matrix(0.999391,-0.034899,0.034899,0.999391,71.260402,88.550650)" stroke-width="0.25" fill-rule="nonzero" stroke="#01acac" fill="#01acac" id="shape93"/><path d="M.0,4.1C-0.2,2.0,1.0,.1,2.6,.0C4.3,-0.1,5.7,1.5,5.9,3.6C6.1,5.7,4.9,7.5,3.3,7.6C1.7,7.8,.2,6.2,.0,4.1z" transform="matrix(0.999391,-0.034899,0.034899,0.999391,72.046701,89.492453)" stroke-width="0.4799999892711639" fill-rule="nonzero" stroke="#76d7d7" fill="#76d7d7" id="shape94"/><path d="M.0,3.5C-0.1,2.0,.4,.7,1.3,.0C1.3,.0,4.9,6.3,4.9,6.3C4.4,6.7,3.9,7.0,3.3,7.0C1.7,7.2,.2,5.6,.0,3.5z" transform="matrix(0.999391,-0.034899,0.034899,0.999391,72.030925,90.091571)" fill-rule="nonzero" fill="#ffffff" id="shape95" fill-opacity="0.29"/><path d="M.0,36.6L69.2,.0" transform="translate(88.231100,55.531600)" stroke-width="1" stroke-dasharray="11,5,2.5,5,2.5,5" stroke="#000000" fill="none" id="shape96"/><path d="M.0,36.6L69.2,.0" transform="translate(88.231100,59.423200)" stroke-width="1" stroke-dasharray="11,5,2.5,5,2.5,5" stroke="#000000" fill="none" id="shape97"/><g transform="translate(9.026500,50.424700)" id="group98"><path d="M.0,.0L20.3,10.7L20.3,21.8L.0,10.7L.0,.0z" stroke-width="1" fill-rule="nonzero" stroke="#ffffff" fill="#ffffff" id="shape99"/><path d="M.0,.0L18.4,9.8L18.4,18.3L.0,8.3L.0,.0z" transform="translate(0.845880,1.739420)" stroke-width="1" fill-rule="nonzero" stroke="#5fb7f1" fill="#5fb7f1" id="shape100"/><path d="M.0,.0L17.6,9.2L17.6,16.9L.0,7.5L.0,.0z" transform="translate(1.273400,2.436220)" fill-rule="nonzero" fill="#ffffff" id="shape101" fill-opacity="0.29"/></g><g transform="translate(39.339700,67.473700)" id="group102"><path d="M.0,.0L20.3,10.7L20.3,21.8L.0,10.7L.0,.0z" stroke-width="1" fill-rule="nonzero" stroke="#ffffff" fill="#ffffff" id="shape103"/><path d="M.0,.0L18.4,9.8L18.4,18.3L.0,8.3L.0,.0z" transform="translate(0.845880,1.739420)" stroke-width="1" fill-rule="nonzero" stroke="#5fb7f1" fill="#5fb7f1" id="shape104"/><path d="M.0,.0L17.6,9.2L17.6,16.9L.0,7.5L.0,.0z" transform="translate(1.273400,2.436220)" fill-rule="nonzero" fill="#ffffff" id="shape105" fill-opacity="0.29"/></g></g></g><g transform="translate(729.697000,586.000000)" id="group106"><g transform="translate(0.000000,62.560200)" id="group107"><path d="M.0,.0L83.7,44.8L83.7,66.4L.0,21.6L.0,.0z" transform="translate(0.000000,41.030800)" stroke-width="0.5" fill-rule="nonzero" stroke="#d6d8df" fill="#d6d8df" id="shape108"/><path d="M.0,.0L77.8,41.1L77.8,62.8L.0,21.6L.0,.0z" transform="matrix(-1.000000,0.000000,0.000000,1.000000,161.500300,44.670600)" stroke-width="0.5" fill-rule="nonzero" stroke="#caccd3" fill="#caccd3" id="shape109"/><path d="M83.7,85.8L.0,41.0L77.8,.0L161.5,44.7L83.7,85.8z" stroke-width="0.5" fill-rule="nonzero" stroke="#e2e4e9" fill="#e2e4e9" id="shape110"/><path d="M.0,5.1C-0.2,2.5,1.3,.2,3.3,.0C5.3,-0.2,7.2,1.8,7.4,4.5C7.6,7.1,6.2,9.4,4.1,9.6C2.1,9.7,.3,7.7,.0,5.1z" transform="matrix(0.999391,-0.034899,0.034899,0.999391,71.260402,88.550650)" stroke-width="0.25" fill-rule="nonzero" stroke="#01acac" fill="#01acac" id="shape111"/><path d="M.0,4.1C-0.2,2.0,1.0,.1,2.6,.0C4.3,-0.1,5.7,1.5,5.9,3.6C6.1,5.7,4.9,7.5,3.3,7.6C1.7,7.8,.2,6.2,.0,4.1z" transform="matrix(0.999391,-0.034899,0.034899,0.999391,72.046701,89.492453)" stroke-width="0.4799999892711639" fill-rule="nonzero" stroke="#76d7d7" fill="#76d7d7" id="shape112"/><path d="M.0,3.5C-0.1,2.0,.4,.7,1.3,.0C1.3,.0,4.9,6.3,4.9,6.3C4.4,6.7,3.9,7.0,3.3,7.0C1.7,7.2,.2,5.6,.0,3.5z" transform="matrix(0.999391,-0.034899,0.034899,0.999391,72.030925,90.091571)" fill-rule="nonzero" fill="#ffffff" id="shape113" fill-opacity="0.29"/><path d="M.0,36.6L69.2,.0" transform="translate(88.231100,55.531600)" stroke-width="1" stroke-dasharray="11,5,2.5,5,2.5,5" stroke="#000000" fill="none" id="shape114"/><path d="M.0,36.6L69.2,.0" transform="translate(88.231100,59.423200)" stroke-width="1" stroke-dasharray="11,5,2.5,5,2.5,5" stroke="#000000" fill="none" id="shape115"/><g transform="translate(9.026500,50.424700)" id="group116"><path d="M.0,.0L20.3,10.7L20.3,21.8L.0,10.7L.0,.0z" stroke-width="1" fill-rule="nonzero" stroke="#ffffff" fill="#ffffff" id="shape117"/><path d="M.0,.0L18.4,9.8L18.4,18.3L.0,8.3L.0,.0z" transform="translate(0.845880,1.739420)" stroke-width="1" fill-rule="nonzero" stroke="#5fb7f1" fill="#5fb7f1" id="shape118"/><path d="M.0,.0L17.6,9.2L17.6,16.9L.0,7.5L.0,.0z" transform="translate(1.273400,2.436220)" fill-rule="nonzero" fill="#ffffff" id="shape119" fill-opacity="0.29"/></g><g transform="translate(39.339700,67.473700)" id="group120"><path d="M.0,.0L20.3,10.7L20.3,21.8L.0,10.7L.0,.0z" stroke-width="1" fill-rule="nonzero" stroke="#ffffff" fill="#ffffff" id="shape121"/><path d="M.0,.0L18.4,9.8L18.4,18.3L.0,8.3L.0,.0z" transform="translate(0.845880,1.739420)" stroke-width="1" fill-rule="nonzero" stroke="#5fb7f1" fill="#5fb7f1" id="shape122"/><path d="M.0,.0L17.6,9.2L17.6,16.9L.0,7.5L.0,.0z" transform="translate(1.273400,2.436220)" fill-rule="nonzero" fill="#ffffff" id="shape123" fill-opacity="0.29"/></g></g><g transform="translate(0.000000,31.280200)" id="group124"><path d="M.0,.0L83.7,44.8L83.7,66.4L.0,21.6L.0,.0z" transform="translate(0.000000,41.030800)" stroke-width="0.5" fill-rule="nonzero" stroke="#d6d8df" fill="#d6d8df" id="shape125"/><path d="M.0,.0L77.8,41.1L77.8,62.8L.0,21.6L.0,.0z" transform="matrix(-1.000000,0.000000,0.000000,1.000000,161.500300,44.670600)" stroke-width="0.5" fill-rule="nonzero" stroke="#caccd3" fill="#caccd3" id="shape126"/><path d="M83.7,85.8L.0,41.0L77.8,.0L161.5,44.7L83.7,85.8z" stroke-width="0.5" fill-rule="nonzero" stroke="#e2e4e9" fill="#e2e4e9" id="shape127"/><path d="M.0,5.1C-0.2,2.5,1.3,.2,3.3,.0C5.3,-0.2,7.2,1.8,7.4,4.5C7.6,7.1,6.2,9.4,4.1,9.6C2.1,9.7,.3,7.7,.0,5.1z" transform="matrix(0.999391,-0.034899,0.034899,0.999391,71.260402,88.550650)" stroke-width="0.25" fill-rule="nonzero" stroke="#01acac" fill="#01acac" id="shape128"/><path d="M.0,4.1C-0.2,2.0,1.0,.1,2.6,.0C4.3,-0.1,5.7,1.5,5.9,3.6C6.1,5.7,4.9,7.5,3.3,7.6C1.7,7.8,.2,6.2,.0,4.1z" transform="matrix(0.999391,-0.034899,0.034899,0.999391,72.046701,89.492453)" stroke-width="0.4799999892711639" fill-rule="nonzero" stroke="#76d7d7" fill="#76d7d7" id="shape129"/><path d="M.0,3.5C-0.1,2.0,.4,.7,1.3,.0C1.3,.0,4.9,6.3,4.9,6.3C4.4,6.7,3.9,7.0,3.3,7.0C1.7,7.2,.2,5.6,.0,3.5z" transform="matrix(0.999391,-0.034899,0.034899,0.999391,72.030925,90.091571)" fill-rule="nonzero" fill="#ffffff" id="shape130" fill-opacity="0.29"/><path d="M.0,36.6L69.2,.0" transform="translate(88.231100,55.531600)" stroke-width="1" stroke-dasharray="11,5,2.5,5,2.5,5" stroke="#000000" fill="none" id="shape131"/><path d="M.0,36.6L69.2,.0" transform="translate(88.231100,59.423200)" stroke-width="1" stroke-dasharray="11,5,2.5,5,2.5,5" stroke="#000000" fill="none" id="shape132"/><g transform="translate(9.026500,50.424700)" id="group133"><path d="M.0,.0L20.3,10.7L20.3,21.8L.0,10.7L.0,.0z" stroke-width="1" fill-rule="nonzero" stroke="#ffffff" fill="#ffffff" id="shape134"/><path d="M.0,.0L18.4,9.8L18.4,18.3L.0,8.3L.0,.0z" transform="translate(0.845880,1.739420)" stroke-width="1" fill-rule="nonzero" stroke="#5fb7f1" fill="#5fb7f1" id="shape135"/><path d="M.0,.0L17.6,9.2L17.6,16.9L.0,7.5L.0,.0z" transform="translate(1.273400,2.436220)" fill-rule="nonzero" fill="#ffffff" id="shape136" fill-opacity="0.29"/></g><g transform="translate(39.339700,67.473700)" id="group137"><path d="M.0,.0L20.3,10.7L20.3,21.8L.0,10.7L.0,.0z" stroke-width="1" fill-rule="nonzero" stroke="#ffffff" fill="#ffffff" id="shape138"/><path d="M.0,.0L18.4,9.8L18.4,18.3L.0,8.3L.0,.0z" transform="translate(0.845880,1.739420)" stroke-width="1" fill-rule="nonzero" stroke="#5fb7f1" fill="#5fb7f1" id="shape139"/><path d="M.0,.0L17.6,9.2L17.6,16.9L.0,7.5L.0,.0z" transform="translate(1.273400,2.436220)" fill-rule="nonzero" fill="#ffffff" id="shape140" fill-opacity="0.29"/></g></g><g id="group141"><path d="M.0,.0L83.7,44.8L83.7,66.4L.0,21.6L.0,.0z" transform="translate(0.000000,41.030800)" stroke-width="0.5" fill-rule="nonzero" stroke="#d6d8df" fill="#d6d8df" id="shape142"/><path d="M.0,.0L77.8,41.1L77.8,62.8L.0,21.6L.0,.0z" transform="matrix(-1.000000,0.000000,0.000000,1.000000,161.500300,44.670600)" stroke-width="0.5" fill-rule="nonzero" stroke="#caccd3" fill="#caccd3" id="shape143"/><path d="M83.7,85.8L.0,41.0L77.8,.0L161.5,44.7L83.7,85.8z" stroke-width="0.5" fill-rule="nonzero" stroke="#e2e4e9" fill="#e2e4e9" id="shape144"/><path d="M.0,5.1C-0.2,2.5,1.3,.2,3.3,.0C5.3,-0.2,7.2,1.8,7.4,4.5C7.6,7.1,6.2,9.4,4.1,9.6C2.1,9.7,.3,7.7,.0,5.1z" transform="matrix(0.999391,-0.034899,0.034899,0.999391,71.260402,88.550650)" stroke-width="0.25" fill-rule="nonzero" stroke="#01acac" fill="#01acac" id="shape145"/><path d="M.0,4.1C-0.2,2.0,1.0,.1,2.6,.0C4.3,-0.1,5.7,1.5,5.9,3.6C6.1,5.7,4.9,7.5,3.3,7.6C1.7,7.8,.2,6.2,.0,4.1z" transform="matrix(0.999391,-0.034899,0.034899,0.999391,72.046701,89.492453)" stroke-width="0.4799999892711639" fill-rule="nonzero" stroke="#76d7d7" fill="#76d7d7" id="shape146"/><path d="M.0,3.5C-0.1,2.0,.4,.7,1.3,.0C1.3,.0,4.9,6.3,4.9,6.3C4.4,6.7,3.9,7.0,3.3,7.0C1.7,7.2,.2,5.6,.0,3.5z" transform="matrix(0.999391,-0.034899,0.034899,0.999391,72.030925,90.091571)" fill-rule="nonzero" fill="#ffffff" id="shape147" fill-opacity="0.29"/><path d="M.0,36.6L69.2,.0" transform="translate(88.231100,55.531600)" stroke-width="1" stroke-dasharray="11,5,2.5,5,2.5,5" stroke="#000000" fill="none" id="shape148"/><path d="M.0,36.6L69.2,.0" transform="translate(88.231100,59.423200)" stroke-width="1" stroke-dasharray="11,5,2.5,5,2.5,5" stroke="#000000" fill="none" id="shape149"/><g transform="translate(9.026500,50.424700)" id="group150"><path d="M.0,.0L20.3,10.7L20.3,21.8L.0,10.7L.0,.0z" stroke-width="1" fill-rule="nonzero" stroke="#ffffff" fill="#ffffff" id="shape151"/><path d="M.0,.0L18.4,9.8L18.4,18.3L.0,8.3L.0,.0z" transform="translate(0.845880,1.739420)" stroke-width="1" fill-rule="nonzero" stroke="#5fb7f1" fill="#5fb7f1" id="shape152"/><path d="M.0,.0L17.6,9.2L17.6,16.9L.0,7.5L.0,.0z" transform="translate(1.273400,2.436220)" fill-rule="nonzero" fill="#ffffff" id="shape153" fill-opacity="0.29"/></g><g transform="translate(39.339700,67.473700)" id="group154"><path d="M.0,.0L20.3,10.7L20.3,21.8L.0,10.7L.0,.0z" stroke-width="1" fill-rule="nonzero" stroke="#ffffff" fill="#ffffff" id="shape155"/><path d="M.0,.0L18.4,9.8L18.4,18.3L.0,8.3L.0,.0z" transform="translate(0.845880,1.739420)" stroke-width="1" fill-rule="nonzero" stroke="#5fb7f1" fill="#5fb7f1" id="shape156"/><path d="M.0,.0L17.6,9.2L17.6,16.9L.0,7.5L.0,.0z" transform="translate(1.273400,2.436220)" fill-rule="nonzero" fill="#ffffff" id="shape157" fill-opacity="0.29"/></g></g></g><g transform="translate(1400.200000,236.000000)" id="group158"><g transform="translate(0.000000,62.560200)" id="group159"><path d="M.0,.0L83.7,44.8L83.7,66.4L.0,21.6L.0,.0z" transform="translate(0.000000,41.030800)" stroke-width="0.5" fill-rule="nonzero" stroke="#d6d8df" fill="#d6d8df" id="shape160"/><path d="M.0,.0L77.8,41.1L77.8,62.8L.0,21.6L.0,.0z" transform="matrix(-1.000000,0.000000,0.000000,1.000000,161.500300,44.670600)" stroke-width="0.5" fill-rule="nonzero" stroke="#caccd3" fill="#caccd3" id="shape161"/><path d="M83.7,85.8L.0,41.0L77.8,.0L161.5,44.7L83.7,85.8z" stroke-width="0.5" fill-rule="nonzero" stroke="#e2e4e9" fill="#e2e4e9" id="shape162"/><path d="M.0,5.1C-0.2,2.5,1.3,.2,3.3,.0C5.3,-0.2,7.2,1.8,7.4,4.5C7.6,7.1,6.2,9.4,4.1,9.6C2.1,9.7,.3,7.7,.0,5.1z" transform="matrix(0.999391,-0.034899,0.034899,0.999391,71.260402,88.550650)" stroke-width="0.25" fill-rule="nonzero" stroke="#01acac" fill="#01acac" id="shape163"/><path d="M.0,4.1C-0.2,2.0,1.0,.1,2.6,.0C4.3,-0.1,5.7,1.5,5.9,3.6C6.1,5.7,4.9,7.5,3.3,7.6C1.7,7.8,.2,6.2,.0,4.1z" transform="matrix(0.999391,-0.034899,0.034899,0.999391,72.046701,89.492453)" stroke-width="0.4799999892711639" fill-rule="nonzero" stroke="#76d7d7" fill="#76d7d7" id="shape164"/><path d="M.0,3.5C-0.1,2.0,.4,.7,1.3,.0C1.3,.0,4.9,6.3,4.9,6.3C4.4,6.7,3.9,7.0,3.3,7.0C1.7,7.2,.2,5.6,.0,3.5z" transform="matrix(0.999391,-0.034899,0.034899,0.999391,72.030925,90.091571)" fill-rule="nonzero" fill="#ffffff" id="shape165" fill-opacity="0.29"/><path d="M.0,36.6L69.2,.0" transform="translate(88.231100,55.531600)" stroke-width="1" stroke-dasharray="11,5,2.5,5,2.5,5" stroke="#000000" fill="none" id="shape166"/><path d="M.0,36.6L69.2,.0" transform="translate(88.231100,59.423200)" stroke-width="1" stroke-dasharray="11,5,2.5,5,2.5,5" stroke="#000000" fill="none" id="shape167"/><g transform="translate(9.026500,50.424700)" id="group168"><path d="M.0,.0L20.3,10.7L20.3,21.8L.0,10.7L.0,.0z" stroke-width="1" fill-rule="nonzero" stroke="#ffffff" fill="#ffffff" id="shape169"/><path d="M.0,.0L18.4,9.8L18.4,18.3L.0,8.3L.0,.0z" transform="translate(0.845880,1.739420)" stroke-width="1" fill-rule="nonzero" stroke="#5fb7f1" fill="#5fb7f1" id="shape170"/><path d="M.0,.0L17.6,9.2L17.6,16.9L.0,7.5L.0,.0z" transform="translate(1.273400,2.436220)" fill-rule="nonzero" fill="#ffffff" id="shape171" fill-opacity="0.29"/></g><g transform="translate(39.339700,67.473700)" id="group172"><path d="M.0,.0L20.3,10.7L20.3,21.8L.0,10.7L.0,.0z" stroke-width="1" fill-rule="nonzero" stroke="#ffffff" fill="#ffffff" id="shape173"/><path d="M.0,.0L18.4,9.8L18.4,18.3L.0,8.3L.0,.0z" transform="translate(0.845880,1.739420)" stroke-width="1" fill-rule="nonzero" stroke="#5fb7f1" fill="#5fb7f1" id="shape174"/><path d="M.0,.0L17.6,9.2L17.6,16.9L.0,7.5L.0,.0z" transform="translate(1.273400,2.436220)" fill-rule="nonzero" fill="#ffffff" id="shape175" fill-opacity="0.29"/></g></g><g transform="translate(0.000000,31.280200)" id="group176"><path d="M.0,.0L83.7,44.8L83.7,66.4L.0,21.6L.0,.0z" transform="translate(0.000000,41.030800)" stroke-width="0.5" fill-rule="nonzero" stroke="#d6d8df" fill="#d6d8df" id="shape177"/><path d="M.0,.0L77.8,41.1L77.8,62.8L.0,21.6L.0,.0z" transform="matrix(-1.000000,0.000000,0.000000,1.000000,161.500300,44.670600)" stroke-width="0.5" fill-rule="nonzero" stroke="#caccd3" fill="#caccd3" id="shape178"/><path d="M83.7,85.8L.0,41.0L77.8,.0L161.5,44.7L83.7,85.8z" stroke-width="0.5" fill-rule="nonzero" stroke="#e2e4e9" fill="#e2e4e9" id="shape179"/><path d="M.0,5.1C-0.2,2.5,1.3,.2,3.3,.0C5.3,-0.2,7.2,1.8,7.4,4.5C7.6,7.1,6.2,9.4,4.1,9.6C2.1,9.7,.3,7.7,.0,5.1z" transform="matrix(0.999391,-0.034899,0.034899,0.999391,71.260402,88.550650)" stroke-width="0.25" fill-rule="nonzero" stroke="#01acac" fill="#01acac" id="shape180"/><path d="M.0,4.1C-0.2,2.0,1.0,.1,2.6,.0C4.3,-0.1,5.7,1.5,5.9,3.6C6.1,5.7,4.9,7.5,3.3,7.6C1.7,7.8,.2,6.2,.0,4.1z" transform="matrix(0.999391,-0.034899,0.034899,0.999391,72.046701,89.492453)" stroke-width="0.4799999892711639" fill-rule="nonzero" stroke="#76d7d7" fill="#76d7d7" id="shape181"/><path d="M.0,3.5C-0.1,2.0,.4,.7,1.3,.0C1.3,.0,4.9,6.3,4.9,6.3C4.4,6.7,3.9,7.0,3.3,7.0C1.7,7.2,.2,5.6,.0,3.5z" transform="matrix(0.999391,-0.034899,0.034899,0.999391,72.030925,90.091571)" fill-rule="nonzero" fill="#ffffff" id="shape182" fill-opacity="0.29"/><path d="M.0,36.6L69.2,.0" transform="translate(88.231100,55.531600)" stroke-width="1" stroke-dasharray="11,5,2.5,5,2.5,5" stroke="#000000" fill="none" id="shape183"/><path d="M.0,36.6L69.2,.0" transform="translate(88.231100,59.423200)" stroke-width="1" stroke-dasharray="11,5,2.5,5,2.5,5" stroke="#000000" fill="none" id="shape184"/><g transform="translate(9.026500,50.424700)" id="group185"><path d="M.0,.0L20.3,10.7L20.3,21.8L.0,10.7L.0,.0z" stroke-width="1" fill-rule="nonzero" stroke="#ffffff" fill="#ffffff" id="shape186"/><path d="M.0,.0L18.4,9.8L18.4,18.3L.0,8.3L.0,.0z" transform="translate(0.845880,1.739420)" stroke-width="1" fill-rule="nonzero" stroke="#5fb7f1" fill="#5fb7f1" id="shape187"/><path d="M.0,.0L17.6,9.2L17.6,16.9L.0,7.5L.0,.0z" transform="translate(1.273400,2.436220)" fill-rule="nonzero" fill="#ffffff" id="shape188" fill-opacity="0.29"/></g><g transform="translate(39.339700,67.473700)" id="group189"><path d="M.0,.0L20.3,10.7L20.3,21.8L.0,10.7L.0,.0z" stroke-width="1" fill-rule="nonzero" stroke="#ffffff" fill="#ffffff" id="shape190"/><path d="M.0,.0L18.4,9.8L18.4,18.3L.0,8.3L.0,.0z" transform="translate(0.845880,1.739420)" stroke-width="1" fill-rule="nonzero" stroke="#5fb7f1" fill="#5fb7f1" id="shape191"/><path d="M.0,.0L17.6,9.2L17.6,16.9L.0,7.5L.0,.0z" transform="translate(1.273400,2.436220)" fill-rule="nonzero" fill="#ffffff" id="shape192" fill-opacity="0.29"/></g></g><g id="group193"><path d="M.0,.0L83.7,44.8L83.7,66.4L.0,21.6L.0,.0z" transform="translate(0.000000,41.030800)" stroke-width="0.5" fill-rule="nonzero" stroke="#d6d8df" fill="#d6d8df" id="shape194"/><path d="M.0,.0L77.8,41.1L77.8,62.8L.0,21.6L.0,.0z" transform="matrix(-1.000000,0.000000,0.000000,1.000000,161.500300,44.670600)" stroke-width="0.5" fill-rule="nonzero" stroke="#caccd3" fill="#caccd3" id="shape195"/><path d="M83.7,85.8L.0,41.0L77.8,.0L161.5,44.7L83.7,85.8z" stroke-width="0.5" fill-rule="nonzero" stroke="#e2e4e9" fill="#e2e4e9" id="shape196"/><path d="M.0,5.1C-0.2,2.5,1.3,.2,3.3,.0C5.3,-0.2,7.2,1.8,7.4,4.5C7.6,7.1,6.2,9.4,4.1,9.6C2.1,9.7,.3,7.7,.0,5.1z" transform="matrix(0.999391,-0.034899,0.034899,0.999391,71.260402,88.550650)" stroke-width="0.25" fill-rule="nonzero" stroke="#01acac" fill="#01acac" id="shape197"/><path d="M.0,4.1C-0.2,2.0,1.0,.1,2.6,.0C4.3,-0.1,5.7,1.5,5.9,3.6C6.1,5.7,4.9,7.5,3.3,7.6C1.7,7.8,.2,6.2,.0,4.1z" transform="matrix(0.999391,-0.034899,0.034899,0.999391,72.046701,89.492453)" stroke-width="0.4799999892711639" fill-rule="nonzero" stroke="#76d7d7" fill="#76d7d7" id="shape198"/><path d="M.0,3.5C-0.1,2.0,.4,.7,1.3,.0C1.3,.0,4.9,6.3,4.9,6.3C4.4,6.7,3.9,7.0,3.3,7.0C1.7,7.2,.2,5.6,.0,3.5z" transform="matrix(0.999391,-0.034899,0.034899,0.999391,72.030925,90.091571)" fill-rule="nonzero" fill="#ffffff" id="shape199" fill-opacity="0.29"/><path d="M.0,36.6L69.2,.0" transform="translate(88.231100,55.531600)" stroke-width="1" stroke-dasharray="11,5,2.5,5,2.5,5" stroke="#000000" fill="none" id="shape200"/><path d="M.0,36.6L69.2,.0" transform="translate(88.231100,59.423200)" stroke-width="1" stroke-dasharray="11,5,2.5,5,2.5,5" stroke="#000000" fill="none" id="shape201"/><g transform="translate(9.026500,50.424700)" id="group202"><path d="M.0,.0L20.3,10.7L20.3,21.8L.0,10.7L.0,.0z" stroke-width="1" fill-rule="nonzero" stroke="#ffffff" fill="#ffffff" id="shape203"/><path d="M.0,.0L18.4,9.8L18.4,18.3L.0,8.3L.0,.0z" transform="translate(0.845880,1.739420)" stroke-width="1" fill-rule="nonzero" stroke="#5fb7f1" fill="#5fb7f1" id="shape204"/><path d="M.0,.0L17.6,9.2L17.6,16.9L.0,7.5L.0,.0z" transform="translate(1.273400,2.436220)" fill-rule="nonzero" fill="#ffffff" id="shape205" fill-opacity="0.29"/></g><g transform="translate(39.339700,67.473700)" id="group206"><path d="M.0,.0L20.3,10.7L20.3,21.8L.0,10.7L.0,.0z" stroke-width="1" fill-rule="nonzero" stroke="#ffffff" fill="#ffffff" id="shape207"/><path d="M.0,.0L18.4,9.8L18.4,18.3L.0,8.3L.0,.0z" transform="translate(0.845880,1.739420)" stroke-width="1" fill-rule="nonzero" stroke="#5fb7f1" fill="#5fb7f1" id="shape208"/><path d="M.0,.0L17.6,9.2L17.6,16.9L.0,7.5L.0,.0z" transform="translate(1.273400,2.436220)" fill-rule="nonzero" fill="#ffffff" id="shape209" fill-opacity="0.29"/></g></g></g><g transform="translate(1456.200000,586.000000)" id="group210"><g transform="translate(0.000000,62.560200)" id="group211"><path d="M.0,.0L83.7,44.8L83.7,66.4L.0,21.6L.0,.0z" transform="translate(0.000000,41.030800)" stroke-width="0.5" fill-rule="nonzero" stroke="#d6d8df" fill="#d6d8df" id="shape212"/><path d="M.0,.0L77.8,41.1L77.8,62.8L.0,21.6L.0,.0z" transform="matrix(-1.000000,0.000000,0.000000,1.000000,161.500300,44.670600)" stroke-width="0.5" fill-rule="nonzero" stroke="#caccd3" fill="#caccd3" id="shape213"/><path d="M83.7,85.8L.0,41.0L77.8,.0L161.5,44.7L83.7,85.8z" stroke-width="0.5" fill-rule="nonzero" stroke="#e2e4e9" fill="#e2e4e9" id="shape214"/><path d="M.0,5.1C-0.2,2.5,1.3,.2,3.3,.0C5.3,-0.2,7.2,1.8,7.4,4.5C7.6,7.1,6.2,9.4,4.1,9.6C2.1,9.7,.3,7.7,.0,5.1z" transform="matrix(0.999391,-0.034899,0.034899,0.999391,71.260402,88.550650)" stroke-width="0.25" fill-rule="nonzero" stroke="#01acac" fill="#01acac" id="shape215"/><path d="M.0,4.1C-0.2,2.0,1.0,.1,2.6,.0C4.3,-0.1,5.7,1.5,5.9,3.6C6.1,5.7,4.9,7.5,3.3,7.6C1.7,7.8,.2,6.2,.0,4.1z" transform="matrix(0.999391,-0.034899,0.034899,0.999391,72.046701,89.492453)" stroke-width="0.4799999892711639" fill-rule="nonzero" stroke="#76d7d7" fill="#76d7d7" id="shape216"/><path d="M.0,3.5C-0.1,2.0,.4,.7,1.3,.0C1.3,.0,4.9,6.3,4.9,6.3C4.4,6.7,3.9,7.0,3.3,7.0C1.7,7.2,.2,5.6,.0,3.5z" transform="matrix(0.999391,-0.034899,0.034899,0.999391,72.030925,90.091571)" fill-rule="nonzero" fill="#ffffff" id="shape217" fill-opacity="0.29"/><path d="M.0,36.6L69.2,.0" transform="translate(88.231100,55.531600)" stroke-width="1" stroke-dasharray="11,5,2.5,5,2.5,5" stroke="#000000" fill="none" id="shape218"/><path d="M.0,36.6L69.2,.0" transform="translate(88.231100,59.423200)" stroke-width="1" stroke-dasharray="11,5,2.5,5,2.5,5" stroke="#000000" fill="none" id="shape219"/><g transform="translate(9.026500,50.424700)" id="group220"><path d="M.0,.0L20.3,10.7L20.3,21.8L.0,10.7L.0,.0z" stroke-width="1" fill-rule="nonzero" stroke="#ffffff" fill="#ffffff" id="shape221"/><path d="M.0,.0L18.4,9.8L18.4,18.3L.0,8.3L.0,.0z" transform="translate(0.845880,1.739420)" stroke-width="1" fill-rule="nonzero" stroke="#5fb7f1" fill="#5fb7f1" id="shape222"/><path d="M.0,.0L17.6,9.2L17.6,16.9L.0,7.5L.0,.0z" transform="translate(1.273400,2.436220)" fill-rule="nonzero" fill="#ffffff" id="shape223" fill-opacity="0.29"/></g><g transform="translate(39.339700,67.473700)" id="group224"><path d="M.0,.0L20.3,10.7L20.3,21.8L.0,10.7L.0,.0z" stroke-width="1" fill-rule="nonzero" stroke="#ffffff" fill="#ffffff" id="shape225"/><path d="M.0,.0L18.4,9.8L18.4,18.3L.0,8.3L.0,.0z" transform="translate(0.845880,1.739420)" stroke-width="1" fill-rule="nonzero" stroke="#5fb7f1" fill="#5fb7f1" id="shape226"/><path d="M.0,.0L17.6,9.2L17.6,16.9L.0,7.5L.0,.0z" transform="translate(1.273400,2.436220)" fill-rule="nonzero" fill="#ffffff" id="shape227" fill-opacity="0.29"/></g></g><g transform="translate(0.000000,31.280200)" id="group228"><path d="M.0,.0L83.7,44.8L83.7,66.4L.0,21.6L.0,.0z" transform="translate(0.000000,41.030800)" stroke-width="0.5" fill-rule="nonzero" stroke="#d6d8df" fill="#d6d8df" id="shape229"/><path d="M.0,.0L77.8,41.1L77.8,62.8L.0,21.6L.0,.0z" transform="matrix(-1.000000,0.000000,0.000000,1.000000,161.500300,44.670600)" stroke-width="0.5" fill-rule="nonzero" stroke="#caccd3" fill="#caccd3" id="shape230"/><path d="M83.7,85.8L.0,41.0L77.8,.0L161.5,44.7L83.7,85.8z" stroke-width="0.5" fill-rule="nonzero" stroke="#e2e4e9" fill="#e2e4e9" id="shape231"/><path d="M.0,5.1C-0.2,2.5,1.3,.2,3.3,.0C5.3,-0.2,7.2,1.8,7.4,4.5C7.6,7.1,6.2,9.4,4.1,9.6C2.1,9.7,.3,7.7,.0,5.1z" transform="matrix(0.999391,-0.034899,0.034899,0.999391,71.260402,88.550650)" stroke-width="0.25" fill-rule="nonzero" stroke="#01acac" fill="#01acac" id="shape232"/><path d="M.0,4.1C-0.2,2.0,1.0,.1,2.6,.0C4.3,-0.1,5.7,1.5,5.9,3.6C6.1,5.7,4.9,7.5,3.3,7.6C1.7,7.8,.2,6.2,.0,4.1z" transform="matrix(0.999391,-0.034899,0.034899,0.999391,72.046701,89.492453)" stroke-width="0.4799999892711639" fill-rule="nonzero" stroke="#76d7d7" fill="#76d7d7" id="shape233"/><path d="M.0,3.5C-0.1,2.0,.4,.7,1.3,.0C1.3,.0,4.9,6.3,4.9,6.3C4.4,6.7,3.9,7.0,3.3,7.0C1.7,7.2,.2,5.6,.0,3.5z" transform="matrix(0.999391,-0.034899,0.034899,0.999391,72.030925,90.091571)" fill-rule="nonzero" fill="#ffffff" id="shape234" fill-opacity="0.29"/><path d="M.0,36.6L69.2,.0" transform="translate(88.231100,55.531600)" stroke-width="1" stroke-dasharray="11,5,2.5,5,2.5,5" stroke="#000000" fill="none" id="shape235"/><path d="M.0,36.6L69.2,.0" transform="translate(88.231100,59.423200)" stroke-width="1" stroke-dasharray="11,5,2.5,5,2.5,5" stroke="#000000" fill="none" id="shape236"/><g transform="translate(9.026500,50.424700)" id="group237"><path d="M.0,.0L20.3,10.7L20.3,21.8L.0,10.7L.0,.0z" stroke-width="1" fill-rule="nonzero" stroke="#ffffff" fill="#ffffff" id="shape238"/><path d="M.0,.0L18.4,9.8L18.4,18.3L.0,8.3L.0,.0z" transform="translate(0.845880,1.739420)" stroke-width="1" fill-rule="nonzero" stroke="#5fb7f1" fill="#5fb7f1" id="shape239"/><path d="M.0,.0L17.6,9.2L17.6,16.9L.0,7.5L.0,.0z" transform="translate(1.273400,2.436220)" fill-rule="nonzero" fill="#ffffff" id="shape240" fill-opacity="0.29"/></g><g transform="translate(39.339700,67.473700)" id="group241"><path d="M.0,.0L20.3,10.7L20.3,21.8L.0,10.7L.0,.0z" stroke-width="1" fill-rule="nonzero" stroke="#ffffff" fill="#ffffff" id="shape242"/><path d="M.0,.0L18.4,9.8L18.4,18.3L.0,8.3L.0,.0z" transform="translate(0.845880,1.739420)" stroke-width="1" fill-rule="nonzero" stroke="#5fb7f1" fill="#5fb7f1" id="shape243"/><path d="M.0,.0L17.6,9.2L17.6,16.9L.0,7.5L.0,.0z" transform="translate(1.273400,2.436220)" fill-rule="nonzero" fill="#ffffff" id="shape244" fill-opacity="0.29"/></g></g><g id="group245"><path d="M.0,.0L83.7,44.8L83.7,66.4L.0,21.6L.0,.0z" transform="translate(0.000000,41.030800)" stroke-width="0.5" fill-rule="nonzero" stroke="#d6d8df" fill="#d6d8df" id="shape246"/><path d="M.0,.0L77.8,41.1L77.8,62.8L.0,21.6L.0,.0z" transform="matrix(-1.000000,0.000000,0.000000,1.000000,161.500300,44.670600)" stroke-width="0.5" fill-rule="nonzero" stroke="#caccd3" fill="#caccd3" id="shape247"/><path d="M83.7,85.8L.0,41.0L77.8,.0L161.5,44.7L83.7,85.8z" stroke-width="0.5" fill-rule="nonzero" stroke="#e2e4e9" fill="#e2e4e9" id="shape248"/><path d="M.0,5.1C-0.2,2.5,1.3,.2,3.3,.0C5.3,-0.2,7.2,1.8,7.4,4.5C7.6,7.1,6.2,9.4,4.1,9.6C2.1,9.7,.3,7.7,.0,5.1z" transform="matrix(0.999391,-0.034899,0.034899,0.999391,71.260402,88.550650)" stroke-width="0.25" fill-rule="nonzero" stroke="#01acac" fill="#01acac" id="shape249"/><path d="M.0,4.1C-0.2,2.0,1.0,.1,2.6,.0C4.3,-0.1,5.7,1.5,5.9,3.6C6.1,5.7,4.9,7.5,3.3,7.6C1.7,7.8,.2,6.2,.0,4.1z" transform="matrix(0.999391,-0.034899,0.034899,0.999391,72.046701,89.492453)" stroke-width="0.4799999892711639" fill-rule="nonzero" stroke="#76d7d7" fill="#76d7d7" id="shape250"/><path d="M.0,3.5C-0.1,2.0,.4,.7,1.3,.0C1.3,.0,4.9,6.3,4.9,6.3C4.4,6.7,3.9,7.0,3.3,7.0C1.7,7.2,.2,5.6,.0,3.5z" transform="matrix(0.999391,-0.034899,0.034899,0.999391,72.030925,90.091571)" fill-rule="nonzero" fill="#ffffff" id="shape251" fill-opacity="0.29"/><path d="M.0,36.6L69.2,.0" transform="translate(88.231100,55.531600)" stroke-width="1" stroke-dasharray="11,5,2.5,5,2.5,5" stroke="#000000" fill="none" id="shape252"/><path d="M.0,36.6L69.2,.0" transform="translate(88.231100,59.423200)" stroke-width="1" stroke-dasharray="11,5,2.5,5,2.5,5" stroke="#000000" fill="none" id="shape253"/><g transform="translate(9.026500,50.424700)" id="group254"><path d="M.0,.0L20.3,10.7L20.3,21.8L.0,10.7L.0,.0z" stroke-width="1" fill-rule="nonzero" stroke="#ffffff" fill="#ffffff" id="shape255"/><path d="M.0,.0L18.4,9.8L18.4,18.3L.0,8.3L.0,.0z" transform="translate(0.845880,1.739420)" stroke-width="1" fill-rule="nonzero" stroke="#5fb7f1" fill="#5fb7f1" id="shape256"/><path d="M.0,.0L17.6,9.2L17.6,16.9L.0,7.5L.0,.0z" transform="translate(1.273400,2.436220)" fill-rule="nonzero" fill="#ffffff" id="shape257" fill-opacity="0.29"/></g><g transform="translate(39.339700,67.473700)" id="group258"><path d="M.0,.0L20.3,10.7L20.3,21.8L.0,10.7L.0,.0z" stroke-width="1" fill-rule="nonzero" stroke="#ffffff" fill="#ffffff" id="shape259"/><path d="M.0,.0L18.4,9.8L18.4,18.3L.0,8.3L.0,.0z" transform="translate(0.845880,1.739420)" stroke-width="1" fill-rule="nonzero" stroke="#5fb7f1" fill="#5fb7f1" id="shape260"/><path d="M.0,.0L17.6,9.2L17.6,16.9L.0,7.5L.0,.0z" transform="translate(1.273400,2.436220)" fill-rule="nonzero" fill="#ffffff" id="shape261" fill-opacity="0.29"/></g></g></g><g transform="translate(1368.757000,180.000000)" id="shape262"><text xml:space="preserve" style="fill:#5769bc;font-family:微软雅黑;font-size:20.00pt"><tspan y="44.5" x="26.7">Relay Sever 2</tspan></text></g><path d="M909.2,6.0L909.2,.0L.0,.0L.0,6.0L909.2,6.0z" transform="matrix(0.866025,-0.500000,0.500000,0.866025,642.999655,589.796924)" stroke-width="2" stroke-dasharray="11,5,2.5,5" fill-rule="nonzero" stroke="#379e90" fill="#8ce0d2" id="shape263"/><g transform="translate(810.447000,586.000000)" id="shape264"><path d="M.0,.0L-348.3,-377.4" stroke-width="4" stroke="#e16e6a" fill="none"/><path d="M-352.7,-373.4L-356.4,-386.3L-343.9,-381.5L-352.7,-373.4" stroke-linecap="round" stroke-width="1" stroke="#e16e6a" fill="#e16e6a"/></g><g transform="translate(534.750000,158.597000)" id="shape265"><path d="M.0,.0L533.1,310.3" stroke-width="4" stroke="#e16e6a" fill="none"/><path d="M536.1,305.1L543.5,316.4L530.1,315.5L536.1,305.1" stroke-linecap="round" stroke-width="1" stroke="#e16e6a" fill="#e16e6a"/></g><g transform="translate(1536.950000,586.000000)" id="shape266"><path d="M.0,.0L-21.4,-184.1" stroke-width="4" stroke="#accfff" fill="none"/><path d="M-27.3,-183.4L-22.7,-196.0L-15.4,-184.8L-27.3,-183.4" stroke-linecap="round" stroke-width="1" stroke="#accfff" fill="#accfff"/></g><g transform="translate(1415.240000,361.472000)" id="shape267"><path d="M.0,.0L-165.5,106.8" stroke-width="4" stroke="#accfff" fill="none"/><path d="M-162.2,111.9L-175.5,113.3L-168.7,101.8L-162.2,111.9" stroke-linecap="round" stroke-width="1" stroke="#accfff" fill="#accfff"/></g><g transform="translate(586.000000,75.745000)" id="shape268"><text xml:space="preserve" style="fill:#379e90;font-family:微软雅黑;font-size:18.00pt;font-weight:bold"><tspan y="48.5" x="31.8">Beijing</tspan></text></g><g transform="translate(1153.000000,328.000000)" id="shape269"><text xml:space="preserve" style="fill:#379e90;font-family:微软雅黑;font-size:18.00pt;font-weight:bold"><tspan y="48.5" x="11.5">Shanghai</tspan></text></g><g transform="translate(750.759000,451.095000)" id="shape270"><text xml:space="preserve" style="fill:#e16e6a;font-family:微软雅黑;font-size:11.00pt;font-weight:bold"><tspan y="20.0" x="20.0">500ms</tspan></text></g><g transform="translate(938.499000,430.150000)" id="shape271"><text xml:space="preserve" style="fill:#e16e6a;font-family:微软雅黑;font-size:11.00pt;font-weight:bold"><tspan y="20.0" x="20.0">500ms</tspan></text></g><g transform="translate(1323.000000,416.745000)" id="shape272"><text xml:space="preserve" style="fill:#6a7fe1;font-family:微软雅黑;font-size:11.00pt;font-weight:bold"><tspan y="20.0" x="24.5">20ms</tspan></text></g><g transform="translate(1436.450000,483.745000)" id="shape273"><text xml:space="preserve" style="fill:#6a7fe1;font-family:微软雅黑;font-size:11.00pt;font-weight:bold"><tspan y="20.0" x="24.5">20ms</tspan></text></g></g></svg>