<svg height="804" xmlns:ev="http://www.w3.org/2001/xml-events" width="1132" xmlns="http://www.w3.org/2000/svg" xmlns:xlink="http://www.w3.org/1999/xlink" viewBox="0 0 1132 804"><defs/><g transform="translate(5.5,5.5)" id="page1"><rect y="0" height="794" width="1123" fill="#ffffff" x="0"/><path d="M386.2,544.1L386.2,11.0C386.2,4.9,381.3,.0,375.2,.0L11.0,.0C4.9,.0,.0,4.9,.0,11.0L.0,544.1C.0,550.2,4.9,555.1,11.0,555.1L375.2,555.1C381.3,555.1,386.2,550.2,386.2,544.1z" transform="translate(637.880000,143.850000)" stroke-width="2.666670083999634" fill-rule="nonzero" stroke="#8ce0d2" fill="#e9f8f5" id="shape1"/><g transform="translate(216.010000,143.850000)" id="group2"><g transform="translate(0.000000,62.560200)" id="group3"><path d="M.0,.0L83.7,44.8L83.7,66.4L.0,21.6L.0,.0z" transform="translate(0.000000,41.030800)" stroke-width="0.5" fill-rule="nonzero" stroke="#d6d8df" fill="#d6d8df" id="shape4"/><path d="M.0,.0L77.8,41.1L77.8,62.8L.0,21.6L.0,.0z" transform="matrix(-1.000000,0.000000,0.000000,1.000000,161.500300,44.670600)" stroke-width="0.5" fill-rule="nonzero" stroke="#caccd3" fill="#caccd3" id="shape5"/><path d="M83.7,85.8L.0,41.0L77.8,.0L161.5,44.7L83.7,85.8z" stroke-width="0.5" fill-rule="nonzero" stroke="#e2e4e9" fill="#e2e4e9" id="shape6"/><path d="M.0,5.1C-0.2,2.5,1.3,.2,3.3,.0C5.3,-0.2,7.2,1.8,7.4,4.5C7.6,7.1,6.2,9.4,4.1,9.6C2.1,9.7,.3,7.7,.0,5.1z" transform="matrix(0.999391,-0.034899,0.034899,0.999391,71.260402,88.550650)" stroke-width="0.25" fill-rule="nonzero" stroke="#01acac" fill="#01acac" id="shape7"/><path d="M.0,4.1C-0.2,2.0,1.0,.1,2.6,.0C4.3,-0.1,5.7,1.5,5.9,3.6C6.1,5.7,4.9,7.5,3.3,7.6C1.7,7.8,.2,6.2,.0,4.1z" transform="matrix(0.999391,-0.034899,0.034899,0.999391,72.046701,89.492453)" stroke-width="0.4799999892711639" fill-rule="nonzero" stroke="#76d7d7" fill="#76d7d7" id="shape8"/><path d="M.0,3.5C-0.1,2.0,.4,.7,1.3,.0C1.3,.0,4.9,6.3,4.9,6.3C4.4,6.7,3.9,7.0,3.3,7.0C1.7,7.2,.2,5.6,.0,3.5z" transform="matrix(0.999391,-0.034899,0.034899,0.999391,72.030925,90.091571)" fill-rule="nonzero" fill="#ffffff" id="shape9" fill-opacity="0.29"/><path d="M.0,36.6L69.2,.0" transform="translate(88.231100,55.531600)" stroke-width="1" stroke-dasharray="11,5,2.5,5,2.5,5" stroke="#000000" fill="none" id="shape10"/><path d="M.0,36.6L69.2,.0" transform="translate(88.231100,59.423200)" stroke-width="1" stroke-dasharray="11,5,2.5,5,2.5,5" stroke="#000000" fill="none" id="shape11"/><g transform="translate(9.026500,50.424700)" id="group12"><path d="M.0,.0L20.3,10.7L20.3,21.8L.0,10.7L.0,.0z" stroke-width="1" fill-rule="nonzero" stroke="#ffffff" fill="#ffffff" id="shape13"/><path d="M.0,.0L18.4,9.8L18.4,18.3L.0,8.3L.0,.0z" transform="translate(0.845880,1.739420)" stroke-width="1" fill-rule="nonzero" stroke="#5fb7f1" fill="#5fb7f1" id="shape14"/><path d="M.0,.0L17.6,9.2L17.6,16.9L.0,7.5L.0,.0z" transform="translate(1.273400,2.436220)" fill-rule="nonzero" fill="#ffffff" id="shape15" fill-opacity="0.29"/></g><g transform="translate(39.339700,67.473700)" id="group16"><path d="M.0,.0L20.3,10.7L20.3,21.8L.0,10.7L.0,.0z" stroke-width="1" fill-rule="nonzero" stroke="#ffffff" fill="#ffffff" id="shape17"/><path d="M.0,.0L18.4,9.8L18.4,18.3L.0,8.3L.0,.0z" transform="translate(0.845880,1.739420)" stroke-width="1" fill-rule="nonzero" stroke="#5fb7f1" fill="#5fb7f1" id="shape18"/><path d="M.0,.0L17.6,9.2L17.6,16.9L.0,7.5L.0,.0z" transform="translate(1.273400,2.436220)" fill-rule="nonzero" fill="#ffffff" id="shape19" fill-opacity="0.29"/></g></g><g transform="translate(0.000000,31.280200)" id="group20"><path d="M.0,.0L83.7,44.8L83.7,66.4L.0,21.6L.0,.0z" transform="translate(0.000000,41.030800)" stroke-width="0.5" fill-rule="nonzero" stroke="#d6d8df" fill="#d6d8df" id="shape21"/><path d="M.0,.0L77.8,41.1L77.8,62.8L.0,21.6L.0,.0z" transform="matrix(-1.000000,0.000000,0.000000,1.000000,161.500300,44.670600)" stroke-width="0.5" fill-rule="nonzero" stroke="#caccd3" fill="#caccd3" id="shape22"/><path d="M83.7,85.8L.0,41.0L77.8,.0L161.5,44.7L83.7,85.8z" stroke-width="0.5" fill-rule="nonzero" stroke="#e2e4e9" fill="#e2e4e9" id="shape23"/><path d="M.0,5.1C-0.2,2.5,1.3,.2,3.3,.0C5.3,-0.2,7.2,1.8,7.4,4.5C7.6,7.1,6.2,9.4,4.1,9.6C2.1,9.7,.3,7.7,.0,5.1z" transform="matrix(0.999391,-0.034899,0.034899,0.999391,71.260402,88.550650)" stroke-width="0.25" fill-rule="nonzero" stroke="#01acac" fill="#01acac" id="shape24"/><path d="M.0,4.1C-0.2,2.0,1.0,.1,2.6,.0C4.3,-0.1,5.7,1.5,5.9,3.6C6.1,5.7,4.9,7.5,3.3,7.6C1.7,7.8,.2,6.2,.0,4.1z" transform="matrix(0.999391,-0.034899,0.034899,0.999391,72.046701,89.492453)" stroke-width="0.4799999892711639" fill-rule="nonzero" stroke="#76d7d7" fill="#76d7d7" id="shape25"/><path d="M.0,3.5C-0.1,2.0,.4,.7,1.3,.0C1.3,.0,4.9,6.3,4.9,6.3C4.4,6.7,3.9,7.0,3.3,7.0C1.7,7.2,.2,5.6,.0,3.5z" transform="matrix(0.999391,-0.034899,0.034899,0.999391,72.030925,90.091571)" fill-rule="nonzero" fill="#ffffff" id="shape26" fill-opacity="0.29"/><path d="M.0,36.6L69.2,.0" transform="translate(88.231100,55.531600)" stroke-width="1" stroke-dasharray="11,5,2.5,5,2.5,5" stroke="#000000" fill="none" id="shape27"/><path d="M.0,36.6L69.2,.0" transform="translate(88.231100,59.423200)" stroke-width="1" stroke-dasharray="11,5,2.5,5,2.5,5" stroke="#000000" fill="none" id="shape28"/><g transform="translate(9.026500,50.424700)" id="group29"><path d="M.0,.0L20.3,10.7L20.3,21.8L.0,10.7L.0,.0z" stroke-width="1" fill-rule="nonzero" stroke="#ffffff" fill="#ffffff" id="shape30"/><path d="M.0,.0L18.4,9.8L18.4,18.3L.0,8.3L.0,.0z" transform="translate(0.845880,1.739420)" stroke-width="1" fill-rule="nonzero" stroke="#5fb7f1" fill="#5fb7f1" id="shape31"/><path d="M.0,.0L17.6,9.2L17.6,16.9L.0,7.5L.0,.0z" transform="translate(1.273400,2.436220)" fill-rule="nonzero" fill="#ffffff" id="shape32" fill-opacity="0.29"/></g><g transform="translate(39.339700,67.473700)" id="group33"><path d="M.0,.0L20.3,10.7L20.3,21.8L.0,10.7L.0,.0z" stroke-width="1" fill-rule="nonzero" stroke="#ffffff" fill="#ffffff" id="shape34"/><path d="M.0,.0L18.4,9.8L18.4,18.3L.0,8.3L.0,.0z" transform="translate(0.845880,1.739420)" stroke-width="1" fill-rule="nonzero" stroke="#5fb7f1" fill="#5fb7f1" id="shape35"/><path d="M.0,.0L17.6,9.2L17.6,16.9L.0,7.5L.0,.0z" transform="translate(1.273400,2.436220)" fill-rule="nonzero" fill="#ffffff" id="shape36" fill-opacity="0.29"/></g></g><g id="group37"><path d="M.0,.0L83.7,44.8L83.7,66.4L.0,21.6L.0,.0z" transform="translate(0.000000,41.030800)" stroke-width="0.5" fill-rule="nonzero" stroke="#d6d8df" fill="#d6d8df" id="shape38"/><path d="M.0,.0L77.8,41.1L77.8,62.8L.0,21.6L.0,.0z" transform="matrix(-1.000000,0.000000,0.000000,1.000000,161.500300,44.670600)" stroke-width="0.5" fill-rule="nonzero" stroke="#caccd3" fill="#caccd3" id="shape39"/><path d="M83.7,85.8L.0,41.0L77.8,.0L161.5,44.7L83.7,85.8z" stroke-width="0.5" fill-rule="nonzero" stroke="#e2e4e9" fill="#e2e4e9" id="shape40"/><path d="M.0,5.1C-0.2,2.5,1.3,.2,3.3,.0C5.3,-0.2,7.2,1.8,7.4,4.5C7.6,7.1,6.2,9.4,4.1,9.6C2.1,9.7,.3,7.7,.0,5.1z" transform="matrix(0.999391,-0.034899,0.034899,0.999391,71.260402,88.550650)" stroke-width="0.25" fill-rule="nonzero" stroke="#01acac" fill="#01acac" id="shape41"/><path d="M.0,4.1C-0.2,2.0,1.0,.1,2.6,.0C4.3,-0.1,5.7,1.5,5.9,3.6C6.1,5.7,4.9,7.5,3.3,7.6C1.7,7.8,.2,6.2,.0,4.1z" transform="matrix(0.999391,-0.034899,0.034899,0.999391,72.046701,89.492453)" stroke-width="0.4799999892711639" fill-rule="nonzero" stroke="#76d7d7" fill="#76d7d7" id="shape42"/><path d="M.0,3.5C-0.1,2.0,.4,.7,1.3,.0C1.3,.0,4.9,6.3,4.9,6.3C4.4,6.7,3.9,7.0,3.3,7.0C1.7,7.2,.2,5.6,.0,3.5z" transform="matrix(0.999391,-0.034899,0.034899,0.999391,72.030925,90.091571)" fill-rule="nonzero" fill="#ffffff" id="shape43" fill-opacity="0.29"/><path d="M.0,36.6L69.2,.0" transform="translate(88.231100,55.531600)" stroke-width="1" stroke-dasharray="11,5,2.5,5,2.5,5" stroke="#000000" fill="none" id="shape44"/><path d="M.0,36.6L69.2,.0" transform="translate(88.231100,59.423200)" stroke-width="1" stroke-dasharray="11,5,2.5,5,2.5,5" stroke="#000000" fill="none" id="shape45"/><g transform="translate(9.026500,50.424700)" id="group46"><path d="M.0,.0L20.3,10.7L20.3,21.8L.0,10.7L.0,.0z" stroke-width="1" fill-rule="nonzero" stroke="#ffffff" fill="#ffffff" id="shape47"/><path d="M.0,.0L18.4,9.8L18.4,18.3L.0,8.3L.0,.0z" transform="translate(0.845880,1.739420)" stroke-width="1" fill-rule="nonzero" stroke="#5fb7f1" fill="#5fb7f1" id="shape48"/><path d="M.0,.0L17.6,9.2L17.6,16.9L.0,7.5L.0,.0z" transform="translate(1.273400,2.436220)" fill-rule="nonzero" fill="#ffffff" id="shape49" fill-opacity="0.29"/></g><g transform="translate(39.339700,67.473700)" id="group50"><path d="M.0,.0L20.3,10.7L20.3,21.8L.0,10.7L.0,.0z" stroke-width="1" fill-rule="nonzero" stroke="#ffffff" fill="#ffffff" id="shape51"/><path d="M.0,.0L18.4,9.8L18.4,18.3L.0,8.3L.0,.0z" transform="translate(0.845880,1.739420)" stroke-width="1" fill-rule="nonzero" stroke="#5fb7f1" fill="#5fb7f1" id="shape52"/><path d="M.0,.0L17.6,9.2L17.6,16.9L.0,7.5L.0,.0z" transform="translate(1.273400,2.436220)" fill-rule="nonzero" fill="#ffffff" id="shape53" fill-opacity="0.29"/></g></g></g><g transform="translate(116.760000,468.850000)" id="group54"><g id="group55"><g transform="translate(126.531300,0.000000)" id="group56"><g transform="translate(0.000000,19.239400)" id="group57"><path d="M.0,.0L52.3,28.0L52.3,40.1L.0,12.2L.0,.0z" transform="translate(0.000000,25.617700)" stroke-width="0.5" fill-rule="nonzero" stroke="#d6d8df" fill="#d6d8df" id="shape58"/><path d="M.0,.0L45.8,24.7" transform="translate(0.208400,32.314700)" stroke-width="1" stroke-dasharray="3.8,1.2" stroke="#000000" fill="none" id="shape59"/><path d="M.0,.0L10.3,5.4L10.3,11.0L.0,5.4L.0,.0z" transform="translate(20.183560,40.350210)" stroke-width="1" fill-rule="nonzero" stroke="#ffffff" fill="#ffffff" id="shape60"/><path d="M.0,.0L48.7,25.7L48.7,37.9L.0,12.2L.0,.0z" transform="matrix(-1.000000,0.000000,0.000000,1.000000,100.937500,27.890300)" stroke-width="0.5" fill-rule="nonzero" stroke="#caccd3" fill="#caccd3" id="shape61"/><path d="M52.3,53.6L.0,25.6L48.7,.0L100.9,27.9L52.3,53.6z" stroke-width="0.5" fill-rule="nonzero" stroke="#e2e4e9" fill="#e2e4e9" id="shape62"/><path d="M.0,.0L9.3,4.9L9.3,9.3L.0,4.2L.0,.0z" transform="translate(20.612040,41.230260)" stroke-width="1" fill-rule="nonzero" stroke="#62bc85" fill="#62bc85" id="shape63"/><path d="M.0,3.2C-0.1,1.5,.8,.1,2.1,.0C3.3,-0.1,4.5,1.1,4.6,2.8C4.8,4.4,3.9,5.9,2.6,6.0C1.3,6.1,.2,4.8,.0,3.2z" transform="matrix(0.999391,-0.034899,0.034899,0.999391,44.531962,53.960160)" stroke-width="0.25" fill-rule="nonzero" stroke="#e85464" fill="#e85464" id="shape64"/><path d="M.0,2.6C-0.1,1.2,.6,.1,1.6,.0C2.7,-0.1,3.6,.9,3.7,2.2C3.8,3.5,3.1,4.7,2.1,4.8C1.0,4.9,.1,3.9,.0,2.6z" transform="matrix(0.999391,-0.034899,0.034899,0.999391,45.024572,54.549558)" stroke-width="0.4799999892711639" fill-rule="nonzero" stroke="#ff7878" fill="#ff7878" id="shape65"/><path d="M.0,2.2C-0.0,1.3,.3,.5,.8,.0C.8,.0,3.1,3.9,3.1,3.9C2.8,4.2,2.5,4.4,2.1,4.4C1.1,4.5,.2,3.5,.0,2.2z" transform="matrix(0.999391,-0.034899,0.034899,0.999391,45.015480,54.923979)" fill-rule="nonzero" fill="#ffffff" id="shape66" fill-opacity="0.12"/><path d="M.0,.0L8.9,4.6L8.9,8.6L.0,3.8L.0,.0z" transform="translate(20.828540,41.582810)" fill-rule="nonzero" fill="#ffffff" id="shape67" fill-opacity="0.29"/></g><g id="group68"><path d="M.0,.0L52.3,28.0L52.3,40.1L.0,12.2L.0,.0z" transform="translate(0.000000,25.617700)" stroke-width="0.5" fill-rule="nonzero" stroke="#d6d8df" fill="#d6d8df" id="shape69"/><path d="M.0,.0L45.8,24.7" transform="translate(0.208400,32.314700)" stroke-width="1" stroke-dasharray="3.8,1.2" stroke="#000000" fill="none" id="shape70"/><path d="M.0,.0L10.3,5.4L10.3,11.0L.0,5.4L.0,.0z" transform="translate(20.183560,40.350210)" stroke-width="1" fill-rule="nonzero" stroke="#ffffff" fill="#ffffff" id="shape71"/><path d="M.0,.0L48.7,25.7L48.7,37.9L.0,12.2L.0,.0z" transform="matrix(-1.000000,0.000000,0.000000,1.000000,100.937500,27.890300)" stroke-width="0.5" fill-rule="nonzero" stroke="#caccd3" fill="#caccd3" id="shape72"/><path d="M52.3,53.6L.0,25.6L48.7,.0L100.9,27.9L52.3,53.6z" stroke-width="0.5" fill-rule="nonzero" stroke="#e2e4e9" fill="#e2e4e9" id="shape73"/><path d="M.0,.0L9.3,4.9L9.3,9.3L.0,4.2L.0,.0z" transform="translate(20.612040,41.230260)" stroke-width="1" fill-rule="nonzero" stroke="#62bc85" fill="#62bc85" id="shape74"/><path d="M.0,3.2C-0.1,1.5,.8,.1,2.1,.0C3.3,-0.1,4.5,1.1,4.6,2.8C4.8,4.4,3.9,5.9,2.6,6.0C1.3,6.1,.2,4.8,.0,3.2z" transform="matrix(0.999391,-0.034899,0.034899,0.999391,44.531962,53.960160)" stroke-width="0.25" fill-rule="nonzero" stroke="#e85464" fill="#e85464" id="shape75"/><path d="M.0,2.6C-0.1,1.2,.6,.1,1.6,.0C2.7,-0.1,3.6,.9,3.7,2.2C3.8,3.5,3.1,4.7,2.1,4.8C1.0,4.9,.1,3.9,.0,2.6z" transform="matrix(0.999391,-0.034899,0.034899,0.999391,45.024572,54.549558)" stroke-width="0.4799999892711639" fill-rule="nonzero" stroke="#ff7878" fill="#ff7878" id="shape76"/><path d="M.0,2.2C-0.0,1.3,.3,.5,.8,.0C.8,.0,3.1,3.9,3.1,3.9C2.8,4.2,2.5,4.4,2.1,4.4C1.1,4.5,.2,3.5,.0,2.2z" transform="matrix(0.999391,-0.034899,0.034899,0.999391,45.015480,54.923979)" fill-rule="nonzero" fill="#ffffff" id="shape77" fill-opacity="0.12"/><path d="M.0,.0L8.9,4.6L8.9,8.6L.0,3.8L.0,.0z" transform="translate(20.828540,41.582810)" fill-rule="nonzero" fill="#ffffff" id="shape78" fill-opacity="0.29"/></g></g><g transform="translate(120.000000,142.000000)" id="group79"><path d="M.0,.0L59.1,31.5L59.1,45.2L.0,13.7L.0,.0z" transform="translate(0.000000,28.827600)" stroke-width="0.5" fill-rule="nonzero" stroke="#d6d8df" fill="#d6d8df" id="shape80"/><path d="M.0,.0L51.7,27.8" transform="translate(0.235300,36.363600)" stroke-width="1" stroke-dasharray="3.8,1.2" stroke="#000000" fill="none" id="shape81"/><path d="M.0,.0L11.6,6.1L11.6,12.4L.0,6.1L.0,.0z" transform="translate(22.795630,45.405940)" stroke-width="1" fill-rule="nonzero" stroke="#ffffff" fill="#ffffff" id="shape82"/><path d="M.0,.0L54.9,28.9L54.9,42.6L.0,13.7L.0,.0z" transform="matrix(-1.000000,0.000000,0.000000,1.000000,114.000000,31.384800)" stroke-width="0.5" fill-rule="nonzero" stroke="#caccd3" fill="#caccd3" id="shape83"/><path d="M59.1,60.3L.0,28.8L54.9,.0L114.0,31.4L59.1,60.3z" stroke-width="0.5" fill-rule="nonzero" stroke="#e2e4e9" fill="#e2e4e9" id="shape84"/><path d="M.0,.0L10.5,5.6L10.5,10.4L.0,4.7L.0,.0z" transform="translate(23.279500,46.396250)" stroke-width="1" fill-rule="nonzero" stroke="#62bc85" fill="#62bc85" id="shape85"/><path d="M.0,3.6C-0.1,1.7,.9,.1,2.3,.0C3.8,-0.1,5.1,1.3,5.2,3.1C5.4,5.0,4.4,6.6,2.9,6.7C1.5,6.9,.2,5.5,.0,3.6z" transform="matrix(0.999391,-0.034899,0.034899,0.999391,50.295377,60.721413)" stroke-width="0.25" fill-rule="nonzero" stroke="#e85464" fill="#e85464" id="shape86"/><path d="M.0,2.9C-0.1,1.4,.7,.1,1.9,.0C3.0,-0.1,4.1,1.0,4.2,2.5C4.3,4.0,3.5,5.3,2.3,5.4C1.2,5.5,.1,4.4,.0,2.9z" transform="matrix(0.999391,-0.034899,0.034899,0.999391,50.851654,61.384574)" stroke-width="0.4799999892711639" fill-rule="nonzero" stroke="#ff7878" fill="#ff7878" id="shape87"/><path d="M.0,2.4C-0.1,1.4,.3,.5,.9,.0C.9,.0,3.4,4.4,3.4,4.4C3.1,4.7,2.8,4.9,2.4,5.0C1.2,5.1,.2,3.9,.0,2.4z" transform="matrix(0.999391,-0.034899,0.034899,0.999391,50.841332,61.805884)" fill-rule="nonzero" fill="#ffffff" id="shape88" fill-opacity="0.12"/><path d="M.0,.0L10.1,5.2L10.1,9.6L.0,4.3L.0,.0z" transform="translate(23.524040,46.792930)" fill-rule="nonzero" fill="#ffffff" id="shape89" fill-opacity="0.29"/></g><g transform="translate(0.000000,79.000000)" id="group90"><path d="M.0,.0L59.1,31.5L59.1,45.2L.0,13.7L.0,.0z" transform="translate(0.000000,28.827600)" stroke-width="0.5" fill-rule="nonzero" stroke="#d6d8df" fill="#d6d8df" id="shape91"/><path d="M.0,.0L51.7,27.8" transform="translate(0.235300,36.363600)" stroke-width="1" stroke-dasharray="3.8,1.2" stroke="#000000" fill="none" id="shape92"/><path d="M.0,.0L11.6,6.1L11.6,12.4L.0,6.1L.0,.0z" transform="translate(22.795630,45.405940)" stroke-width="1" fill-rule="nonzero" stroke="#ffffff" fill="#ffffff" id="shape93"/><path d="M.0,.0L54.9,28.9L54.9,42.6L.0,13.7L.0,.0z" transform="matrix(-1.000000,0.000000,0.000000,1.000000,114.000000,31.384800)" stroke-width="0.5" fill-rule="nonzero" stroke="#caccd3" fill="#caccd3" id="shape94"/><path d="M59.1,60.3L.0,28.8L54.9,.0L114.0,31.4L59.1,60.3z" stroke-width="0.5" fill-rule="nonzero" stroke="#e2e4e9" fill="#e2e4e9" id="shape95"/><path d="M.0,.0L10.5,5.6L10.5,10.4L.0,4.7L.0,.0z" transform="translate(23.279500,46.396250)" stroke-width="1" fill-rule="nonzero" stroke="#62bc85" fill="#62bc85" id="shape96"/><path d="M.0,3.6C-0.1,1.7,.9,.1,2.3,.0C3.8,-0.1,5.1,1.3,5.2,3.1C5.4,5.0,4.4,6.6,2.9,6.7C1.5,6.9,.2,5.5,.0,3.6z" transform="matrix(0.999391,-0.034899,0.034899,0.999391,50.295377,60.721413)" stroke-width="0.25" fill-rule="nonzero" stroke="#e85464" fill="#e85464" id="shape97"/><path d="M.0,2.9C-0.1,1.4,.7,.1,1.9,.0C3.0,-0.1,4.1,1.0,4.2,2.5C4.3,4.0,3.5,5.3,2.3,5.4C1.2,5.5,.1,4.4,.0,2.9z" transform="matrix(0.999391,-0.034899,0.034899,0.999391,50.851654,61.384574)" stroke-width="0.4799999892711639" fill-rule="nonzero" stroke="#ff7878" fill="#ff7878" id="shape98"/><path d="M.0,2.4C-0.1,1.4,.3,.5,.9,.0C.9,.0,3.4,4.4,3.4,4.4C3.1,4.7,2.8,4.9,2.4,5.0C1.2,5.1,.2,3.9,.0,2.4z" transform="matrix(0.999391,-0.034899,0.034899,0.999391,50.841332,61.805884)" fill-rule="nonzero" fill="#ffffff" id="shape99" fill-opacity="0.12"/><path d="M.0,.0L10.1,5.2L10.1,9.6L.0,4.3L.0,.0z" transform="translate(23.524040,46.792930)" fill-rule="nonzero" fill="#ffffff" id="shape100" fill-opacity="0.29"/></g><g transform="translate(250.000000,79.000000)" id="group101"><path d="M.0,.0L59.1,31.5L59.1,45.2L.0,13.7L.0,.0z" transform="translate(0.000000,28.827600)" stroke-width="0.5" fill-rule="nonzero" stroke="#d6d8df" fill="#d6d8df" id="shape102"/><path d="M.0,.0L51.7,27.8" transform="translate(0.235300,36.363600)" stroke-width="1" stroke-dasharray="3.8,1.2" stroke="#000000" fill="none" id="shape103"/><path d="M.0,.0L11.6,6.1L11.6,12.4L.0,6.1L.0,.0z" transform="translate(22.795630,45.405940)" stroke-width="1" fill-rule="nonzero" stroke="#ffffff" fill="#ffffff" id="shape104"/><path d="M.0,.0L54.9,28.9L54.9,42.6L.0,13.7L.0,.0z" transform="matrix(-1.000000,0.000000,0.000000,1.000000,114.000000,31.384800)" stroke-width="0.5" fill-rule="nonzero" stroke="#caccd3" fill="#caccd3" id="shape105"/><path d="M59.1,60.3L.0,28.8L54.9,.0L114.0,31.4L59.1,60.3z" stroke-width="0.5" fill-rule="nonzero" stroke="#e2e4e9" fill="#e2e4e9" id="shape106"/><path d="M.0,.0L10.5,5.6L10.5,10.4L.0,4.7L.0,.0z" transform="translate(23.279500,46.396250)" stroke-width="1" fill-rule="nonzero" stroke="#62bc85" fill="#62bc85" id="shape107"/><path d="M.0,3.6C-0.1,1.7,.9,.1,2.3,.0C3.8,-0.1,5.1,1.3,5.2,3.1C5.4,5.0,4.4,6.6,2.9,6.7C1.5,6.9,.2,5.5,.0,3.6z" transform="matrix(0.999391,-0.034899,0.034899,0.999391,50.295377,60.721413)" stroke-width="0.25" fill-rule="nonzero" stroke="#e85464" fill="#e85464" id="shape108"/><path d="M.0,2.9C-0.1,1.4,.7,.1,1.9,.0C3.0,-0.1,4.1,1.0,4.2,2.5C4.3,4.0,3.5,5.3,2.3,5.4C1.2,5.5,.1,4.4,.0,2.9z" transform="matrix(0.999391,-0.034899,0.034899,0.999391,50.851654,61.384574)" stroke-width="0.4799999892711639" fill-rule="nonzero" stroke="#ff7878" fill="#ff7878" id="shape109"/><path d="M.0,2.4C-0.1,1.4,.3,.5,.9,.0C.9,.0,3.4,4.4,3.4,4.4C3.1,4.7,2.8,4.9,2.4,5.0C1.2,5.1,.2,3.9,.0,2.4z" transform="matrix(0.999391,-0.034899,0.034899,0.999391,50.841332,61.805884)" fill-rule="nonzero" fill="#ffffff" id="shape110" fill-opacity="0.12"/><path d="M.0,.0L10.1,5.2L10.1,9.6L.0,4.3L.0,.0z" transform="translate(23.524040,46.792930)" fill-rule="nonzero" fill="#ffffff" id="shape111" fill-opacity="0.29"/></g></g><path d="M.0,-0.0L65.7,-0.0" transform="matrix(-0.897451,0.441114,-0.441114,-0.897451,146.000109,68.000132)" stroke-width="2" stroke="#4bacc6" fill="none" id="shape112"/><path d="M.0,-0.0L65.7,-0.0" transform="matrix(-0.897451,0.441114,-0.441114,-0.897451,267.000109,131.000132)" stroke-width="2" stroke="#4bacc6" fill="none" id="shape113"/><path d="M.0,-0.0L51.4,-0.0" transform="matrix(-0.855011,-0.518609,0.518609,-0.855011,133.999646,164.999705)" stroke-width="2" stroke="#4bacc6" fill="none" id="shape114"/><path d="M.0,-0.0L68.5,-0.0" transform="matrix(-0.918984,-0.394295,0.394295,-0.918984,272.000542,97.000023)" stroke-width="2" stroke="#4bacc6" fill="none" id="shape115"/></g><g transform="translate(649.000000,468.850000)" id="group116"><g id="group117"><g transform="translate(126.531300,0.000000)" id="group118"><g transform="translate(0.000000,19.239400)" id="group119"><path d="M.0,.0L52.3,28.0L52.3,40.1L.0,12.2L.0,.0z" transform="translate(0.000000,25.617700)" stroke-width="0.5" fill-rule="nonzero" stroke="#d6d8df" fill="#d6d8df" id="shape120"/><path d="M.0,.0L45.8,24.7" transform="translate(0.208400,32.314700)" stroke-width="1" stroke-dasharray="3.8,1.2" stroke="#000000" fill="none" id="shape121"/><path d="M.0,.0L10.3,5.4L10.3,11.0L.0,5.4L.0,.0z" transform="translate(20.183560,40.350210)" stroke-width="1" fill-rule="nonzero" stroke="#ffffff" fill="#ffffff" id="shape122"/><path d="M.0,.0L48.7,25.7L48.7,37.9L.0,12.2L.0,.0z" transform="matrix(-1.000000,0.000000,0.000000,1.000000,100.937500,27.890300)" stroke-width="0.5" fill-rule="nonzero" stroke="#caccd3" fill="#caccd3" id="shape123"/><path d="M52.3,53.6L.0,25.6L48.7,.0L100.9,27.9L52.3,53.6z" stroke-width="0.5" fill-rule="nonzero" stroke="#e2e4e9" fill="#e2e4e9" id="shape124"/><path d="M.0,.0L9.3,4.9L9.3,9.3L.0,4.2L.0,.0z" transform="translate(20.612040,41.230260)" stroke-width="1" fill-rule="nonzero" stroke="#62bc85" fill="#62bc85" id="shape125"/><path d="M.0,3.2C-0.1,1.5,.8,.1,2.1,.0C3.3,-0.1,4.5,1.1,4.6,2.8C4.8,4.4,3.9,5.9,2.6,6.0C1.3,6.1,.2,4.8,.0,3.2z" transform="matrix(0.999391,-0.034899,0.034899,0.999391,44.531962,53.960160)" stroke-width="0.25" fill-rule="nonzero" stroke="#e85464" fill="#e85464" id="shape126"/><path d="M.0,2.6C-0.1,1.2,.6,.1,1.6,.0C2.7,-0.1,3.6,.9,3.7,2.2C3.8,3.5,3.1,4.7,2.1,4.8C1.0,4.9,.1,3.9,.0,2.6z" transform="matrix(0.999391,-0.034899,0.034899,0.999391,45.024572,54.549558)" stroke-width="0.4799999892711639" fill-rule="nonzero" stroke="#ff7878" fill="#ff7878" id="shape127"/><path d="M.0,2.2C-0.0,1.3,.3,.5,.8,.0C.8,.0,3.1,3.9,3.1,3.9C2.8,4.2,2.5,4.4,2.1,4.4C1.1,4.5,.2,3.5,.0,2.2z" transform="matrix(0.999391,-0.034899,0.034899,0.999391,45.015480,54.923979)" fill-rule="nonzero" fill="#ffffff" id="shape128" fill-opacity="0.12"/><path d="M.0,.0L8.9,4.6L8.9,8.6L.0,3.8L.0,.0z" transform="translate(20.828540,41.582810)" fill-rule="nonzero" fill="#ffffff" id="shape129" fill-opacity="0.29"/></g><g id="group130"><path d="M.0,.0L52.3,28.0L52.3,40.1L.0,12.2L.0,.0z" transform="translate(0.000000,25.617700)" stroke-width="0.5" fill-rule="nonzero" stroke="#d6d8df" fill="#d6d8df" id="shape131"/><path d="M.0,.0L45.8,24.7" transform="translate(0.208400,32.314700)" stroke-width="1" stroke-dasharray="3.8,1.2" stroke="#000000" fill="none" id="shape132"/><path d="M.0,.0L10.3,5.4L10.3,11.0L.0,5.4L.0,.0z" transform="translate(20.183560,40.350210)" stroke-width="1" fill-rule="nonzero" stroke="#ffffff" fill="#ffffff" id="shape133"/><path d="M.0,.0L48.7,25.7L48.7,37.9L.0,12.2L.0,.0z" transform="matrix(-1.000000,0.000000,0.000000,1.000000,100.937500,27.890300)" stroke-width="0.5" fill-rule="nonzero" stroke="#caccd3" fill="#caccd3" id="shape134"/><path d="M52.3,53.6L.0,25.6L48.7,.0L100.9,27.9L52.3,53.6z" stroke-width="0.5" fill-rule="nonzero" stroke="#e2e4e9" fill="#e2e4e9" id="shape135"/><path d="M.0,.0L9.3,4.9L9.3,9.3L.0,4.2L.0,.0z" transform="translate(20.612040,41.230260)" stroke-width="1" fill-rule="nonzero" stroke="#62bc85" fill="#62bc85" id="shape136"/><path d="M.0,3.2C-0.1,1.5,.8,.1,2.1,.0C3.3,-0.1,4.5,1.1,4.6,2.8C4.8,4.4,3.9,5.9,2.6,6.0C1.3,6.1,.2,4.8,.0,3.2z" transform="matrix(0.999391,-0.034899,0.034899,0.999391,44.531962,53.960160)" stroke-width="0.25" fill-rule="nonzero" stroke="#e85464" fill="#e85464" id="shape137"/><path d="M.0,2.6C-0.1,1.2,.6,.1,1.6,.0C2.7,-0.1,3.6,.9,3.7,2.2C3.8,3.5,3.1,4.7,2.1,4.8C1.0,4.9,.1,3.9,.0,2.6z" transform="matrix(0.999391,-0.034899,0.034899,0.999391,45.024572,54.549558)" stroke-width="0.4799999892711639" fill-rule="nonzero" stroke="#ff7878" fill="#ff7878" id="shape138"/><path d="M.0,2.2C-0.0,1.3,.3,.5,.8,.0C.8,.0,3.1,3.9,3.1,3.9C2.8,4.2,2.5,4.4,2.1,4.4C1.1,4.5,.2,3.5,.0,2.2z" transform="matrix(0.999391,-0.034899,0.034899,0.999391,45.015480,54.923979)" fill-rule="nonzero" fill="#ffffff" id="shape139" fill-opacity="0.12"/><path d="M.0,.0L8.9,4.6L8.9,8.6L.0,3.8L.0,.0z" transform="translate(20.828540,41.582810)" fill-rule="nonzero" fill="#ffffff" id="shape140" fill-opacity="0.29"/></g></g><g transform="translate(120.000000,142.000000)" id="group141"><path d="M.0,.0L59.1,31.5L59.1,45.2L.0,13.7L.0,.0z" transform="translate(0.000000,28.827600)" stroke-width="0.5" fill-rule="nonzero" stroke="#d6d8df" fill="#d6d8df" id="shape142"/><path d="M.0,.0L51.7,27.8" transform="translate(0.235300,36.363600)" stroke-width="1" stroke-dasharray="3.8,1.2" stroke="#000000" fill="none" id="shape143"/><path d="M.0,.0L11.6,6.1L11.6,12.4L.0,6.1L.0,.0z" transform="translate(22.795630,45.405940)" stroke-width="1" fill-rule="nonzero" stroke="#ffffff" fill="#ffffff" id="shape144"/><path d="M.0,.0L54.9,28.9L54.9,42.6L.0,13.7L.0,.0z" transform="matrix(-1.000000,0.000000,0.000000,1.000000,114.000000,31.384800)" stroke-width="0.5" fill-rule="nonzero" stroke="#caccd3" fill="#caccd3" id="shape145"/><path d="M59.1,60.3L.0,28.8L54.9,.0L114.0,31.4L59.1,60.3z" stroke-width="0.5" fill-rule="nonzero" stroke="#e2e4e9" fill="#e2e4e9" id="shape146"/><path d="M.0,.0L10.5,5.6L10.5,10.4L.0,4.7L.0,.0z" transform="translate(23.279500,46.396250)" stroke-width="1" fill-rule="nonzero" stroke="#62bc85" fill="#62bc85" id="shape147"/><path d="M.0,3.6C-0.1,1.7,.9,.1,2.3,.0C3.8,-0.1,5.1,1.3,5.2,3.1C5.4,5.0,4.4,6.6,2.9,6.7C1.5,6.9,.2,5.5,.0,3.6z" transform="matrix(0.999391,-0.034899,0.034899,0.999391,50.295377,60.721413)" stroke-width="0.25" fill-rule="nonzero" stroke="#e85464" fill="#e85464" id="shape148"/><path d="M.0,2.9C-0.1,1.4,.7,.1,1.9,.0C3.0,-0.1,4.1,1.0,4.2,2.5C4.3,4.0,3.5,5.3,2.3,5.4C1.2,5.5,.1,4.4,.0,2.9z" transform="matrix(0.999391,-0.034899,0.034899,0.999391,50.851654,61.384574)" stroke-width="0.4799999892711639" fill-rule="nonzero" stroke="#ff7878" fill="#ff7878" id="shape149"/><path d="M.0,2.4C-0.1,1.4,.3,.5,.9,.0C.9,.0,3.4,4.4,3.4,4.4C3.1,4.7,2.8,4.9,2.4,5.0C1.2,5.1,.2,3.9,.0,2.4z" transform="matrix(0.999391,-0.034899,0.034899,0.999391,50.841332,61.805884)" fill-rule="nonzero" fill="#ffffff" id="shape150" fill-opacity="0.12"/><path d="M.0,.0L10.1,5.2L10.1,9.6L.0,4.3L.0,.0z" transform="translate(23.524040,46.792930)" fill-rule="nonzero" fill="#ffffff" id="shape151" fill-opacity="0.29"/></g><g transform="translate(0.000000,79.000000)" id="group152"><path d="M.0,.0L59.1,31.5L59.1,45.2L.0,13.7L.0,.0z" transform="translate(0.000000,28.827600)" stroke-width="0.5" fill-rule="nonzero" stroke="#d6d8df" fill="#d6d8df" id="shape153"/><path d="M.0,.0L51.7,27.8" transform="translate(0.235300,36.363600)" stroke-width="1" stroke-dasharray="3.8,1.2" stroke="#000000" fill="none" id="shape154"/><path d="M.0,.0L11.6,6.1L11.6,12.4L.0,6.1L.0,.0z" transform="translate(22.795630,45.405940)" stroke-width="1" fill-rule="nonzero" stroke="#ffffff" fill="#ffffff" id="shape155"/><path d="M.0,.0L54.9,28.9L54.9,42.6L.0,13.7L.0,.0z" transform="matrix(-1.000000,0.000000,0.000000,1.000000,114.000000,31.384800)" stroke-width="0.5" fill-rule="nonzero" stroke="#caccd3" fill="#caccd3" id="shape156"/><path d="M59.1,60.3L.0,28.8L54.9,.0L114.0,31.4L59.1,60.3z" stroke-width="0.5" fill-rule="nonzero" stroke="#e2e4e9" fill="#e2e4e9" id="shape157"/><path d="M.0,.0L10.5,5.6L10.5,10.4L.0,4.7L.0,.0z" transform="translate(23.279500,46.396250)" stroke-width="1" fill-rule="nonzero" stroke="#62bc85" fill="#62bc85" id="shape158"/><path d="M.0,3.6C-0.1,1.7,.9,.1,2.3,.0C3.8,-0.1,5.1,1.3,5.2,3.1C5.4,5.0,4.4,6.6,2.9,6.7C1.5,6.9,.2,5.5,.0,3.6z" transform="matrix(0.999391,-0.034899,0.034899,0.999391,50.295377,60.721413)" stroke-width="0.25" fill-rule="nonzero" stroke="#e85464" fill="#e85464" id="shape159"/><path d="M.0,2.9C-0.1,1.4,.7,.1,1.9,.0C3.0,-0.1,4.1,1.0,4.2,2.5C4.3,4.0,3.5,5.3,2.3,5.4C1.2,5.5,.1,4.4,.0,2.9z" transform="matrix(0.999391,-0.034899,0.034899,0.999391,50.851654,61.384574)" stroke-width="0.4799999892711639" fill-rule="nonzero" stroke="#ff7878" fill="#ff7878" id="shape160"/><path d="M.0,2.4C-0.1,1.4,.3,.5,.9,.0C.9,.0,3.4,4.4,3.4,4.4C3.1,4.7,2.8,4.9,2.4,5.0C1.2,5.1,.2,3.9,.0,2.4z" transform="matrix(0.999391,-0.034899,0.034899,0.999391,50.841332,61.805884)" fill-rule="nonzero" fill="#ffffff" id="shape161" fill-opacity="0.12"/><path d="M.0,.0L10.1,5.2L10.1,9.6L.0,4.3L.0,.0z" transform="translate(23.524040,46.792930)" fill-rule="nonzero" fill="#ffffff" id="shape162" fill-opacity="0.29"/></g><g transform="translate(250.000000,79.000000)" id="group163"><path d="M.0,.0L59.1,31.5L59.1,45.2L.0,13.7L.0,.0z" transform="translate(0.000000,28.827600)" stroke-width="0.5" fill-rule="nonzero" stroke="#d6d8df" fill="#d6d8df" id="shape164"/><path d="M.0,.0L51.7,27.8" transform="translate(0.235300,36.363600)" stroke-width="1" stroke-dasharray="3.8,1.2" stroke="#000000" fill="none" id="shape165"/><path d="M.0,.0L11.6,6.1L11.6,12.4L.0,6.1L.0,.0z" transform="translate(22.795630,45.405940)" stroke-width="1" fill-rule="nonzero" stroke="#ffffff" fill="#ffffff" id="shape166"/><path d="M.0,.0L54.9,28.9L54.9,42.6L.0,13.7L.0,.0z" transform="matrix(-1.000000,0.000000,0.000000,1.000000,114.000000,31.384800)" stroke-width="0.5" fill-rule="nonzero" stroke="#caccd3" fill="#caccd3" id="shape167"/><path d="M59.1,60.3L.0,28.8L54.9,.0L114.0,31.4L59.1,60.3z" stroke-width="0.5" fill-rule="nonzero" stroke="#e2e4e9" fill="#e2e4e9" id="shape168"/><path d="M.0,.0L10.5,5.6L10.5,10.4L.0,4.7L.0,.0z" transform="translate(23.279500,46.396250)" stroke-width="1" fill-rule="nonzero" stroke="#62bc85" fill="#62bc85" id="shape169"/><path d="M.0,3.6C-0.1,1.7,.9,.1,2.3,.0C3.8,-0.1,5.1,1.3,5.2,3.1C5.4,5.0,4.4,6.6,2.9,6.7C1.5,6.9,.2,5.5,.0,3.6z" transform="matrix(0.999391,-0.034899,0.034899,0.999391,50.295377,60.721413)" stroke-width="0.25" fill-rule="nonzero" stroke="#e85464" fill="#e85464" id="shape170"/><path d="M.0,2.9C-0.1,1.4,.7,.1,1.9,.0C3.0,-0.1,4.1,1.0,4.2,2.5C4.3,4.0,3.5,5.3,2.3,5.4C1.2,5.5,.1,4.4,.0,2.9z" transform="matrix(0.999391,-0.034899,0.034899,0.999391,50.851654,61.384574)" stroke-width="0.4799999892711639" fill-rule="nonzero" stroke="#ff7878" fill="#ff7878" id="shape171"/><path d="M.0,2.4C-0.1,1.4,.3,.5,.9,.0C.9,.0,3.4,4.4,3.4,4.4C3.1,4.7,2.8,4.9,2.4,5.0C1.2,5.1,.2,3.9,.0,2.4z" transform="matrix(0.999391,-0.034899,0.034899,0.999391,50.841332,61.805884)" fill-rule="nonzero" fill="#ffffff" id="shape172" fill-opacity="0.12"/><path d="M.0,.0L10.1,5.2L10.1,9.6L.0,4.3L.0,.0z" transform="translate(23.524040,46.792930)" fill-rule="nonzero" fill="#ffffff" id="shape173" fill-opacity="0.29"/></g></g><path d="M.0,-0.0L65.7,-0.0" transform="matrix(-0.897451,0.441114,-0.441114,-0.897451,146.000109,68.000132)" stroke-width="2" stroke="#4bacc6" fill="none" id="shape174"/><path d="M.0,-0.0L65.7,-0.0" transform="matrix(-0.897451,0.441114,-0.441114,-0.897451,267.000109,131.000132)" stroke-width="2" stroke="#4bacc6" fill="none" id="shape175"/><path d="M.0,-0.0L51.4,-0.0" transform="matrix(-0.855011,-0.518609,0.518609,-0.855011,133.999646,164.999705)" stroke-width="2" stroke="#4bacc6" fill="none" id="shape176"/><path d="M.0,-0.0L68.5,-0.0" transform="matrix(-0.918984,-0.394295,0.394295,-0.918984,272.000542,97.000023)" stroke-width="2" stroke="#4bacc6" fill="none" id="shape177"/></g><g transform="translate(649.000000,167.850000)" id="group178"><g id="group179"><g transform="translate(126.531300,0.000000)" id="group180"><g transform="translate(0.000000,19.239400)" id="group181"><path d="M.0,.0L52.3,28.0L52.3,40.1L.0,12.2L.0,.0z" transform="translate(0.000000,25.617700)" stroke-width="0.5" fill-rule="nonzero" stroke="#d6d8df" fill="#d6d8df" id="shape182"/><path d="M.0,.0L45.8,24.7" transform="translate(0.208400,32.314700)" stroke-width="1" stroke-dasharray="3.8,1.2" stroke="#000000" fill="none" id="shape183"/><path d="M.0,.0L10.3,5.4L10.3,11.0L.0,5.4L.0,.0z" transform="translate(20.183560,40.350210)" stroke-width="1" fill-rule="nonzero" stroke="#ffffff" fill="#ffffff" id="shape184"/><path d="M.0,.0L48.7,25.7L48.7,37.9L.0,12.2L.0,.0z" transform="matrix(-1.000000,0.000000,0.000000,1.000000,100.937500,27.890300)" stroke-width="0.5" fill-rule="nonzero" stroke="#caccd3" fill="#caccd3" id="shape185"/><path d="M52.3,53.6L.0,25.6L48.7,.0L100.9,27.9L52.3,53.6z" stroke-width="0.5" fill-rule="nonzero" stroke="#e2e4e9" fill="#e2e4e9" id="shape186"/><path d="M.0,.0L9.3,4.9L9.3,9.3L.0,4.2L.0,.0z" transform="translate(20.612040,41.230260)" stroke-width="1" fill-rule="nonzero" stroke="#62bc85" fill="#62bc85" id="shape187"/><path d="M.0,3.2C-0.1,1.5,.8,.1,2.1,.0C3.3,-0.1,4.5,1.1,4.6,2.8C4.8,4.4,3.9,5.9,2.6,6.0C1.3,6.1,.2,4.8,.0,3.2z" transform="matrix(0.999391,-0.034899,0.034899,0.999391,44.531962,53.960160)" stroke-width="0.25" fill-rule="nonzero" stroke="#e85464" fill="#e85464" id="shape188"/><path d="M.0,2.6C-0.1,1.2,.6,.1,1.6,.0C2.7,-0.1,3.6,.9,3.7,2.2C3.8,3.5,3.1,4.7,2.1,4.8C1.0,4.9,.1,3.9,.0,2.6z" transform="matrix(0.999391,-0.034899,0.034899,0.999391,45.024572,54.549558)" stroke-width="0.4799999892711639" fill-rule="nonzero" stroke="#ff7878" fill="#ff7878" id="shape189"/><path d="M.0,2.2C-0.0,1.3,.3,.5,.8,.0C.8,.0,3.1,3.9,3.1,3.9C2.8,4.2,2.5,4.4,2.1,4.4C1.1,4.5,.2,3.5,.0,2.2z" transform="matrix(0.999391,-0.034899,0.034899,0.999391,45.015480,54.923979)" fill-rule="nonzero" fill="#ffffff" id="shape190" fill-opacity="0.12"/><path d="M.0,.0L8.9,4.6L8.9,8.6L.0,3.8L.0,.0z" transform="translate(20.828540,41.582810)" fill-rule="nonzero" fill="#ffffff" id="shape191" fill-opacity="0.29"/></g><g id="group192"><path d="M.0,.0L52.3,28.0L52.3,40.1L.0,12.2L.0,.0z" transform="translate(0.000000,25.617700)" stroke-width="0.5" fill-rule="nonzero" stroke="#d6d8df" fill="#d6d8df" id="shape193"/><path d="M.0,.0L45.8,24.7" transform="translate(0.208400,32.314700)" stroke-width="1" stroke-dasharray="3.8,1.2" stroke="#000000" fill="none" id="shape194"/><path d="M.0,.0L10.3,5.4L10.3,11.0L.0,5.4L.0,.0z" transform="translate(20.183560,40.350210)" stroke-width="1" fill-rule="nonzero" stroke="#ffffff" fill="#ffffff" id="shape195"/><path d="M.0,.0L48.7,25.7L48.7,37.9L.0,12.2L.0,.0z" transform="matrix(-1.000000,0.000000,0.000000,1.000000,100.937500,27.890300)" stroke-width="0.5" fill-rule="nonzero" stroke="#caccd3" fill="#caccd3" id="shape196"/><path d="M52.3,53.6L.0,25.6L48.7,.0L100.9,27.9L52.3,53.6z" stroke-width="0.5" fill-rule="nonzero" stroke="#e2e4e9" fill="#e2e4e9" id="shape197"/><path d="M.0,.0L9.3,4.9L9.3,9.3L.0,4.2L.0,.0z" transform="translate(20.612040,41.230260)" stroke-width="1" fill-rule="nonzero" stroke="#62bc85" fill="#62bc85" id="shape198"/><path d="M.0,3.2C-0.1,1.5,.8,.1,2.1,.0C3.3,-0.1,4.5,1.1,4.6,2.8C4.8,4.4,3.9,5.9,2.6,6.0C1.3,6.1,.2,4.8,.0,3.2z" transform="matrix(0.999391,-0.034899,0.034899,0.999391,44.531962,53.960160)" stroke-width="0.25" fill-rule="nonzero" stroke="#e85464" fill="#e85464" id="shape199"/><path d="M.0,2.6C-0.1,1.2,.6,.1,1.6,.0C2.7,-0.1,3.6,.9,3.7,2.2C3.8,3.5,3.1,4.7,2.1,4.8C1.0,4.9,.1,3.9,.0,2.6z" transform="matrix(0.999391,-0.034899,0.034899,0.999391,45.024572,54.549558)" stroke-width="0.4799999892711639" fill-rule="nonzero" stroke="#ff7878" fill="#ff7878" id="shape200"/><path d="M.0,2.2C-0.0,1.3,.3,.5,.8,.0C.8,.0,3.1,3.9,3.1,3.9C2.8,4.2,2.5,4.4,2.1,4.4C1.1,4.5,.2,3.5,.0,2.2z" transform="matrix(0.999391,-0.034899,0.034899,0.999391,45.015480,54.923979)" fill-rule="nonzero" fill="#ffffff" id="shape201" fill-opacity="0.12"/><path d="M.0,.0L8.9,4.6L8.9,8.6L.0,3.8L.0,.0z" transform="translate(20.828540,41.582810)" fill-rule="nonzero" fill="#ffffff" id="shape202" fill-opacity="0.29"/></g></g><g transform="translate(120.000000,142.000000)" id="group203"><path d="M.0,.0L59.1,31.5L59.1,45.2L.0,13.7L.0,.0z" transform="translate(0.000000,28.827600)" stroke-width="0.5" fill-rule="nonzero" stroke="#d6d8df" fill="#d6d8df" id="shape204"/><path d="M.0,.0L51.7,27.8" transform="translate(0.235300,36.363600)" stroke-width="1" stroke-dasharray="3.8,1.2" stroke="#000000" fill="none" id="shape205"/><path d="M.0,.0L11.6,6.1L11.6,12.4L.0,6.1L.0,.0z" transform="translate(22.795630,45.405940)" stroke-width="1" fill-rule="nonzero" stroke="#ffffff" fill="#ffffff" id="shape206"/><path d="M.0,.0L54.9,28.9L54.9,42.6L.0,13.7L.0,.0z" transform="matrix(-1.000000,0.000000,0.000000,1.000000,114.000000,31.384800)" stroke-width="0.5" fill-rule="nonzero" stroke="#caccd3" fill="#caccd3" id="shape207"/><path d="M59.1,60.3L.0,28.8L54.9,.0L114.0,31.4L59.1,60.3z" stroke-width="0.5" fill-rule="nonzero" stroke="#e2e4e9" fill="#e2e4e9" id="shape208"/><path d="M.0,.0L10.5,5.6L10.5,10.4L.0,4.7L.0,.0z" transform="translate(23.279500,46.396250)" stroke-width="1" fill-rule="nonzero" stroke="#62bc85" fill="#62bc85" id="shape209"/><path d="M.0,3.6C-0.1,1.7,.9,.1,2.3,.0C3.8,-0.1,5.1,1.3,5.2,3.1C5.4,5.0,4.4,6.6,2.9,6.7C1.5,6.9,.2,5.5,.0,3.6z" transform="matrix(0.999391,-0.034899,0.034899,0.999391,50.295377,60.721413)" stroke-width="0.25" fill-rule="nonzero" stroke="#e85464" fill="#e85464" id="shape210"/><path d="M.0,2.9C-0.1,1.4,.7,.1,1.9,.0C3.0,-0.1,4.1,1.0,4.2,2.5C4.3,4.0,3.5,5.3,2.3,5.4C1.2,5.5,.1,4.4,.0,2.9z" transform="matrix(0.999391,-0.034899,0.034899,0.999391,50.851654,61.384574)" stroke-width="0.4799999892711639" fill-rule="nonzero" stroke="#ff7878" fill="#ff7878" id="shape211"/><path d="M.0,2.4C-0.1,1.4,.3,.5,.9,.0C.9,.0,3.4,4.4,3.4,4.4C3.1,4.7,2.8,4.9,2.4,5.0C1.2,5.1,.2,3.9,.0,2.4z" transform="matrix(0.999391,-0.034899,0.034899,0.999391,50.841332,61.805884)" fill-rule="nonzero" fill="#ffffff" id="shape212" fill-opacity="0.12"/><path d="M.0,.0L10.1,5.2L10.1,9.6L.0,4.3L.0,.0z" transform="translate(23.524040,46.792930)" fill-rule="nonzero" fill="#ffffff" id="shape213" fill-opacity="0.29"/></g><g transform="translate(0.000000,79.000000)" id="group214"><path d="M.0,.0L59.1,31.5L59.1,45.2L.0,13.7L.0,.0z" transform="translate(0.000000,28.827600)" stroke-width="0.5" fill-rule="nonzero" stroke="#d6d8df" fill="#d6d8df" id="shape215"/><path d="M.0,.0L51.7,27.8" transform="translate(0.235300,36.363600)" stroke-width="1" stroke-dasharray="3.8,1.2" stroke="#000000" fill="none" id="shape216"/><path d="M.0,.0L11.6,6.1L11.6,12.4L.0,6.1L.0,.0z" transform="translate(22.795630,45.405940)" stroke-width="1" fill-rule="nonzero" stroke="#ffffff" fill="#ffffff" id="shape217"/><path d="M.0,.0L54.9,28.9L54.9,42.6L.0,13.7L.0,.0z" transform="matrix(-1.000000,0.000000,0.000000,1.000000,114.000000,31.384800)" stroke-width="0.5" fill-rule="nonzero" stroke="#caccd3" fill="#caccd3" id="shape218"/><path d="M59.1,60.3L.0,28.8L54.9,.0L114.0,31.4L59.1,60.3z" stroke-width="0.5" fill-rule="nonzero" stroke="#e2e4e9" fill="#e2e4e9" id="shape219"/><path d="M.0,.0L10.5,5.6L10.5,10.4L.0,4.7L.0,.0z" transform="translate(23.279500,46.396250)" stroke-width="1" fill-rule="nonzero" stroke="#62bc85" fill="#62bc85" id="shape220"/><path d="M.0,3.6C-0.1,1.7,.9,.1,2.3,.0C3.8,-0.1,5.1,1.3,5.2,3.1C5.4,5.0,4.4,6.6,2.9,6.7C1.5,6.9,.2,5.5,.0,3.6z" transform="matrix(0.999391,-0.034899,0.034899,0.999391,50.295377,60.721413)" stroke-width="0.25" fill-rule="nonzero" stroke="#e85464" fill="#e85464" id="shape221"/><path d="M.0,2.9C-0.1,1.4,.7,.1,1.9,.0C3.0,-0.1,4.1,1.0,4.2,2.5C4.3,4.0,3.5,5.3,2.3,5.4C1.2,5.5,.1,4.4,.0,2.9z" transform="matrix(0.999391,-0.034899,0.034899,0.999391,50.851654,61.384574)" stroke-width="0.4799999892711639" fill-rule="nonzero" stroke="#ff7878" fill="#ff7878" id="shape222"/><path d="M.0,2.4C-0.1,1.4,.3,.5,.9,.0C.9,.0,3.4,4.4,3.4,4.4C3.1,4.7,2.8,4.9,2.4,5.0C1.2,5.1,.2,3.9,.0,2.4z" transform="matrix(0.999391,-0.034899,0.034899,0.999391,50.841332,61.805884)" fill-rule="nonzero" fill="#ffffff" id="shape223" fill-opacity="0.12"/><path d="M.0,.0L10.1,5.2L10.1,9.6L.0,4.3L.0,.0z" transform="translate(23.524040,46.792930)" fill-rule="nonzero" fill="#ffffff" id="shape224" fill-opacity="0.29"/></g><g transform="translate(250.000000,79.000000)" id="group225"><path d="M.0,.0L59.1,31.5L59.1,45.2L.0,13.7L.0,.0z" transform="translate(0.000000,28.827600)" stroke-width="0.5" fill-rule="nonzero" stroke="#d6d8df" fill="#d6d8df" id="shape226"/><path d="M.0,.0L51.7,27.8" transform="translate(0.235300,36.363600)" stroke-width="1" stroke-dasharray="3.8,1.2" stroke="#000000" fill="none" id="shape227"/><path d="M.0,.0L11.6,6.1L11.6,12.4L.0,6.1L.0,.0z" transform="translate(22.795630,45.405940)" stroke-width="1" fill-rule="nonzero" stroke="#ffffff" fill="#ffffff" id="shape228"/><path d="M.0,.0L54.9,28.9L54.9,42.6L.0,13.7L.0,.0z" transform="matrix(-1.000000,0.000000,0.000000,1.000000,114.000000,31.384800)" stroke-width="0.5" fill-rule="nonzero" stroke="#caccd3" fill="#caccd3" id="shape229"/><path d="M59.1,60.3L.0,28.8L54.9,.0L114.0,31.4L59.1,60.3z" stroke-width="0.5" fill-rule="nonzero" stroke="#e2e4e9" fill="#e2e4e9" id="shape230"/><path d="M.0,.0L10.5,5.6L10.5,10.4L.0,4.7L.0,.0z" transform="translate(23.279500,46.396250)" stroke-width="1" fill-rule="nonzero" stroke="#62bc85" fill="#62bc85" id="shape231"/><path d="M.0,3.6C-0.1,1.7,.9,.1,2.3,.0C3.8,-0.1,5.1,1.3,5.2,3.1C5.4,5.0,4.4,6.6,2.9,6.7C1.5,6.9,.2,5.5,.0,3.6z" transform="matrix(0.999391,-0.034899,0.034899,0.999391,50.295377,60.721413)" stroke-width="0.25" fill-rule="nonzero" stroke="#e85464" fill="#e85464" id="shape232"/><path d="M.0,2.9C-0.1,1.4,.7,.1,1.9,.0C3.0,-0.1,4.1,1.0,4.2,2.5C4.3,4.0,3.5,5.3,2.3,5.4C1.2,5.5,.1,4.4,.0,2.9z" transform="matrix(0.999391,-0.034899,0.034899,0.999391,50.851654,61.384574)" stroke-width="0.4799999892711639" fill-rule="nonzero" stroke="#ff7878" fill="#ff7878" id="shape233"/><path d="M.0,2.4C-0.1,1.4,.3,.5,.9,.0C.9,.0,3.4,4.4,3.4,4.4C3.1,4.7,2.8,4.9,2.4,5.0C1.2,5.1,.2,3.9,.0,2.4z" transform="matrix(0.999391,-0.034899,0.034899,0.999391,50.841332,61.805884)" fill-rule="nonzero" fill="#ffffff" id="shape234" fill-opacity="0.12"/><path d="M.0,.0L10.1,5.2L10.1,9.6L.0,4.3L.0,.0z" transform="translate(23.524040,46.792930)" fill-rule="nonzero" fill="#ffffff" id="shape235" fill-opacity="0.29"/></g></g><path d="M.0,-0.0L65.7,-0.0" transform="matrix(-0.897451,0.441114,-0.441114,-0.897451,146.000109,68.000132)" stroke-width="2" stroke="#4bacc6" fill="none" id="shape236"/><path d="M.0,-0.0L65.7,-0.0" transform="matrix(-0.897451,0.441114,-0.441114,-0.897451,267.000109,131.000132)" stroke-width="2" stroke="#4bacc6" fill="none" id="shape237"/><path d="M.0,-0.0L51.4,-0.0" transform="matrix(-0.855011,-0.518609,0.518609,-0.855011,133.999646,164.999705)" stroke-width="2" stroke="#4bacc6" fill="none" id="shape238"/><path d="M.0,-0.0L68.5,-0.0" transform="matrix(-0.918984,-0.394295,0.394295,-0.918984,272.000542,97.000023)" stroke-width="2" stroke="#4bacc6" fill="none" id="shape239"/></g><g transform="translate(393.000000,333.474000)" id="group240"><path d="M37.1,41.2C37.1,41.2,47.9,-1.7,94.2,16.0C94.2,16.0,96.7,16.9,100.4,10.6C105.6,1.4,132.3,-10.5,152.6,17.2C152.6,17.2,181.2,6.6,197.8,28.8C197.8,28.8,207.9,50.1,197.8,65.4C197.8,65.4,219.7,74.9,212.2,106.3C212.2,106.3,203.9,129.3,179.4,121.0C179.4,121.0,179.4,148.4,149.2,152.4C119.0,156.3,110.2,143.7,110.2,143.7C110.2,143.7,92.3,165.8,68.2,154.1C44.1,142.4,47.2,128.0,47.2,128.0C47.2,128.0,6.4,134.1,.3,85.4C.3,85.4,-5.8,41.2,37.1,41.2z" stroke-width="1" fill-rule="nonzero" stroke="#89c3eb" fill="#89c3eb" id="shape241"/><path d="M32.3,36.6C32.3,36.6,41.6,-0.7,82.0,14.7C82.0,14.7,88.6,15.8,92.5,8.1C96.3,.4,115.1,-8.4,132.8,15.8C132.8,15.8,157.6,6.6,172.1,25.9C172.1,25.9,180.9,44.4,172.1,57.7C172.1,57.7,191.2,66.0,184.7,93.3C184.7,93.3,177.4,113.3,156.1,106.1C156.1,106.1,156.1,130.0,129.8,133.4C103.5,136.8,95.9,125.8,95.9,125.8C95.9,125.8,80.3,145.1,59.3,134.9C38.4,124.7,41.0,112.2,41.0,112.2C41.0,112.2,5.6,117.5,.3,75.1C.3,75.1,-5.1,36.6,32.3,36.6z" transform="translate(12.920700,7.228200)" fill-rule="nonzero" fill="#ffffff" id="shape242" fill-opacity="0.14"/><path d="M.0,20.4L.0,.0L2.7,.0L2.7,20.4L.0,20.4zM6.4,20.4L8.9,20.4L8.9,12.3C8.9,10.4,9.3,9.2,10.1,8.5C10.9,7.8,11.8,7.5,12.9,7.5C13.5,7.5,14.1,7.6,14.6,7.9C15.1,8.2,15.5,8.6,15.7,9.1C15.9,9.6,16.0,10.4,16.0,11.4L16.0,20.4L18.5,20.4L18.5,11.3C18.5,10.2,18.4,9.3,18.3,8.9C18.2,8.2,17.9,7.6,17.6,7.0C17.2,6.5,16.6,6.1,15.9,5.8C15.1,5.5,14.3,5.3,13.4,5.3C11.3,5.3,9.8,6.1,8.7,7.7L8.7,5.6L6.4,5.6L6.4,20.4zM28.6,18.2C28.2,18.2,27.8,18.3,27.5,18.3C27.2,18.3,26.9,18.2,26.7,18.1C26.5,18.0,26.3,17.8,26.2,17.6C26.2,17.4,26.1,16.9,26.1,16.2L26.1,7.6L28.6,7.6L28.6,5.6L26.1,5.6L26.1,.5L23.6,2.0L23.6,5.6L21.7,5.6L21.7,7.6L23.6,7.6L23.6,16.1C23.6,17.6,23.7,18.6,23.9,19.0C24.1,19.5,24.5,19.9,25.0,20.2C25.5,20.5,26.2,20.6,27.1,20.6C27.7,20.6,28.3,20.5,29.0,20.4L28.6,18.2zM40.5,15.6C40.1,16.7,39.6,17.5,38.9,18.0C38.3,18.4,37.5,18.7,36.6,18.7C35.3,18.7,34.3,18.3,33.5,17.4C32.6,16.5,32.2,15.3,32.1,13.7L43.2,13.7C43.2,13.4,43.2,13.1,43.2,13.0C43.2,10.5,42.6,8.7,41.3,7.3C40.0,6.0,38.4,5.3,36.4,5.3C34.4,5.3,32.7,6.0,31.4,7.4C30.1,8.7,29.5,10.7,29.5,13.1C29.5,15.5,30.1,17.4,31.4,18.7C32.7,20.1,34.4,20.7,36.6,20.7C38.3,20.7,39.7,20.3,40.8,19.5C41.9,18.7,42.7,17.5,43.1,16.0L40.5,15.6zM32.2,11.6C32.3,10.3,32.7,9.3,33.5,8.5C34.3,7.7,35.3,7.4,36.5,7.4C37.7,7.4,38.8,7.8,39.6,8.8C40.1,9.4,40.4,10.4,40.5,11.6L32.2,11.6zM47.0,20.4L49.6,20.4L49.6,12.7C49.6,11.6,49.7,10.6,50.0,9.7C50.2,9.2,50.5,8.7,50.9,8.4C51.4,8.0,51.8,7.9,52.4,7.9C53.0,7.9,53.6,8.1,54.2,8.4L55.1,6.1C54.2,5.6,53.4,5.3,52.5,5.3C51.9,5.3,51.4,5.5,50.9,5.8C50.4,6.1,49.9,6.8,49.3,7.9L49.3,5.6L47.0,5.6L47.0,20.4zM56.6,20.4L59.2,20.4L59.2,12.3C59.2,10.4,59.5,9.2,60.3,8.5C61.1,7.8,62.0,7.5,63.1,7.5C63.8,7.5,64.4,7.6,64.9,7.9C65.4,8.2,65.7,8.6,65.9,9.1C66.1,9.6,66.2,10.4,66.2,11.4L66.2,20.4L68.7,20.4L68.7,11.3C68.7,10.2,68.7,9.3,68.6,8.9C68.4,8.2,68.2,7.6,67.8,7.0C67.4,6.5,66.9,6.1,66.1,5.8C65.4,5.5,64.5,5.3,63.6,5.3C61.6,5.3,60.0,6.1,58.9,7.7L58.9,5.6L56.6,5.6L56.6,20.4zM83.6,15.6C83.2,16.7,82.7,17.5,82.0,18.0C81.4,18.4,80.6,18.7,79.6,18.7C78.4,18.7,77.4,18.3,76.5,17.4C75.7,16.5,75.2,15.3,75.1,13.7L86.2,13.7C86.2,13.4,86.3,13.1,86.3,13.0C86.3,10.5,85.6,8.7,84.4,7.3C83.1,6.0,81.5,5.3,79.5,5.3C77.4,5.3,75.8,6.0,74.5,7.4C73.2,8.7,72.5,10.7,72.5,13.1C72.5,15.5,73.2,17.4,74.4,18.7C75.7,20.1,77.4,20.7,79.6,20.7C81.4,20.7,82.8,20.3,83.9,19.5C85.0,18.7,85.8,17.5,86.2,16.0L83.6,15.6zM75.3,11.6C75.4,10.3,75.8,9.3,76.6,8.5C77.4,7.7,78.4,7.4,79.5,7.4C80.8,7.4,81.8,7.8,82.6,8.8C83.2,9.4,83.5,10.4,83.6,11.6L75.3,11.6zM95.6,18.2C95.2,18.2,94.8,18.3,94.5,18.3C94.1,18.3,93.9,18.2,93.7,18.1C93.5,18.0,93.3,17.8,93.2,17.6C93.1,17.4,93.1,16.9,93.1,16.2L93.1,7.6L95.6,7.6L95.6,5.6L93.1,5.6L93.1,.5L90.6,2.0L90.6,5.6L88.7,5.6L88.7,7.6L90.6,7.6L90.6,16.1C90.6,17.6,90.7,18.6,90.9,19.0C91.1,19.5,91.4,19.9,92.0,20.2C92.5,20.5,93.2,20.6,94.1,20.6C94.6,20.6,95.3,20.5,96.0,20.4L95.6,18.2z" transform="translate(58.897500,65.791100)" stroke-width="1" fill-rule="nonzero" stroke="#ffffff" fill="#ffffff" id="shape243"/></g><path d="M.0,-0.0L111.9,-0.0" transform="matrix(-0.806517,-0.591211,0.591211,-0.806517,438.000020,354.999892)" stroke-width="2" stroke="#4bacc6" fill="none" id="shape244"/><path d="M.0,-0.0L180.2,-0.0" transform="matrix(-0.948804,-0.315864,0.315864,-0.948804,775.531456,498.231102)" stroke-width="2" stroke="#4bacc6" fill="none" id="shape245"/><path d="M.0,-0.0L94.6,-0.0" transform="matrix(0.964853,-0.262789,0.262789,0.964853,324.759898,485.850150)" stroke-width="2" stroke="#4bacc6" fill="none" id="shape246"/><path d="M.0,-0.0L104.4,-0.0" transform="matrix(0.861688,-0.507439,0.507439,0.861688,590.000001,355.000043)" stroke-width="2" stroke="#4bacc6" fill="none" id="shape247"/><path d="M.0,-0.0L91.0,-0.0" transform="matrix(0.000000,-1.000000,1.000000,0.000000,816.760000,470.850000)" stroke-width="2" stroke="#4bacc6" fill="none" id="shape248"/><path d="M.0,-0.0L156.8,-0.0" transform="matrix(0.009372,-0.999956,0.999956,0.009372,295.290252,470.635457)" stroke-width="2" stroke="#4bacc6" fill="none" id="shape249"/><g transform="translate(275.760200,463.850000)" id="shape250"><text xml:space="preserve" style="fill:#e16e6a;font-family:微软雅黑;font-size:23.00pt"><tspan y="40.0" x="6.8">A</tspan></text></g><g transform="translate(798.982200,468.850000)" id="shape251"><text xml:space="preserve" style="fill:#e16e6a;font-family:微软雅黑;font-size:23.00pt"><tspan y="40.0" x="7.3">C</tspan></text></g><g transform="translate(798.982200,167.850000)" id="shape252"><text xml:space="preserve" style="fill:#e16e6a;font-family:微软雅黑;font-size:23.00pt"><tspan y="40.0" x="8.3">B</tspan></text></g><g transform="translate(740.380000,84.000000)" id="shape253"><text xml:space="preserve" style="fill:#379e90;font-family:幼圆;font-size:14.00pt;font-weight:bold"><tspan y="26.0" x="23.0">B &amp; C Private </tspan><tspan y="47.0" x="56.0">Network</tspan></text></g><g transform="translate(587.027000,317.000000)" id="group254"><path d="M21.9,2.4L1.1,38.4C1.1,38.4,-2.4,44.0,3.0,44.0C7.8,44.0,46.1,44.0,46.1,44.0C46.1,44.0,52.3,44.0,49.0,38.4C46.3,33.8,28.2,2.4,28.2,2.4C28.2,2.4,25.2,-3.1,21.9,2.4z" fill-rule="nonzero" fill="#ec1d24" id="shape255"/><path d="M19.3,.0L.0,33.9C.0,33.9,38.4,33.9,38.5,33.9C38.6,33.9,19.5,-0.1,19.3,.0z" transform="translate(5.730200,5.469100)" stroke-width="1" fill-rule="nonzero" stroke="#ffffff" fill="#ffffff" id="shape256"/><path d="M8.0,5.8L2.2,.0L.0,2.2L5.8,8.1L.0,13.9L2.2,16.1L8.0,10.3L13.9,16.1L16.1,13.9L10.3,8.1L16.1,2.2L13.9,.0L8.0,5.8z" transform="translate(16.927060,21.417800)" stroke-width="1" fill-rule="nonzero" stroke="#000000" fill="#000000" id="shape257"/></g><g transform="translate(230.251000,152.849900)" id="shape258"><text xml:space="preserve" style="fill:#e16e6a;font-family:微软雅黑;font-size:23.00pt"><tspan y="44.5" x="27.5">Sever</tspan></text></g><g transform="translate(665.069000,447.000000)" id="group259"><path d="M21.9,2.4L1.1,38.4C1.1,38.4,-2.4,44.0,3.0,44.0C7.8,44.0,46.1,44.0,46.1,44.0C46.1,44.0,52.3,44.0,49.0,38.4C46.3,33.8,28.2,2.4,28.2,2.4C28.2,2.4,25.2,-3.1,21.9,2.4z" fill-rule="nonzero" fill="#ec1d24" id="shape260"/><path d="M19.3,.0L.0,33.9C.0,33.9,38.4,33.9,38.5,33.9C38.6,33.9,19.5,-0.1,19.3,.0z" transform="translate(5.730200,5.469100)" stroke-width="1" fill-rule="nonzero" stroke="#ffffff" fill="#ffffff" id="shape261"/><path d="M8.0,5.8L2.2,.0L.0,2.2L5.8,8.1L.0,13.9L2.2,16.1L8.0,10.3L13.9,16.1L16.1,13.9L10.3,8.1L16.1,2.2L13.9,.0L8.0,5.8z" transform="translate(16.927060,21.417800)" stroke-width="1" fill-rule="nonzero" stroke="#000000" fill="#000000" id="shape262"/></g></g></svg>