<svg height="804" xmlns:ev="http://www.w3.org/2001/xml-events" width="1132" xmlns="http://www.w3.org/2000/svg" xmlns:xlink="http://www.w3.org/1999/xlink" viewBox="0 0 1132 804"><defs/><g transform="translate(5.5,5.5)" id="page1"><rect y="0" height="794" width="1123" fill="#ffffff" x="0"/><g transform="translate(479.201500,196.059000)" id="group1"><g transform="translate(0.000000,67.133600)" id="group2"><path d="M.0,.0L87.9,48.1L87.9,71.3L.0,23.2L.0,.0z" transform="translate(0.000000,44.029900)" stroke-width="0.5" fill-rule="nonzero" stroke="#d6d8df" fill="#d6d8df" id="shape3"/><path d="M.0,.0L81.8,44.2L81.8,67.4L.0,23.2L.0,.0z" transform="matrix(-1.000000,0.000000,0.000000,1.000000,169.683500,47.935700)" stroke-width="0.5" fill-rule="nonzero" stroke="#caccd3" fill="#caccd3" id="shape4"/><path d="M87.9,92.1L.0,44.0L81.8,.0L169.7,47.9L87.9,92.1z" stroke-width="0.5" fill-rule="nonzero" stroke="#e2e4e9" fill="#e2e4e9" id="shape5"/><path d="M.0,5.5C-0.2,2.7,1.3,.2,3.5,.0C5.6,-0.2,7.5,2.0,7.8,4.8C8.0,7.6,6.5,10.1,4.4,10.3C2.2,10.5,.3,8.3,.0,5.5z" transform="matrix(0.999391,-0.034899,0.034899,0.999391,74.867449,95.020850)" stroke-width="0.25" fill-rule="nonzero" stroke="#01acac" fill="#01acac" id="shape6"/><path d="M.0,4.4C-0.2,2.1,1.1,.2,2.8,.0C4.5,-0.1,6.0,1.6,6.2,3.8C6.4,6.1,5.2,8.0,3.5,8.2C1.8,8.3,.2,6.6,.0,4.4z" transform="matrix(0.999391,-0.034899,0.034899,0.999391,75.694338,96.032048)" stroke-width="0.4799999892711639" fill-rule="nonzero" stroke="#76d7d7" fill="#76d7d7" id="shape7"/><path d="M.0,3.7C-0.1,2.2,.4,.8,1.3,.0C1.3,.0,5.1,6.8,5.1,6.8C4.7,7.2,4.1,7.5,3.5,7.5C1.8,7.7,.3,6.0,.0,3.7z" transform="matrix(0.999391,-0.034899,0.034899,0.999391,75.678007,96.674729)" fill-rule="nonzero" fill="#ffffff" id="shape8" fill-opacity="0.29"/><path d="M.0,39.2L72.7,.0" transform="translate(92.701800,59.590600)" stroke-width="1" stroke-dasharray="11,5,2.5,5,2.5,5" stroke="#000000" fill="none" id="shape9"/><path d="M.0,39.2L72.7,.0" transform="translate(92.701800,63.766700)" stroke-width="1" stroke-dasharray="11,5,2.5,5,2.5,5" stroke="#000000" fill="none" id="shape10"/><g transform="translate(9.483900,54.110600)" id="group11"><path d="M.0,.0L21.4,11.5L21.4,23.4L.0,11.4L.0,.0z" stroke-width="1" fill-rule="nonzero" stroke="#ffffff" fill="#ffffff" id="shape12"/><path d="M.0,.0L19.3,10.5L19.3,19.6L.0,8.9L.0,.0z" transform="translate(0.888810,1.866510)" stroke-width="1" fill-rule="nonzero" stroke="#5fb7f1" fill="#5fb7f1" id="shape13"/><path d="M.0,.0L18.5,9.9L18.5,18.2L.0,8.0L.0,.0z" transform="translate(1.337980,2.614260)" fill-rule="nonzero" fill="#ffffff" id="shape14" fill-opacity="0.29"/></g><g transform="translate(41.332900,72.405800)" id="group15"><path d="M.0,.0L21.4,11.5L21.4,23.4L.0,11.4L.0,.0z" stroke-width="1" fill-rule="nonzero" stroke="#ffffff" fill="#ffffff" id="shape16"/><path d="M.0,.0L19.3,10.5L19.3,19.6L.0,8.9L.0,.0z" transform="translate(0.888810,1.866510)" stroke-width="1" fill-rule="nonzero" stroke="#5fb7f1" fill="#5fb7f1" id="shape17"/><path d="M.0,.0L18.5,9.9L18.5,18.2L.0,8.0L.0,.0z" transform="translate(1.337980,2.614260)" fill-rule="nonzero" fill="#ffffff" id="shape18" fill-opacity="0.29"/></g></g><g transform="translate(0.000000,33.566600)" id="group19"><path d="M.0,.0L87.9,48.1L87.9,71.3L.0,23.2L.0,.0z" transform="translate(0.000000,44.029900)" stroke-width="0.5" fill-rule="nonzero" stroke="#d6d8df" fill="#d6d8df" id="shape20"/><path d="M.0,.0L81.8,44.2L81.8,67.4L.0,23.2L.0,.0z" transform="matrix(-1.000000,0.000000,0.000000,1.000000,169.683500,47.935700)" stroke-width="0.5" fill-rule="nonzero" stroke="#caccd3" fill="#caccd3" id="shape21"/><path d="M87.9,92.1L.0,44.0L81.8,.0L169.7,47.9L87.9,92.1z" stroke-width="0.5" fill-rule="nonzero" stroke="#e2e4e9" fill="#e2e4e9" id="shape22"/><path d="M.0,5.5C-0.2,2.7,1.3,.2,3.5,.0C5.6,-0.2,7.5,2.0,7.8,4.8C8.0,7.6,6.5,10.1,4.4,10.3C2.2,10.5,.3,8.3,.0,5.5z" transform="matrix(0.999391,-0.034899,0.034899,0.999391,74.867449,95.020850)" stroke-width="0.25" fill-rule="nonzero" stroke="#01acac" fill="#01acac" id="shape23"/><path d="M.0,4.4C-0.2,2.1,1.1,.2,2.8,.0C4.5,-0.1,6.0,1.6,6.2,3.8C6.4,6.1,5.2,8.0,3.5,8.2C1.8,8.3,.2,6.6,.0,4.4z" transform="matrix(0.999391,-0.034899,0.034899,0.999391,75.694338,96.032048)" stroke-width="0.4799999892711639" fill-rule="nonzero" stroke="#76d7d7" fill="#76d7d7" id="shape24"/><path d="M.0,3.7C-0.1,2.2,.4,.8,1.3,.0C1.3,.0,5.1,6.8,5.1,6.8C4.7,7.2,4.1,7.5,3.5,7.5C1.8,7.7,.3,6.0,.0,3.7z" transform="matrix(0.999391,-0.034899,0.034899,0.999391,75.678007,96.674729)" fill-rule="nonzero" fill="#ffffff" id="shape25" fill-opacity="0.29"/><path d="M.0,39.2L72.7,.0" transform="translate(92.701800,59.590600)" stroke-width="1" stroke-dasharray="11,5,2.5,5,2.5,5" stroke="#000000" fill="none" id="shape26"/><path d="M.0,39.2L72.7,.0" transform="translate(92.701800,63.766700)" stroke-width="1" stroke-dasharray="11,5,2.5,5,2.5,5" stroke="#000000" fill="none" id="shape27"/><g transform="translate(9.483900,54.110600)" id="group28"><path d="M.0,.0L21.4,11.5L21.4,23.4L.0,11.4L.0,.0z" stroke-width="1" fill-rule="nonzero" stroke="#ffffff" fill="#ffffff" id="shape29"/><path d="M.0,.0L19.3,10.5L19.3,19.6L.0,8.9L.0,.0z" transform="translate(0.888810,1.866510)" stroke-width="1" fill-rule="nonzero" stroke="#5fb7f1" fill="#5fb7f1" id="shape30"/><path d="M.0,.0L18.5,9.9L18.5,18.2L.0,8.0L.0,.0z" transform="translate(1.337980,2.614260)" fill-rule="nonzero" fill="#ffffff" id="shape31" fill-opacity="0.29"/></g><g transform="translate(41.332900,72.405800)" id="group32"><path d="M.0,.0L21.4,11.5L21.4,23.4L.0,11.4L.0,.0z" stroke-width="1" fill-rule="nonzero" stroke="#ffffff" fill="#ffffff" id="shape33"/><path d="M.0,.0L19.3,10.5L19.3,19.6L.0,8.9L.0,.0z" transform="translate(0.888810,1.866510)" stroke-width="1" fill-rule="nonzero" stroke="#5fb7f1" fill="#5fb7f1" id="shape34"/><path d="M.0,.0L18.5,9.9L18.5,18.2L.0,8.0L.0,.0z" transform="translate(1.337980,2.614260)" fill-rule="nonzero" fill="#ffffff" id="shape35" fill-opacity="0.29"/></g></g><g id="group36"><path d="M.0,.0L87.9,48.1L87.9,71.3L.0,23.2L.0,.0z" transform="translate(0.000000,44.029900)" stroke-width="0.5" fill-rule="nonzero" stroke="#d6d8df" fill="#d6d8df" id="shape37"/><path d="M.0,.0L81.8,44.2L81.8,67.4L.0,23.2L.0,.0z" transform="matrix(-1.000000,0.000000,0.000000,1.000000,169.683500,47.935700)" stroke-width="0.5" fill-rule="nonzero" stroke="#caccd3" fill="#caccd3" id="shape38"/><path d="M87.9,92.1L.0,44.0L81.8,.0L169.7,47.9L87.9,92.1z" stroke-width="0.5" fill-rule="nonzero" stroke="#e2e4e9" fill="#e2e4e9" id="shape39"/><path d="M.0,5.5C-0.2,2.7,1.3,.2,3.5,.0C5.6,-0.2,7.5,2.0,7.8,4.8C8.0,7.6,6.5,10.1,4.4,10.3C2.2,10.5,.3,8.3,.0,5.5z" transform="matrix(0.999391,-0.034899,0.034899,0.999391,74.867449,95.020850)" stroke-width="0.25" fill-rule="nonzero" stroke="#01acac" fill="#01acac" id="shape40"/><path d="M.0,4.4C-0.2,2.1,1.1,.2,2.8,.0C4.5,-0.1,6.0,1.6,6.2,3.8C6.4,6.1,5.2,8.0,3.5,8.2C1.8,8.3,.2,6.6,.0,4.4z" transform="matrix(0.999391,-0.034899,0.034899,0.999391,75.694338,96.032048)" stroke-width="0.4799999892711639" fill-rule="nonzero" stroke="#76d7d7" fill="#76d7d7" id="shape41"/><path d="M.0,3.7C-0.1,2.2,.4,.8,1.3,.0C1.3,.0,5.1,6.8,5.1,6.8C4.7,7.2,4.1,7.5,3.5,7.5C1.8,7.7,.3,6.0,.0,3.7z" transform="matrix(0.999391,-0.034899,0.034899,0.999391,75.678007,96.674729)" fill-rule="nonzero" fill="#ffffff" id="shape42" fill-opacity="0.29"/><path d="M.0,39.2L72.7,.0" transform="translate(92.701800,59.590600)" stroke-width="1" stroke-dasharray="11,5,2.5,5,2.5,5" stroke="#000000" fill="none" id="shape43"/><path d="M.0,39.2L72.7,.0" transform="translate(92.701800,63.766700)" stroke-width="1" stroke-dasharray="11,5,2.5,5,2.5,5" stroke="#000000" fill="none" id="shape44"/><g transform="translate(9.483900,54.110600)" id="group45"><path d="M.0,.0L21.4,11.5L21.4,23.4L.0,11.4L.0,.0z" stroke-width="1" fill-rule="nonzero" stroke="#ffffff" fill="#ffffff" id="shape46"/><path d="M.0,.0L19.3,10.5L19.3,19.6L.0,8.9L.0,.0z" transform="translate(0.888810,1.866510)" stroke-width="1" fill-rule="nonzero" stroke="#5fb7f1" fill="#5fb7f1" id="shape47"/><path d="M.0,.0L18.5,9.9L18.5,18.2L.0,8.0L.0,.0z" transform="translate(1.337980,2.614260)" fill-rule="nonzero" fill="#ffffff" id="shape48" fill-opacity="0.29"/></g><g transform="translate(41.332900,72.405800)" id="group49"><path d="M.0,.0L21.4,11.5L21.4,23.4L.0,11.4L.0,.0z" stroke-width="1" fill-rule="nonzero" stroke="#ffffff" fill="#ffffff" id="shape50"/><path d="M.0,.0L19.3,10.5L19.3,19.6L.0,8.9L.0,.0z" transform="translate(0.888810,1.866510)" stroke-width="1" fill-rule="nonzero" stroke="#5fb7f1" fill="#5fb7f1" id="shape51"/><path d="M.0,.0L18.5,9.9L18.5,18.2L.0,8.0L.0,.0z" transform="translate(1.337980,2.614260)" fill-rule="nonzero" fill="#ffffff" id="shape52" fill-opacity="0.29"/></g></g></g><g transform="translate(25.292862,356.802000)" id="group53"><g transform="translate(161.575200,-0.000100)" id="group54"><g transform="translate(0.000000,14.714400)" id="group55"><path d="M.0,.0L54.7,21.4L54.7,30.7L.0,9.3L.0,.0z" transform="translate(0.000000,19.592600)" stroke-width="0.5" fill-rule="nonzero" stroke="#d6d8df" fill="#d6d8df" id="shape56"/><path d="M.0,.0L47.9,18.9" transform="translate(0.217800,24.714470)" stroke-width="1" stroke-dasharray="3.8,1.2" stroke="#000000" fill="none" id="shape57"/><path d="M.0,.0L10.8,4.2L10.8,8.4L.0,4.1L.0,.0z" transform="translate(21.105950,30.860070)" stroke-width="1" fill-rule="nonzero" stroke="#ffffff" fill="#ffffff" id="shape58"/><path d="M.0,.0L50.9,19.6L50.9,29.0L.0,9.3L.0,.0z" transform="matrix(-1.000000,0.000000,0.000000,1.000000,105.549600,21.330700)" stroke-width="0.5" fill-rule="nonzero" stroke="#caccd3" fill="#caccd3" id="shape59"/><path d="M54.7,41.0L.0,19.6L50.9,.0L105.5,21.3L54.7,41.0z" stroke-width="0.5" fill-rule="nonzero" stroke="#e2e4e9" fill="#e2e4e9" id="shape60"/><path d="M.0,.0L9.7,3.8L9.7,7.1L.0,3.2L.0,.0z" transform="translate(21.553860,31.533130)" stroke-width="1" fill-rule="nonzero" stroke="#62bc85" fill="#62bc85" id="shape61"/><path d="M.0,2.4C-0.1,1.2,.8,.1,2.2,.0C3.5,-0.1,4.7,.9,4.9,2.1C5.0,3.4,4.1,4.5,2.7,4.6C1.4,4.7,.2,3.7,.0,2.4z" transform="matrix(0.999391,-0.034899,0.034899,0.999391,46.596162,41.291887)" stroke-width="0.25" fill-rule="nonzero" stroke="#e85464" fill="#e85464" id="shape62"/><path d="M.0,2.0C-0.1,.9,.7,.1,1.7,.0C2.8,-0.1,3.8,.7,3.9,1.7C4.0,2.7,3.2,3.6,2.2,3.7C1.1,3.7,.1,3.0,.0,2.0z" transform="matrix(0.999391,-0.034899,0.034899,0.999391,47.105329,41.738099)" stroke-width="0.4799999892711639" fill-rule="nonzero" stroke="#ff7878" fill="#ff7878" id="shape63"/><path d="M.0,1.7C-0.0,1.0,.3,.4,.8,.0C.8,.0,3.2,3.0,3.2,3.0C2.9,3.2,2.6,3.3,2.2,3.4C1.1,3.4,.2,2.7,.0,1.7z" transform="matrix(0.999391,-0.034899,0.034899,0.999391,47.094033,42.021278)" fill-rule="nonzero" fill="#ffffff" id="shape64" fill-opacity="0.12"/><path d="M.0,.0L9.3,3.6L9.3,6.6L.0,2.9L.0,.0z" transform="translate(21.780240,31.802750)" fill-rule="nonzero" fill="#ffffff" id="shape65" fill-opacity="0.29"/></g><g id="group66"><path d="M.0,.0L54.7,21.4L54.7,30.7L.0,9.3L.0,.0z" transform="translate(0.000000,19.592600)" stroke-width="0.5" fill-rule="nonzero" stroke="#d6d8df" fill="#d6d8df" id="shape67"/><path d="M.0,.0L47.9,18.9" transform="translate(0.217800,24.714470)" stroke-width="1" stroke-dasharray="3.8,1.2" stroke="#000000" fill="none" id="shape68"/><path d="M.0,.0L10.8,4.2L10.8,8.4L.0,4.1L.0,.0z" transform="translate(21.105950,30.860070)" stroke-width="1" fill-rule="nonzero" stroke="#ffffff" fill="#ffffff" id="shape69"/><path d="M.0,.0L50.9,19.6L50.9,29.0L.0,9.3L.0,.0z" transform="matrix(-1.000000,0.000000,0.000000,1.000000,105.549600,21.330700)" stroke-width="0.5" fill-rule="nonzero" stroke="#caccd3" fill="#caccd3" id="shape70"/><path d="M54.7,41.0L.0,19.6L50.9,.0L105.5,21.3L54.7,41.0z" stroke-width="0.5" fill-rule="nonzero" stroke="#e2e4e9" fill="#e2e4e9" id="shape71"/><path d="M.0,.0L9.7,3.8L9.7,7.1L.0,3.2L.0,.0z" transform="translate(21.553860,31.533130)" stroke-width="1" fill-rule="nonzero" stroke="#62bc85" fill="#62bc85" id="shape72"/><path d="M.0,2.4C-0.1,1.2,.8,.1,2.2,.0C3.5,-0.1,4.7,.9,4.9,2.1C5.0,3.4,4.1,4.5,2.7,4.6C1.4,4.7,.2,3.7,.0,2.4z" transform="matrix(0.999391,-0.034899,0.034899,0.999391,46.596162,41.291887)" stroke-width="0.25" fill-rule="nonzero" stroke="#e85464" fill="#e85464" id="shape73"/><path d="M.0,2.0C-0.1,.9,.7,.1,1.7,.0C2.8,-0.1,3.8,.7,3.9,1.7C4.0,2.7,3.2,3.6,2.2,3.7C1.1,3.7,.1,3.0,.0,2.0z" transform="matrix(0.999391,-0.034899,0.034899,0.999391,47.105329,41.738099)" stroke-width="0.4799999892711639" fill-rule="nonzero" stroke="#ff7878" fill="#ff7878" id="shape74"/><path d="M.0,1.7C-0.0,1.0,.3,.4,.8,.0C.8,.0,3.2,3.0,3.2,3.0C2.9,3.2,2.6,3.3,2.2,3.4C1.1,3.4,.2,2.7,.0,1.7z" transform="matrix(0.999391,-0.034899,0.034899,0.999391,47.094033,42.021278)" fill-rule="nonzero" fill="#ffffff" id="shape75" fill-opacity="0.12"/><path d="M.0,.0L9.3,3.6L9.3,6.6L.0,2.9L.0,.0z" transform="translate(21.780240,31.802750)" fill-rule="nonzero" fill="#ffffff" id="shape76" fill-opacity="0.29"/></g></g><g transform="translate(154.745500,108.602100)" id="group77"><path d="M.0,.0L61.7,24.1L61.7,34.5L.0,10.5L.0,.0z" transform="translate(0.000000,22.047500)" stroke-width="0.5" fill-rule="nonzero" stroke="#d6d8df" fill="#d6d8df" id="shape78"/><path d="M.0,.0L54.1,21.3" transform="translate(0.246000,27.811100)" stroke-width="1" stroke-dasharray="3.8,1.2" stroke="#000000" fill="none" id="shape79"/><path d="M.0,.0L12.2,4.7L12.2,9.5L.0,4.6L.0,.0z" transform="translate(23.837290,34.726770)" stroke-width="1" fill-rule="nonzero" stroke="#ffffff" fill="#ffffff" id="shape80"/><path d="M.0,.0L57.5,22.1L57.5,32.6L.0,10.5L.0,.0z" transform="matrix(-1.000000,0.000000,0.000000,1.000000,119.209000,24.003300)" stroke-width="0.5" fill-rule="nonzero" stroke="#caccd3" fill="#caccd3" id="shape81"/><path d="M61.7,46.1L.0,22.0L57.5,.0L119.2,24.0L61.7,46.1z" stroke-width="0.5" fill-rule="nonzero" stroke="#e2e4e9" fill="#e2e4e9" id="shape82"/><path d="M.0,.0L11.0,4.2L11.0,8.0L.0,3.6L.0,.0z" transform="translate(24.343180,35.484170)" stroke-width="1" fill-rule="nonzero" stroke="#62bc85" fill="#62bc85" id="shape83"/><path d="M.0,2.8C-0.2,1.3,.9,.1,2.4,.0C3.9,-0.1,5.3,1.0,5.5,2.4C5.7,3.8,4.6,5.1,3.1,5.2C1.6,5.2,.2,4.2,.0,2.8z" transform="matrix(0.999391,-0.034899,0.034899,0.999391,52.626589,46.465907)" stroke-width="0.25" fill-rule="nonzero" stroke="#e85464" fill="#e85464" id="shape84"/><path d="M.0,2.2C-0.1,1.1,.7,.1,1.9,.0C3.1,-0.1,4.2,.8,4.4,1.9C4.5,3.1,3.6,4.0,2.4,4.1C1.2,4.2,.2,3.3,.0,2.2z" transform="matrix(0.999391,-0.034899,0.034899,0.999391,53.201576,46.968006)" stroke-width="0.4799999892711639" fill-rule="nonzero" stroke="#ff7878" fill="#ff7878" id="shape85"/><path d="M.0,1.9C-0.1,1.1,.3,.4,.9,.0C.9,.0,3.6,3.4,3.6,3.4C3.3,3.6,2.9,3.8,2.5,3.8C1.3,3.9,.2,3.0,.0,1.9z" transform="matrix(0.999391,-0.034899,0.034899,0.999391,53.188828,47.286509)" fill-rule="nonzero" fill="#ffffff" id="shape86" fill-opacity="0.12"/><path d="M.0,.0L10.5,4.0L10.5,7.4L.0,3.3L.0,.0z" transform="translate(24.598830,35.787590)" fill-rule="nonzero" fill="#ffffff" id="shape87" fill-opacity="0.29"/></g><g transform="translate(-0.000200,60.419600)" id="group88"><path d="M.0,.0L61.7,24.1L61.7,34.5L.0,10.5L.0,.0z" transform="translate(0.000000,22.047500)" stroke-width="0.5" fill-rule="nonzero" stroke="#d6d8df" fill="#d6d8df" id="shape89"/><path d="M.0,.0L54.1,21.3" transform="translate(0.246000,27.811100)" stroke-width="1" stroke-dasharray="3.8,1.2" stroke="#000000" fill="none" id="shape90"/><path d="M.0,.0L12.2,4.7L12.2,9.5L.0,4.6L.0,.0z" transform="translate(23.837290,34.726770)" stroke-width="1" fill-rule="nonzero" stroke="#ffffff" fill="#ffffff" id="shape91"/><path d="M.0,.0L57.5,22.1L57.5,32.6L.0,10.5L.0,.0z" transform="matrix(-1.000000,0.000000,0.000000,1.000000,119.209000,24.003300)" stroke-width="0.5" fill-rule="nonzero" stroke="#caccd3" fill="#caccd3" id="shape92"/><path d="M61.7,46.1L.0,22.0L57.5,.0L119.2,24.0L61.7,46.1z" stroke-width="0.5" fill-rule="nonzero" stroke="#e2e4e9" fill="#e2e4e9" id="shape93"/><path d="M.0,.0L11.0,4.2L11.0,8.0L.0,3.6L.0,.0z" transform="translate(24.343180,35.484170)" stroke-width="1" fill-rule="nonzero" stroke="#62bc85" fill="#62bc85" id="shape94"/><path d="M.0,2.8C-0.2,1.3,.9,.1,2.4,.0C3.9,-0.1,5.3,1.0,5.5,2.4C5.7,3.8,4.6,5.1,3.1,5.2C1.6,5.2,.2,4.2,.0,2.8z" transform="matrix(0.999391,-0.034899,0.034899,0.999391,52.626589,46.465907)" stroke-width="0.25" fill-rule="nonzero" stroke="#e85464" fill="#e85464" id="shape95"/><path d="M.0,2.2C-0.1,1.1,.7,.1,1.9,.0C3.1,-0.1,4.2,.8,4.4,1.9C4.5,3.1,3.6,4.0,2.4,4.1C1.2,4.2,.2,3.3,.0,2.2z" transform="matrix(0.999391,-0.034899,0.034899,0.999391,53.201576,46.968006)" stroke-width="0.4799999892711639" fill-rule="nonzero" stroke="#ff7878" fill="#ff7878" id="shape96"/><path d="M.0,1.9C-0.1,1.1,.3,.4,.9,.0C.9,.0,3.6,3.4,3.6,3.4C3.3,3.6,2.9,3.8,2.5,3.8C1.3,3.9,.2,3.0,.0,1.9z" transform="matrix(0.999391,-0.034899,0.034899,0.999391,53.188828,47.286509)" fill-rule="nonzero" fill="#ffffff" id="shape97" fill-opacity="0.12"/><path d="M.0,.0L10.5,4.0L10.5,7.4L.0,3.3L.0,.0z" transform="translate(24.598830,35.787590)" fill-rule="nonzero" fill="#ffffff" id="shape98" fill-opacity="0.29"/></g><g transform="translate(261.423500,60.419600)" id="group99"><path d="M.0,.0L61.7,24.1L61.7,34.5L.0,10.5L.0,.0z" transform="translate(0.000000,22.047500)" stroke-width="0.5" fill-rule="nonzero" stroke="#d6d8df" fill="#d6d8df" id="shape100"/><path d="M.0,.0L54.1,21.3" transform="translate(0.246000,27.811100)" stroke-width="1" stroke-dasharray="3.8,1.2" stroke="#000000" fill="none" id="shape101"/><path d="M.0,.0L12.2,4.7L12.2,9.5L.0,4.6L.0,.0z" transform="translate(23.837290,34.726770)" stroke-width="1" fill-rule="nonzero" stroke="#ffffff" fill="#ffffff" id="shape102"/><path d="M.0,.0L57.5,22.1L57.5,32.6L.0,10.5L.0,.0z" transform="matrix(-1.000000,0.000000,0.000000,1.000000,119.209000,24.003300)" stroke-width="0.5" fill-rule="nonzero" stroke="#caccd3" fill="#caccd3" id="shape103"/><path d="M61.7,46.1L.0,22.0L57.5,.0L119.2,24.0L61.7,46.1z" stroke-width="0.5" fill-rule="nonzero" stroke="#e2e4e9" fill="#e2e4e9" id="shape104"/><path d="M.0,.0L11.0,4.2L11.0,8.0L.0,3.6L.0,.0z" transform="translate(24.343180,35.484170)" stroke-width="1" fill-rule="nonzero" stroke="#62bc85" fill="#62bc85" id="shape105"/><path d="M.0,2.8C-0.2,1.3,.9,.1,2.4,.0C3.9,-0.1,5.3,1.0,5.5,2.4C5.7,3.8,4.6,5.1,3.1,5.2C1.6,5.2,.2,4.2,.0,2.8z" transform="matrix(0.999391,-0.034899,0.034899,0.999391,52.626589,46.465907)" stroke-width="0.25" fill-rule="nonzero" stroke="#e85464" fill="#e85464" id="shape106"/><path d="M.0,2.2C-0.1,1.1,.7,.1,1.9,.0C3.1,-0.1,4.2,.8,4.4,1.9C4.5,3.1,3.6,4.0,2.4,4.1C1.2,4.2,.2,3.3,.0,2.2z" transform="matrix(0.999391,-0.034899,0.034899,0.999391,53.201576,46.968006)" stroke-width="0.4799999892711639" fill-rule="nonzero" stroke="#ff7878" fill="#ff7878" id="shape107"/><path d="M.0,1.9C-0.1,1.1,.3,.4,.9,.0C.9,.0,3.6,3.4,3.6,3.4C3.3,3.6,2.9,3.8,2.5,3.8C1.3,3.9,.2,3.0,.0,1.9z" transform="matrix(0.999391,-0.034899,0.034899,0.999391,53.188828,47.286509)" fill-rule="nonzero" fill="#ffffff" id="shape108" fill-opacity="0.12"/><path d="M.0,.0L10.5,4.0L10.5,7.4L.0,3.3L.0,.0z" transform="translate(24.598830,35.787590)" fill-rule="nonzero" fill="#ffffff" id="shape109" fill-opacity="0.29"/></g><path d="M.0,-0.0L76.9,-0.0" transform="matrix(-0.917693,0.397291,-0.397291,-0.917693,161.575200,43.621790)" stroke-width="2" stroke="#4bacc6" fill="none" id="shape110"/><path d="M.0,-0.0L65.6,-0.0" transform="matrix(-0.941040,0.338295,-0.338295,-0.941040,279.199865,100.189503)" stroke-width="2" stroke="#4bacc6" fill="none" id="shape111"/><path d="M.0,-0.0L74.7,-0.0" transform="matrix(-0.961681,-0.274170,0.274170,-0.961681,166.065100,126.306242)" stroke-width="2" stroke="#4bacc6" fill="none" id="shape112"/><path d="M.0,-0.0L69.0,-0.0" transform="matrix(-0.954125,-0.299407,0.299407,-0.954125,284.428252,74.186117)" stroke-width="2" stroke="#4bacc6" fill="none" id="shape113"/></g><g transform="translate(378.955000,544.298900)" id="group114"><g id="group115"><g transform="translate(132.313200,-0.000100)" id="group116"><g transform="translate(0.000000,14.714400)" id="group117"><path d="M.0,.0L54.7,21.4L54.7,30.7L.0,9.3L.0,.0z" transform="translate(0.000000,19.592600)" stroke-width="0.5" fill-rule="nonzero" stroke="#d6d8df" fill="#d6d8df" id="shape118"/><path d="M.0,.0L47.9,18.9" transform="translate(0.217800,24.714470)" stroke-width="1" stroke-dasharray="3.8,1.2" stroke="#000000" fill="none" id="shape119"/><path d="M.0,.0L10.8,4.2L10.8,8.4L.0,4.1L.0,.0z" transform="translate(21.105950,30.860070)" stroke-width="1" fill-rule="nonzero" stroke="#ffffff" fill="#ffffff" id="shape120"/><path d="M.0,.0L50.9,19.6L50.9,29.0L.0,9.3L.0,.0z" transform="matrix(-1.000000,0.000000,0.000000,1.000000,105.549600,21.330700)" stroke-width="0.5" fill-rule="nonzero" stroke="#caccd3" fill="#caccd3" id="shape121"/><path d="M54.7,41.0L.0,19.6L50.9,.0L105.5,21.3L54.7,41.0z" stroke-width="0.5" fill-rule="nonzero" stroke="#e2e4e9" fill="#e2e4e9" id="shape122"/><path d="M.0,.0L9.7,3.8L9.7,7.1L.0,3.2L.0,.0z" transform="translate(21.553860,31.533130)" stroke-width="1" fill-rule="nonzero" stroke="#62bc85" fill="#62bc85" id="shape123"/><path d="M.0,2.4C-0.1,1.2,.8,.1,2.2,.0C3.5,-0.1,4.7,.9,4.9,2.1C5.0,3.4,4.1,4.5,2.7,4.6C1.4,4.7,.2,3.7,.0,2.4z" transform="matrix(0.999391,-0.034899,0.034899,0.999391,46.596162,41.291887)" stroke-width="0.25" fill-rule="nonzero" stroke="#e85464" fill="#e85464" id="shape124"/><path d="M.0,2.0C-0.1,.9,.7,.1,1.7,.0C2.8,-0.1,3.8,.7,3.9,1.7C4.0,2.7,3.2,3.6,2.2,3.7C1.1,3.7,.1,3.0,.0,2.0z" transform="matrix(0.999391,-0.034899,0.034899,0.999391,47.105329,41.738099)" stroke-width="0.4799999892711639" fill-rule="nonzero" stroke="#ff7878" fill="#ff7878" id="shape125"/><path d="M.0,1.7C-0.0,1.0,.3,.4,.8,.0C.8,.0,3.2,3.0,3.2,3.0C2.9,3.2,2.6,3.3,2.2,3.4C1.1,3.4,.2,2.7,.0,1.7z" transform="matrix(0.999391,-0.034899,0.034899,0.999391,47.094033,42.021278)" fill-rule="nonzero" fill="#ffffff" id="shape126" fill-opacity="0.12"/><path d="M.0,.0L9.3,3.6L9.3,6.6L.0,2.9L.0,.0z" transform="translate(21.780240,31.802750)" fill-rule="nonzero" fill="#ffffff" id="shape127" fill-opacity="0.29"/></g><g id="group128"><path d="M.0,.0L54.7,21.4L54.7,30.7L.0,9.3L.0,.0z" transform="translate(0.000000,19.592600)" stroke-width="0.5" fill-rule="nonzero" stroke="#d6d8df" fill="#d6d8df" id="shape129"/><path d="M.0,.0L47.9,18.9" transform="translate(0.217800,24.714470)" stroke-width="1" stroke-dasharray="3.8,1.2" stroke="#000000" fill="none" id="shape130"/><path d="M.0,.0L10.8,4.2L10.8,8.4L.0,4.1L.0,.0z" transform="translate(21.105950,30.860070)" stroke-width="1" fill-rule="nonzero" stroke="#ffffff" fill="#ffffff" id="shape131"/><path d="M.0,.0L50.9,19.6L50.9,29.0L.0,9.3L.0,.0z" transform="matrix(-1.000000,0.000000,0.000000,1.000000,105.549600,21.330700)" stroke-width="0.5" fill-rule="nonzero" stroke="#caccd3" fill="#caccd3" id="shape132"/><path d="M54.7,41.0L.0,19.6L50.9,.0L105.5,21.3L54.7,41.0z" stroke-width="0.5" fill-rule="nonzero" stroke="#e2e4e9" fill="#e2e4e9" id="shape133"/><path d="M.0,.0L9.7,3.8L9.7,7.1L.0,3.2L.0,.0z" transform="translate(21.553860,31.533130)" stroke-width="1" fill-rule="nonzero" stroke="#62bc85" fill="#62bc85" id="shape134"/><path d="M.0,2.4C-0.1,1.2,.8,.1,2.2,.0C3.5,-0.1,4.7,.9,4.9,2.1C5.0,3.4,4.1,4.5,2.7,4.6C1.4,4.7,.2,3.7,.0,2.4z" transform="matrix(0.999391,-0.034899,0.034899,0.999391,46.596162,41.291887)" stroke-width="0.25" fill-rule="nonzero" stroke="#e85464" fill="#e85464" id="shape135"/><path d="M.0,2.0C-0.1,.9,.7,.1,1.7,.0C2.8,-0.1,3.8,.7,3.9,1.7C4.0,2.7,3.2,3.6,2.2,3.7C1.1,3.7,.1,3.0,.0,2.0z" transform="matrix(0.999391,-0.034899,0.034899,0.999391,47.105329,41.738099)" stroke-width="0.4799999892711639" fill-rule="nonzero" stroke="#ff7878" fill="#ff7878" id="shape136"/><path d="M.0,1.7C-0.0,1.0,.3,.4,.8,.0C.8,.0,3.2,3.0,3.2,3.0C2.9,3.2,2.6,3.3,2.2,3.4C1.1,3.4,.2,2.7,.0,1.7z" transform="matrix(0.999391,-0.034899,0.034899,0.999391,47.094033,42.021278)" fill-rule="nonzero" fill="#ffffff" id="shape137" fill-opacity="0.12"/><path d="M.0,.0L9.3,3.6L9.3,6.6L.0,2.9L.0,.0z" transform="translate(21.780240,31.802750)" fill-rule="nonzero" fill="#ffffff" id="shape138" fill-opacity="0.29"/></g></g><g transform="translate(125.483500,108.602100)" id="group139"><path d="M.0,.0L61.7,24.1L61.7,34.5L.0,10.5L.0,.0z" transform="translate(0.000000,22.047500)" stroke-width="0.5" fill-rule="nonzero" stroke="#d6d8df" fill="#d6d8df" id="shape140"/><path d="M.0,.0L54.1,21.3" transform="translate(0.246000,27.811100)" stroke-width="1" stroke-dasharray="3.8,1.2" stroke="#000000" fill="none" id="shape141"/><path d="M.0,.0L12.2,4.7L12.2,9.5L.0,4.6L.0,.0z" transform="translate(23.837290,34.726770)" stroke-width="1" fill-rule="nonzero" stroke="#ffffff" fill="#ffffff" id="shape142"/><path d="M.0,.0L57.5,22.1L57.5,32.6L.0,10.5L.0,.0z" transform="matrix(-1.000000,0.000000,0.000000,1.000000,119.209000,24.003300)" stroke-width="0.5" fill-rule="nonzero" stroke="#caccd3" fill="#caccd3" id="shape143"/><path d="M61.7,46.1L.0,22.0L57.5,.0L119.2,24.0L61.7,46.1z" stroke-width="0.5" fill-rule="nonzero" stroke="#e2e4e9" fill="#e2e4e9" id="shape144"/><path d="M.0,.0L11.0,4.2L11.0,8.0L.0,3.6L.0,.0z" transform="translate(24.343180,35.484170)" stroke-width="1" fill-rule="nonzero" stroke="#62bc85" fill="#62bc85" id="shape145"/><path d="M.0,2.8C-0.2,1.3,.9,.1,2.4,.0C3.9,-0.1,5.3,1.0,5.5,2.4C5.7,3.8,4.6,5.1,3.1,5.2C1.6,5.2,.2,4.2,.0,2.8z" transform="matrix(0.999391,-0.034899,0.034899,0.999391,52.626589,46.465907)" stroke-width="0.25" fill-rule="nonzero" stroke="#e85464" fill="#e85464" id="shape146"/><path d="M.0,2.2C-0.1,1.1,.7,.1,1.9,.0C3.1,-0.1,4.2,.8,4.4,1.9C4.5,3.1,3.6,4.0,2.4,4.1C1.2,4.2,.2,3.3,.0,2.2z" transform="matrix(0.999391,-0.034899,0.034899,0.999391,53.201576,46.968006)" stroke-width="0.4799999892711639" fill-rule="nonzero" stroke="#ff7878" fill="#ff7878" id="shape147"/><path d="M.0,1.9C-0.1,1.1,.3,.4,.9,.0C.9,.0,3.6,3.4,3.6,3.4C3.3,3.6,2.9,3.8,2.5,3.8C1.3,3.9,.2,3.0,.0,1.9z" transform="matrix(0.999391,-0.034899,0.034899,0.999391,53.188828,47.286509)" fill-rule="nonzero" fill="#ffffff" id="shape148" fill-opacity="0.12"/><path d="M.0,.0L10.5,4.0L10.5,7.4L.0,3.3L.0,.0z" transform="translate(24.598830,35.787590)" fill-rule="nonzero" fill="#ffffff" id="shape149" fill-opacity="0.29"/></g><g transform="translate(-0.000200,60.419600)" id="group150"><path d="M.0,.0L61.7,24.1L61.7,34.5L.0,10.5L.0,.0z" transform="translate(0.000000,22.047500)" stroke-width="0.5" fill-rule="nonzero" stroke="#d6d8df" fill="#d6d8df" id="shape151"/><path d="M.0,.0L54.1,21.3" transform="translate(0.246000,27.811100)" stroke-width="1" stroke-dasharray="3.8,1.2" stroke="#000000" fill="none" id="shape152"/><path d="M.0,.0L12.2,4.7L12.2,9.5L.0,4.6L.0,.0z" transform="translate(23.837290,34.726770)" stroke-width="1" fill-rule="nonzero" stroke="#ffffff" fill="#ffffff" id="shape153"/><path d="M.0,.0L57.5,22.1L57.5,32.6L.0,10.5L.0,.0z" transform="matrix(-1.000000,0.000000,0.000000,1.000000,119.209000,24.003300)" stroke-width="0.5" fill-rule="nonzero" stroke="#caccd3" fill="#caccd3" id="shape154"/><path d="M61.7,46.1L.0,22.0L57.5,.0L119.2,24.0L61.7,46.1z" stroke-width="0.5" fill-rule="nonzero" stroke="#e2e4e9" fill="#e2e4e9" id="shape155"/><path d="M.0,.0L11.0,4.2L11.0,8.0L.0,3.6L.0,.0z" transform="translate(24.343180,35.484170)" stroke-width="1" fill-rule="nonzero" stroke="#62bc85" fill="#62bc85" id="shape156"/><path d="M.0,2.8C-0.2,1.3,.9,.1,2.4,.0C3.9,-0.1,5.3,1.0,5.5,2.4C5.7,3.8,4.6,5.1,3.1,5.2C1.6,5.2,.2,4.2,.0,2.8z" transform="matrix(0.999391,-0.034899,0.034899,0.999391,52.626589,46.465907)" stroke-width="0.25" fill-rule="nonzero" stroke="#e85464" fill="#e85464" id="shape157"/><path d="M.0,2.2C-0.1,1.1,.7,.1,1.9,.0C3.1,-0.1,4.2,.8,4.4,1.9C4.5,3.1,3.6,4.0,2.4,4.1C1.2,4.2,.2,3.3,.0,2.2z" transform="matrix(0.999391,-0.034899,0.034899,0.999391,53.201576,46.968006)" stroke-width="0.4799999892711639" fill-rule="nonzero" stroke="#ff7878" fill="#ff7878" id="shape158"/><path d="M.0,1.9C-0.1,1.1,.3,.4,.9,.0C.9,.0,3.6,3.4,3.6,3.4C3.3,3.6,2.9,3.8,2.5,3.8C1.3,3.9,.2,3.0,.0,1.9z" transform="matrix(0.999391,-0.034899,0.034899,0.999391,53.188828,47.286509)" fill-rule="nonzero" fill="#ffffff" id="shape159" fill-opacity="0.12"/><path d="M.0,.0L10.5,4.0L10.5,7.4L.0,3.3L.0,.0z" transform="translate(24.598830,35.787590)" fill-rule="nonzero" fill="#ffffff" id="shape160" fill-opacity="0.29"/></g><g transform="translate(261.423500,60.419600)" id="group161"><path d="M.0,.0L61.7,24.1L61.7,34.5L.0,10.5L.0,.0z" transform="translate(0.000000,22.047500)" stroke-width="0.5" fill-rule="nonzero" stroke="#d6d8df" fill="#d6d8df" id="shape162"/><path d="M.0,.0L54.1,21.3" transform="translate(0.246000,27.811100)" stroke-width="1" stroke-dasharray="3.8,1.2" stroke="#000000" fill="none" id="shape163"/><path d="M.0,.0L12.2,4.7L12.2,9.5L.0,4.6L.0,.0z" transform="translate(23.837290,34.726770)" stroke-width="1" fill-rule="nonzero" stroke="#ffffff" fill="#ffffff" id="shape164"/><path d="M.0,.0L57.5,22.1L57.5,32.6L.0,10.5L.0,.0z" transform="matrix(-1.000000,0.000000,0.000000,1.000000,119.209000,24.003300)" stroke-width="0.5" fill-rule="nonzero" stroke="#caccd3" fill="#caccd3" id="shape165"/><path d="M61.7,46.1L.0,22.0L57.5,.0L119.2,24.0L61.7,46.1z" stroke-width="0.5" fill-rule="nonzero" stroke="#e2e4e9" fill="#e2e4e9" id="shape166"/><path d="M.0,.0L11.0,4.2L11.0,8.0L.0,3.6L.0,.0z" transform="translate(24.343180,35.484170)" stroke-width="1" fill-rule="nonzero" stroke="#62bc85" fill="#62bc85" id="shape167"/><path d="M.0,2.8C-0.2,1.3,.9,.1,2.4,.0C3.9,-0.1,5.3,1.0,5.5,2.4C5.7,3.8,4.6,5.1,3.1,5.2C1.6,5.2,.2,4.2,.0,2.8z" transform="matrix(0.999391,-0.034899,0.034899,0.999391,52.626589,46.465907)" stroke-width="0.25" fill-rule="nonzero" stroke="#e85464" fill="#e85464" id="shape168"/><path d="M.0,2.2C-0.1,1.1,.7,.1,1.9,.0C3.1,-0.1,4.2,.8,4.4,1.9C4.5,3.1,3.6,4.0,2.4,4.1C1.2,4.2,.2,3.3,.0,2.2z" transform="matrix(0.999391,-0.034899,0.034899,0.999391,53.201576,46.968006)" stroke-width="0.4799999892711639" fill-rule="nonzero" stroke="#ff7878" fill="#ff7878" id="shape169"/><path d="M.0,1.9C-0.1,1.1,.3,.4,.9,.0C.9,.0,3.6,3.4,3.6,3.4C3.3,3.6,2.9,3.8,2.5,3.8C1.3,3.9,.2,3.0,.0,1.9z" transform="matrix(0.999391,-0.034899,0.034899,0.999391,53.188828,47.286509)" fill-rule="nonzero" fill="#ffffff" id="shape170" fill-opacity="0.12"/><path d="M.0,.0L10.5,4.0L10.5,7.4L.0,3.3L.0,.0z" transform="translate(24.598830,35.787590)" fill-rule="nonzero" fill="#ffffff" id="shape171" fill-opacity="0.29"/></g></g><path d="M.0,-0.0L65.6,-0.0" transform="matrix(-0.941040,0.338295,-0.338295,-0.941040,152.670959,52.006969)" stroke-width="2" stroke="#4bacc6" fill="none" id="shape172"/><path d="M.0,-0.0L65.6,-0.0" transform="matrix(-0.941040,0.338295,-0.338295,-0.941040,279.199865,100.189503)" stroke-width="2" stroke="#4bacc6" fill="none" id="shape173"/><path d="M.0,-0.0L50.3,-0.0" transform="matrix(-0.914084,-0.405525,0.405525,-0.914084,140.122193,126.193614)" stroke-width="2" stroke="#4bacc6" fill="none" id="shape174"/><path d="M.0,-0.0L69.0,-0.0" transform="matrix(-0.954125,-0.299407,0.299407,-0.954125,284.428252,74.186117)" stroke-width="2" stroke="#4bacc6" fill="none" id="shape175"/></g><g transform="translate(722.161138,368.693198)" id="group176"><g id="group177"><g transform="translate(132.313200,-0.000100)" id="group178"><g transform="translate(0.000000,14.714400)" id="group179"><path d="M.0,.0L54.7,21.4L54.7,30.7L.0,9.3L.0,.0z" transform="translate(0.000000,19.592600)" stroke-width="0.5" fill-rule="nonzero" stroke="#d6d8df" fill="#d6d8df" id="shape180"/><path d="M.0,.0L47.9,18.9" transform="translate(0.217800,24.714470)" stroke-width="1" stroke-dasharray="3.8,1.2" stroke="#000000" fill="none" id="shape181"/><path d="M.0,.0L10.8,4.2L10.8,8.4L.0,4.1L.0,.0z" transform="translate(21.105950,30.860070)" stroke-width="1" fill-rule="nonzero" stroke="#ffffff" fill="#ffffff" id="shape182"/><path d="M.0,.0L50.9,19.6L50.9,29.0L.0,9.3L.0,.0z" transform="matrix(-1.000000,0.000000,0.000000,1.000000,105.549600,21.330700)" stroke-width="0.5" fill-rule="nonzero" stroke="#caccd3" fill="#caccd3" id="shape183"/><path d="M54.7,41.0L.0,19.6L50.9,.0L105.5,21.3L54.7,41.0z" stroke-width="0.5" fill-rule="nonzero" stroke="#e2e4e9" fill="#e2e4e9" id="shape184"/><path d="M.0,.0L9.7,3.8L9.7,7.1L.0,3.2L.0,.0z" transform="translate(21.553860,31.533130)" stroke-width="1" fill-rule="nonzero" stroke="#62bc85" fill="#62bc85" id="shape185"/><path d="M.0,2.4C-0.1,1.2,.8,.1,2.2,.0C3.5,-0.1,4.7,.9,4.9,2.1C5.0,3.4,4.1,4.5,2.7,4.6C1.4,4.7,.2,3.7,.0,2.4z" transform="matrix(0.999391,-0.034899,0.034899,0.999391,46.596162,41.291887)" stroke-width="0.25" fill-rule="nonzero" stroke="#e85464" fill="#e85464" id="shape186"/><path d="M.0,2.0C-0.1,.9,.7,.1,1.7,.0C2.8,-0.1,3.8,.7,3.9,1.7C4.0,2.7,3.2,3.6,2.2,3.7C1.1,3.7,.1,3.0,.0,2.0z" transform="matrix(0.999391,-0.034899,0.034899,0.999391,47.105329,41.738099)" stroke-width="0.4799999892711639" fill-rule="nonzero" stroke="#ff7878" fill="#ff7878" id="shape187"/><path d="M.0,1.7C-0.0,1.0,.3,.4,.8,.0C.8,.0,3.2,3.0,3.2,3.0C2.9,3.2,2.6,3.3,2.2,3.4C1.1,3.4,.2,2.7,.0,1.7z" transform="matrix(0.999391,-0.034899,0.034899,0.999391,47.094033,42.021278)" fill-rule="nonzero" fill="#ffffff" id="shape188" fill-opacity="0.12"/><path d="M.0,.0L9.3,3.6L9.3,6.6L.0,2.9L.0,.0z" transform="translate(21.780240,31.802750)" fill-rule="nonzero" fill="#ffffff" id="shape189" fill-opacity="0.29"/></g><g id="group190"><path d="M.0,.0L54.7,21.4L54.7,30.7L.0,9.3L.0,.0z" transform="translate(0.000000,19.592600)" stroke-width="0.5" fill-rule="nonzero" stroke="#d6d8df" fill="#d6d8df" id="shape191"/><path d="M.0,.0L47.9,18.9" transform="translate(0.217800,24.714470)" stroke-width="1" stroke-dasharray="3.8,1.2" stroke="#000000" fill="none" id="shape192"/><path d="M.0,.0L10.8,4.2L10.8,8.4L.0,4.1L.0,.0z" transform="translate(21.105950,30.860070)" stroke-width="1" fill-rule="nonzero" stroke="#ffffff" fill="#ffffff" id="shape193"/><path d="M.0,.0L50.9,19.6L50.9,29.0L.0,9.3L.0,.0z" transform="matrix(-1.000000,0.000000,0.000000,1.000000,105.549600,21.330700)" stroke-width="0.5" fill-rule="nonzero" stroke="#caccd3" fill="#caccd3" id="shape194"/><path d="M54.7,41.0L.0,19.6L50.9,.0L105.5,21.3L54.7,41.0z" stroke-width="0.5" fill-rule="nonzero" stroke="#e2e4e9" fill="#e2e4e9" id="shape195"/><path d="M.0,.0L9.7,3.8L9.7,7.1L.0,3.2L.0,.0z" transform="translate(21.553860,31.533130)" stroke-width="1" fill-rule="nonzero" stroke="#62bc85" fill="#62bc85" id="shape196"/><path d="M.0,2.4C-0.1,1.2,.8,.1,2.2,.0C3.5,-0.1,4.7,.9,4.9,2.1C5.0,3.4,4.1,4.5,2.7,4.6C1.4,4.7,.2,3.7,.0,2.4z" transform="matrix(0.999391,-0.034899,0.034899,0.999391,46.596162,41.291887)" stroke-width="0.25" fill-rule="nonzero" stroke="#e85464" fill="#e85464" id="shape197"/><path d="M.0,2.0C-0.1,.9,.7,.1,1.7,.0C2.8,-0.1,3.8,.7,3.9,1.7C4.0,2.7,3.2,3.6,2.2,3.7C1.1,3.7,.1,3.0,.0,2.0z" transform="matrix(0.999391,-0.034899,0.034899,0.999391,47.105329,41.738099)" stroke-width="0.4799999892711639" fill-rule="nonzero" stroke="#ff7878" fill="#ff7878" id="shape198"/><path d="M.0,1.7C-0.0,1.0,.3,.4,.8,.0C.8,.0,3.2,3.0,3.2,3.0C2.9,3.2,2.6,3.3,2.2,3.4C1.1,3.4,.2,2.7,.0,1.7z" transform="matrix(0.999391,-0.034899,0.034899,0.999391,47.094033,42.021278)" fill-rule="nonzero" fill="#ffffff" id="shape199" fill-opacity="0.12"/><path d="M.0,.0L9.3,3.6L9.3,6.6L.0,2.9L.0,.0z" transform="translate(21.780240,31.802750)" fill-rule="nonzero" fill="#ffffff" id="shape200" fill-opacity="0.29"/></g></g><g transform="translate(125.483500,108.602100)" id="group201"><path d="M.0,.0L61.7,24.1L61.7,34.5L.0,10.5L.0,.0z" transform="translate(0.000000,22.047500)" stroke-width="0.5" fill-rule="nonzero" stroke="#d6d8df" fill="#d6d8df" id="shape202"/><path d="M.0,.0L54.1,21.3" transform="translate(0.246000,27.811100)" stroke-width="1" stroke-dasharray="3.8,1.2" stroke="#000000" fill="none" id="shape203"/><path d="M.0,.0L12.2,4.7L12.2,9.5L.0,4.6L.0,.0z" transform="translate(23.837290,34.726770)" stroke-width="1" fill-rule="nonzero" stroke="#ffffff" fill="#ffffff" id="shape204"/><path d="M.0,.0L57.5,22.1L57.5,32.6L.0,10.5L.0,.0z" transform="matrix(-1.000000,0.000000,0.000000,1.000000,119.209000,24.003300)" stroke-width="0.5" fill-rule="nonzero" stroke="#caccd3" fill="#caccd3" id="shape205"/><path d="M61.7,46.1L.0,22.0L57.5,.0L119.2,24.0L61.7,46.1z" stroke-width="0.5" fill-rule="nonzero" stroke="#e2e4e9" fill="#e2e4e9" id="shape206"/><path d="M.0,.0L11.0,4.2L11.0,8.0L.0,3.6L.0,.0z" transform="translate(24.343180,35.484170)" stroke-width="1" fill-rule="nonzero" stroke="#62bc85" fill="#62bc85" id="shape207"/><path d="M.0,2.8C-0.2,1.3,.9,.1,2.4,.0C3.9,-0.1,5.3,1.0,5.5,2.4C5.7,3.8,4.6,5.1,3.1,5.2C1.6,5.2,.2,4.2,.0,2.8z" transform="matrix(0.999391,-0.034899,0.034899,0.999391,52.626589,46.465907)" stroke-width="0.25" fill-rule="nonzero" stroke="#e85464" fill="#e85464" id="shape208"/><path d="M.0,2.2C-0.1,1.1,.7,.1,1.9,.0C3.1,-0.1,4.2,.8,4.4,1.9C4.5,3.1,3.6,4.0,2.4,4.1C1.2,4.2,.2,3.3,.0,2.2z" transform="matrix(0.999391,-0.034899,0.034899,0.999391,53.201576,46.968006)" stroke-width="0.4799999892711639" fill-rule="nonzero" stroke="#ff7878" fill="#ff7878" id="shape209"/><path d="M.0,1.9C-0.1,1.1,.3,.4,.9,.0C.9,.0,3.6,3.4,3.6,3.4C3.3,3.6,2.9,3.8,2.5,3.8C1.3,3.9,.2,3.0,.0,1.9z" transform="matrix(0.999391,-0.034899,0.034899,0.999391,53.188828,47.286509)" fill-rule="nonzero" fill="#ffffff" id="shape210" fill-opacity="0.12"/><path d="M.0,.0L10.5,4.0L10.5,7.4L.0,3.3L.0,.0z" transform="translate(24.598830,35.787590)" fill-rule="nonzero" fill="#ffffff" id="shape211" fill-opacity="0.29"/></g><g transform="translate(-0.000200,60.419600)" id="group212"><path d="M.0,.0L61.7,24.1L61.7,34.5L.0,10.5L.0,.0z" transform="translate(0.000000,22.047500)" stroke-width="0.5" fill-rule="nonzero" stroke="#d6d8df" fill="#d6d8df" id="shape213"/><path d="M.0,.0L54.1,21.3" transform="translate(0.246000,27.811100)" stroke-width="1" stroke-dasharray="3.8,1.2" stroke="#000000" fill="none" id="shape214"/><path d="M.0,.0L12.2,4.7L12.2,9.5L.0,4.6L.0,.0z" transform="translate(23.837290,34.726770)" stroke-width="1" fill-rule="nonzero" stroke="#ffffff" fill="#ffffff" id="shape215"/><path d="M.0,.0L57.5,22.1L57.5,32.6L.0,10.5L.0,.0z" transform="matrix(-1.000000,0.000000,0.000000,1.000000,119.209000,24.003300)" stroke-width="0.5" fill-rule="nonzero" stroke="#caccd3" fill="#caccd3" id="shape216"/><path d="M61.7,46.1L.0,22.0L57.5,.0L119.2,24.0L61.7,46.1z" stroke-width="0.5" fill-rule="nonzero" stroke="#e2e4e9" fill="#e2e4e9" id="shape217"/><path d="M.0,.0L11.0,4.2L11.0,8.0L.0,3.6L.0,.0z" transform="translate(24.343180,35.484170)" stroke-width="1" fill-rule="nonzero" stroke="#62bc85" fill="#62bc85" id="shape218"/><path d="M.0,2.8C-0.2,1.3,.9,.1,2.4,.0C3.9,-0.1,5.3,1.0,5.5,2.4C5.7,3.8,4.6,5.1,3.1,5.2C1.6,5.2,.2,4.2,.0,2.8z" transform="matrix(0.999391,-0.034899,0.034899,0.999391,52.626589,46.465907)" stroke-width="0.25" fill-rule="nonzero" stroke="#e85464" fill="#e85464" id="shape219"/><path d="M.0,2.2C-0.1,1.1,.7,.1,1.9,.0C3.1,-0.1,4.2,.8,4.4,1.9C4.5,3.1,3.6,4.0,2.4,4.1C1.2,4.2,.2,3.3,.0,2.2z" transform="matrix(0.999391,-0.034899,0.034899,0.999391,53.201576,46.968006)" stroke-width="0.4799999892711639" fill-rule="nonzero" stroke="#ff7878" fill="#ff7878" id="shape220"/><path d="M.0,1.9C-0.1,1.1,.3,.4,.9,.0C.9,.0,3.6,3.4,3.6,3.4C3.3,3.6,2.9,3.8,2.5,3.8C1.3,3.9,.2,3.0,.0,1.9z" transform="matrix(0.999391,-0.034899,0.034899,0.999391,53.188828,47.286509)" fill-rule="nonzero" fill="#ffffff" id="shape221" fill-opacity="0.12"/><path d="M.0,.0L10.5,4.0L10.5,7.4L.0,3.3L.0,.0z" transform="translate(24.598830,35.787590)" fill-rule="nonzero" fill="#ffffff" id="shape222" fill-opacity="0.29"/></g><g transform="translate(261.423500,60.419600)" id="group223"><path d="M.0,.0L61.7,24.1L61.7,34.5L.0,10.5L.0,.0z" transform="translate(0.000000,22.047500)" stroke-width="0.5" fill-rule="nonzero" stroke="#d6d8df" fill="#d6d8df" id="shape224"/><path d="M.0,.0L54.1,21.3" transform="translate(0.246000,27.811100)" stroke-width="1" stroke-dasharray="3.8,1.2" stroke="#000000" fill="none" id="shape225"/><path d="M.0,.0L12.2,4.7L12.2,9.5L.0,4.6L.0,.0z" transform="translate(23.837290,34.726770)" stroke-width="1" fill-rule="nonzero" stroke="#ffffff" fill="#ffffff" id="shape226"/><path d="M.0,.0L57.5,22.1L57.5,32.6L.0,10.5L.0,.0z" transform="matrix(-1.000000,0.000000,0.000000,1.000000,119.209000,24.003300)" stroke-width="0.5" fill-rule="nonzero" stroke="#caccd3" fill="#caccd3" id="shape227"/><path d="M61.7,46.1L.0,22.0L57.5,.0L119.2,24.0L61.7,46.1z" stroke-width="0.5" fill-rule="nonzero" stroke="#e2e4e9" fill="#e2e4e9" id="shape228"/><path d="M.0,.0L11.0,4.2L11.0,8.0L.0,3.6L.0,.0z" transform="translate(24.343180,35.484170)" stroke-width="1" fill-rule="nonzero" stroke="#62bc85" fill="#62bc85" id="shape229"/><path d="M.0,2.8C-0.2,1.3,.9,.1,2.4,.0C3.9,-0.1,5.3,1.0,5.5,2.4C5.7,3.8,4.6,5.1,3.1,5.2C1.6,5.2,.2,4.2,.0,2.8z" transform="matrix(0.999391,-0.034899,0.034899,0.999391,52.626589,46.465907)" stroke-width="0.25" fill-rule="nonzero" stroke="#e85464" fill="#e85464" id="shape230"/><path d="M.0,2.2C-0.1,1.1,.7,.1,1.9,.0C3.1,-0.1,4.2,.8,4.4,1.9C4.5,3.1,3.6,4.0,2.4,4.1C1.2,4.2,.2,3.3,.0,2.2z" transform="matrix(0.999391,-0.034899,0.034899,0.999391,53.201576,46.968006)" stroke-width="0.4799999892711639" fill-rule="nonzero" stroke="#ff7878" fill="#ff7878" id="shape231"/><path d="M.0,1.9C-0.1,1.1,.3,.4,.9,.0C.9,.0,3.6,3.4,3.6,3.4C3.3,3.6,2.9,3.8,2.5,3.8C1.3,3.9,.2,3.0,.0,1.9z" transform="matrix(0.999391,-0.034899,0.034899,0.999391,53.188828,47.286509)" fill-rule="nonzero" fill="#ffffff" id="shape232" fill-opacity="0.12"/><path d="M.0,.0L10.5,4.0L10.5,7.4L.0,3.3L.0,.0z" transform="translate(24.598830,35.787590)" fill-rule="nonzero" fill="#ffffff" id="shape233" fill-opacity="0.29"/></g></g><path d="M.0,-0.0L65.6,-0.0" transform="matrix(-0.941040,0.338295,-0.338295,-0.941040,152.670959,52.006969)" stroke-width="2" stroke="#4bacc6" fill="none" id="shape234"/><path d="M.0,-0.0L65.6,-0.0" transform="matrix(-0.941040,0.338295,-0.338295,-0.941040,279.199865,100.189503)" stroke-width="2" stroke="#4bacc6" fill="none" id="shape235"/><path d="M.0,-0.0L50.3,-0.0" transform="matrix(-0.914084,-0.405525,0.405525,-0.914084,140.122193,126.193614)" stroke-width="2" stroke="#4bacc6" fill="none" id="shape236"/><path d="M.0,-0.0L69.0,-0.0" transform="matrix(-0.954125,-0.299407,0.299407,-0.954125,284.428252,74.186117)" stroke-width="2" stroke="#4bacc6" fill="none" id="shape237"/></g><path d="M.0,.0L201.7,-85.1" transform="translate(277.546734,372.330650)" stroke-width="2" stroke="#6a7fe1" fill="none" id="shape238"/><path d="M.0,.0L2.8,-181.4" transform="translate(564.276486,559.845097)" stroke-width="2" stroke="#6a7fe1" fill="none" id="shape239"/><path d="M.0,.0L-205.6,-101.9" transform="translate(854.474338,389.182697)" stroke-width="2" stroke="#6a7fe1" fill="none" id="shape240"/><path d="M.0,.0L-129.5,-89.0" transform="translate(738.594469,444.854713)" stroke-width="2" stroke="#6a7fe1" fill="none" id="shape241"/><path d="M.0,.0L135.1,-82.0" transform="translate(374.371572,428.959214)" stroke-width="2" stroke="#6a7fe1" fill="none" id="shape242"/><g transform="translate(444.798000,109.320000)" id="shape243"><text xml:space="preserve" style="fill:#ff0000;font-family:微软雅黑;font-size:21.00pt;font-weight:bold"><tspan y="39.5" x="54.7">Too busy</tspan></text></g><g transform="matrix(0.945519,0.325568,-0.325568,0.945519,286.859503,182.209644)" id="group244"><g transform="matrix(0.766044,-0.642788,0.642788,0.766044,25.737928,131.410351)" id="group245"><path d="M.0,.0L16.1,17.2L.0,34.4L16.1,34.4L32.2,17.2L16.1,.0L.0,.0z" stroke-width="2" fill-rule="nonzero" stroke="#ff0000" fill="#ffa3a0" id="shape246"/><path d="M.0,.0L16.1,17.2L.0,34.4L16.1,34.4L32.2,17.2L16.1,.0L.0,.0z" transform="translate(25.062600,0.000000)" stroke-width="2" fill-rule="nonzero" stroke="#ff0000" fill="#ffa3a0" id="shape247"/><path d="M.0,.0L16.1,17.2L.0,34.4L16.1,34.4L32.2,17.2L16.1,.0L.0,.0z" transform="translate(51.915300,0.000000)" stroke-width="2" fill-rule="nonzero" stroke="#ff0000" fill="#ffa3a0" id="shape248"/><path d="M.0,.0L16.1,17.2L.0,34.4L16.1,34.4L32.2,17.2L16.1,.0L.0,.0z" transform="translate(76.977900,0.000000)" stroke-width="2" fill-rule="nonzero" stroke="#ff0000" fill="#ffa3a0" id="shape249"/><path d="M.0,.0L16.1,17.2L.0,34.4L16.1,34.4L32.2,17.2L16.1,.0L.0,.0z" transform="translate(103.830300,0.000000)" stroke-width="2" fill-rule="nonzero" stroke="#ff0000" fill="#ffa3a0" id="shape250"/><path d="M.0,.0L16.1,17.2L.0,34.4L16.1,34.4L32.2,17.2L16.1,.0L.0,.0z" transform="translate(128.893300,0.000000)" stroke-width="2" fill-rule="nonzero" stroke="#ff0000" fill="#ffa3a0" id="shape251"/></g><g transform="matrix(0.766044,-0.642788,0.642788,0.766044,-0.000080,78.457435)" id="shape252"><text xml:space="preserve" style="fill:#ff0000;font-family:微软雅黑;font-size:16.00pt;font-weight:bold"><tspan y="43.8" x="21.5">100Gps</tspan></text></g></g><g transform="matrix(0.994522,0.104528,-0.104528,0.994522,404.335540,331.052115)" id="group253"><g transform="matrix(0.766044,-0.642788,0.642788,0.766044,25.737935,131.410356)" id="group254"><path d="M.0,.0L16.1,17.2L.0,34.4L16.1,34.4L32.2,17.2L16.1,.0L.0,.0z" stroke-width="2" fill-rule="nonzero" stroke="#ff0000" fill="#ffa3a0" id="shape255"/><path d="M.0,.0L16.1,17.2L.0,34.4L16.1,34.4L32.2,17.2L16.1,.0L.0,.0z" transform="translate(25.062600,0.000000)" stroke-width="2" fill-rule="nonzero" stroke="#ff0000" fill="#ffa3a0" id="shape256"/><path d="M.0,.0L16.1,17.2L.0,34.4L16.1,34.4L32.2,17.2L16.1,.0L.0,.0z" transform="translate(51.915300,0.000000)" stroke-width="2" fill-rule="nonzero" stroke="#ff0000" fill="#ffa3a0" id="shape257"/><path d="M.0,.0L16.1,17.2L.0,34.4L16.1,34.4L32.2,17.2L16.1,.0L.0,.0z" transform="translate(76.977900,0.000000)" stroke-width="2" fill-rule="nonzero" stroke="#ff0000" fill="#ffa3a0" id="shape258"/><path d="M.0,.0L16.1,17.2L.0,34.4L16.1,34.4L32.2,17.2L16.1,.0L.0,.0z" transform="translate(103.830300,0.000000)" stroke-width="2" fill-rule="nonzero" stroke="#ff0000" fill="#ffa3a0" id="shape259"/><path d="M.0,.0L16.1,17.2L.0,34.4L16.1,34.4L32.2,17.2L16.1,.0L.0,.0z" transform="translate(128.893300,0.000000)" stroke-width="2" fill-rule="nonzero" stroke="#ff0000" fill="#ffa3a0" id="shape260"/></g><g transform="matrix(0.766044,-0.642788,0.642788,0.766044,-0.000100,78.457400)" id="shape261"><text xml:space="preserve" style="fill:#ff0000;font-family:微软雅黑;font-size:16.00pt;font-weight:bold"><tspan y="43.8" x="21.5">100Gps</tspan></text></g></g><g transform="matrix(0.980955,-0.194234,0.194234,0.980955,681.122212,234.133048)" id="group262"><g transform="matrix(-0.766044,-0.642788,0.642788,-0.766044,120.139431,157.406331)" id="group263"><path d="M.0,.0L16.2,16.2L.0,32.5L17.9,32.5L34.1,16.2L17.9,.0L.0,.0z" stroke-width="2" fill-rule="nonzero" stroke="#ff0000" fill="#ffa3a0" id="shape264"/><path d="M.0,.0L16.2,16.2L.0,32.5L17.9,32.5L34.1,16.2L17.9,.0L.0,.0z" transform="translate(26.514500,0.000000)" stroke-width="2" fill-rule="nonzero" stroke="#ff0000" fill="#ffa3a0" id="shape265"/><path d="M.0,.0L16.2,16.2L.0,32.5L17.9,32.5L34.1,16.2L17.9,.0L.0,.0z" transform="translate(54.922800,0.000000)" stroke-width="2" fill-rule="nonzero" stroke="#ff0000" fill="#ffa3a0" id="shape266"/><path d="M.0,.0L16.2,16.2L.0,32.5L17.9,32.5L34.1,16.2L17.9,.0L.0,.0z" transform="translate(81.437300,0.000000)" stroke-width="2" fill-rule="nonzero" stroke="#ff0000" fill="#ffa3a0" id="shape267"/><path d="M.0,.0L16.2,16.2L.0,32.5L17.9,32.5L34.1,16.2L17.9,.0L.0,.0z" transform="translate(109.846000,0.000000)" stroke-width="2" fill-rule="nonzero" stroke="#ff0000" fill="#ffa3a0" id="shape268"/><path d="M.0,.0L16.2,16.2L.0,32.5L17.9,32.5L34.1,16.2L17.9,.0L.0,.0z" transform="translate(136.360000,0.000000)" stroke-width="2" fill-rule="nonzero" stroke="#ff0000" fill="#ffa3a0" id="shape269"/></g><g transform="matrix(0.766044,0.642788,-0.642788,0.766044,48.083621,0.000048)" id="shape270"><text xml:space="preserve" style="fill:#ff0000;font-family:微软雅黑;font-size:16.00pt;font-weight:bold"><tspan y="29.8" x="33.5">100Gps</tspan></text></g></g><g transform="matrix(0.999701,-0.024432,0.024432,0.999701,574.817878,352.174707)" id="group271"><g transform="matrix(-0.766044,-0.642788,0.642788,-0.766044,120.139421,157.406376)" id="group272"><path d="M.0,.0L16.2,16.2L.0,32.5L17.9,32.5L34.1,16.2L17.9,.0L.0,.0z" stroke-width="2" fill-rule="nonzero" stroke="#ff0000" fill="#ffa3a0" id="shape273"/><path d="M.0,.0L16.2,16.2L.0,32.5L17.9,32.5L34.1,16.2L17.9,.0L.0,.0z" transform="translate(26.514500,0.000000)" stroke-width="2" fill-rule="nonzero" stroke="#ff0000" fill="#ffa3a0" id="shape274"/><path d="M.0,.0L16.2,16.2L.0,32.5L17.9,32.5L34.1,16.2L17.9,.0L.0,.0z" transform="translate(54.922800,0.000000)" stroke-width="2" fill-rule="nonzero" stroke="#ff0000" fill="#ffa3a0" id="shape275"/><path d="M.0,.0L16.2,16.2L.0,32.5L17.9,32.5L34.1,16.2L17.9,.0L.0,.0z" transform="translate(81.437300,0.000000)" stroke-width="2" fill-rule="nonzero" stroke="#ff0000" fill="#ffa3a0" id="shape276"/><path d="M.0,.0L16.2,16.2L.0,32.5L17.9,32.5L34.1,16.2L17.9,.0L.0,.0z" transform="translate(109.846000,0.000000)" stroke-width="2" fill-rule="nonzero" stroke="#ff0000" fill="#ffa3a0" id="shape277"/><path d="M.0,.0L16.2,16.2L.0,32.5L17.9,32.5L34.1,16.2L17.9,.0L.0,.0z" transform="translate(136.360000,0.000000)" stroke-width="2" fill-rule="nonzero" stroke="#ff0000" fill="#ffa3a0" id="shape278"/></g><g transform="matrix(0.766044,0.642788,-0.642788,0.766044,48.083543,0.000079)" id="shape279"><text xml:space="preserve" style="fill:#ff0000;font-family:微软雅黑;font-size:16.00pt;font-weight:bold"><tspan y="29.8" x="33.5">100Gps</tspan></text></g></g></g></svg>