<?xml version="1.0" encoding="UTF-8" standalone="no"?>
<!DOCTYPE svg PUBLIC "-//W3C//DTD SVG 1.1//EN" "http://www.w3.org/Graphics/SVG/1.1/DTD/svg11.dtd">
<!-- 由 Microsoft Visio, SVG Export 生成 case2.svg 页-1 -->
<svg xmlns="http://www.w3.org/2000/svg" xmlns:xlink="http://www.w3.org/1999/xlink" xmlns:ev="http://www.w3.org/2001/xml-events"
		xmlns:v="http://schemas.microsoft.com/visio/2003/SVGExtensions/" width="9.31299in" height="3.95099in"
		viewBox="0 0 670.535 284.471" xml:space="preserve" color-interpolation-filters="sRGB" class="st10">
	<v:documentProperties v:langID="2052" v:metric="true" v:viewMarkup="false"/>

	<style type="text/css">
	<![CDATA[
		.st1 {fill:#ffffff;stroke:#000000;stroke-linecap:round;stroke-linejoin:round;stroke-width:0.24}
		.st2 {stroke:#000000;stroke-linecap:round;stroke-linejoin:round;stroke-width:0.75}
		.st3 {fill:none;stroke:none;stroke-linecap:round;stroke-linejoin:round;stroke-width:0.75}
		.st4 {fill:#000000;font-family:Cascadia Code;font-size:1.5em;font-weight:bold}
		.st5 {fill:#000000;font-family:Cascadia Code;font-size:1.00001em}
		.st6 {font-size:1em}
		.st7 {fill:#000000;font-family:Cascadia Code;font-size:1.00001em;font-weight:bold}
		.st8 {fill:#ffffff;stroke:none;stroke-linecap:round;stroke-linejoin:round;stroke-width:0.24}
		.st9 {fill:#000000;font-family:Cascadia Code;font-size:0.833336em;font-weight:bold}
		.st10 {fill:none;fill-rule:evenodd;font-size:12px;overflow:visible;stroke-linecap:square;stroke-miterlimit:3}
	]]>
	</style>

	<g v:mID="0" v:index="1" v:groupContext="foregroundPage">
		<title>页-1</title>
		<v:pageProperties v:drawingScale="0.0393701" v:pageScale="0.0393701" v:drawingUnits="24" v:shadowOffsetX="8.50394"
				v:shadowOffsetY="-8.50394"/>
		<v:layer v:name="连接线" v:index="0"/>
		<g id="shape1-1" v:mID="1" v:groupContext="shape" transform="translate(528.864,-92.2997)">
			<title>圆角矩形.142</title>
			<v:userDefs>
				<v:ud v:nameU="CTypeTopLeftSnip" v:prompt="" v:val="VT0(0):5"/>
				<v:ud v:nameU="CTypeTopRightSnip" v:prompt="" v:val="VT0(0):5"/>
				<v:ud v:nameU="CTypeBotLeftSnip" v:prompt="" v:val="VT0(0):5"/>
				<v:ud v:nameU="CTypeBotRightSnip" v:prompt="" v:val="VT0(0):5"/>
				<v:ud v:nameU="CornerLockHoriz" v:prompt="" v:val="VT0(1):5"/>
				<v:ud v:nameU="CornerLockVert" v:prompt="" v:val="VT0(1):5"/>
				<v:ud v:nameU="CornerLockDiag" v:prompt="" v:val="VT0(0):5"/>
				<v:ud v:nameU="TopLeftOffset" v:prompt="" v:val="VT0(0.15748031496063):24"/>
				<v:ud v:nameU="TopRightOffset" v:prompt="" v:val="VT0(0.15748031496063):24"/>
				<v:ud v:nameU="BotLeftOffset" v:prompt="" v:val="VT0(0.15748031496063):24"/>
				<v:ud v:nameU="BotRightOffset" v:prompt="" v:val="VT0(0.15748031496063):24"/>
				<v:ud v:nameU="visVersion" v:prompt="" v:val="VT0(15):26"/>
				<v:ud v:nameU="TopLeftOffset" v:prompt="" v:val="VT0(0.131065564466):1"/>
				<v:ud v:nameU="TopRightOffset" v:prompt="" v:val="VT0(0.131065564466):1"/>
				<v:ud v:nameU="BotLeftOffset" v:prompt="" v:val="VT0(0.131065564466):1"/>
				<v:ud v:nameU="BotRightOffset" v:prompt="" v:val="VT0(0.131065564466):1"/>
			</v:userDefs>
			<path d="M9.44 284.47 L132.11 284.47 A9.43657 9.43657 -180 0 0 141.55 275.03 L141.55 177.4 A9.43657 9.43657 -180 0 0
						 132.11 167.97 L9.44 167.97 A9.43657 9.43657 -180 0 0 0 177.4 L0 275.03 A9.43657 9.43657 -180 0 0 9.44 284.47
						 Z" class="st1"/>
		</g>
		<g id="shape2-3" v:mID="2" v:groupContext="shape" transform="translate(316.883,-92.2997)">
			<title>圆角矩形.140</title>
			<v:userDefs>
				<v:ud v:nameU="CTypeTopLeftSnip" v:prompt="" v:val="VT0(0):5"/>
				<v:ud v:nameU="CTypeTopRightSnip" v:prompt="" v:val="VT0(0):5"/>
				<v:ud v:nameU="CTypeBotLeftSnip" v:prompt="" v:val="VT0(0):5"/>
				<v:ud v:nameU="CTypeBotRightSnip" v:prompt="" v:val="VT0(0):5"/>
				<v:ud v:nameU="CornerLockHoriz" v:prompt="" v:val="VT0(1):5"/>
				<v:ud v:nameU="CornerLockVert" v:prompt="" v:val="VT0(1):5"/>
				<v:ud v:nameU="CornerLockDiag" v:prompt="" v:val="VT0(0):5"/>
				<v:ud v:nameU="TopLeftOffset" v:prompt="" v:val="VT0(0.15748031496063):24"/>
				<v:ud v:nameU="TopRightOffset" v:prompt="" v:val="VT0(0.15748031496063):24"/>
				<v:ud v:nameU="BotLeftOffset" v:prompt="" v:val="VT0(0.15748031496063):24"/>
				<v:ud v:nameU="BotRightOffset" v:prompt="" v:val="VT0(0.15748031496063):24"/>
				<v:ud v:nameU="visVersion" v:prompt="" v:val="VT0(15):26"/>
				<v:ud v:nameU="TopLeftOffset" v:prompt="" v:val="VT0(0.131065564466):1"/>
				<v:ud v:nameU="TopRightOffset" v:prompt="" v:val="VT0(0.131065564466):1"/>
				<v:ud v:nameU="BotLeftOffset" v:prompt="" v:val="VT0(0.131065564466):1"/>
				<v:ud v:nameU="BotRightOffset" v:prompt="" v:val="VT0(0.131065564466):1"/>
			</v:userDefs>
			<path d="M9.44 284.47 L132.11 284.47 A9.43657 9.43657 -180 0 0 141.55 275.03 L141.55 177.4 A9.43657 9.43657 -180 0 0
						 132.11 167.97 L9.44 167.97 A9.43657 9.43657 -180 0 0 0 177.4 L0 275.03 A9.43657 9.43657 -180 0 0 9.44 284.47
						 Z" class="st1"/>
		</g>
		<g id="shape3-5" v:mID="3" v:groupContext="shape" transform="translate(118.367,-91.6894)">
			<title>圆角矩形.136</title>
			<v:userDefs>
				<v:ud v:nameU="CTypeTopLeftSnip" v:prompt="" v:val="VT0(0):5"/>
				<v:ud v:nameU="CTypeTopRightSnip" v:prompt="" v:val="VT0(0):5"/>
				<v:ud v:nameU="CTypeBotLeftSnip" v:prompt="" v:val="VT0(0):5"/>
				<v:ud v:nameU="CTypeBotRightSnip" v:prompt="" v:val="VT0(0):5"/>
				<v:ud v:nameU="CornerLockHoriz" v:prompt="" v:val="VT0(1):5"/>
				<v:ud v:nameU="CornerLockVert" v:prompt="" v:val="VT0(1):5"/>
				<v:ud v:nameU="CornerLockDiag" v:prompt="" v:val="VT0(0):5"/>
				<v:ud v:nameU="TopLeftOffset" v:prompt="" v:val="VT0(0.15748031496063):24"/>
				<v:ud v:nameU="TopRightOffset" v:prompt="" v:val="VT0(0.15748031496063):24"/>
				<v:ud v:nameU="BotLeftOffset" v:prompt="" v:val="VT0(0.15748031496063):24"/>
				<v:ud v:nameU="BotRightOffset" v:prompt="" v:val="VT0(0.15748031496063):24"/>
				<v:ud v:nameU="visVersion" v:prompt="" v:val="VT0(15):26"/>
				<v:ud v:nameU="TopLeftOffset" v:prompt="" v:val="VT0(0.131065564466):1"/>
				<v:ud v:nameU="TopRightOffset" v:prompt="" v:val="VT0(0.131065564466):1"/>
				<v:ud v:nameU="BotLeftOffset" v:prompt="" v:val="VT0(0.131065564466):1"/>
				<v:ud v:nameU="BotRightOffset" v:prompt="" v:val="VT0(0.131065564466):1"/>
			</v:userDefs>
			<path d="M9.44 284.47 L132.11 284.47 A9.43657 9.43657 -180 0 0 141.55 275.03 L141.55 177.4 A9.43657 9.43657 -180 0 0
						 132.11 167.97 L9.44 167.97 A9.43657 9.43657 -180 0 0 0 177.4 L0 275.03 A9.43657 9.43657 -180 0 0 9.44 284.47
						 Z" class="st1"/>
		</g>
		<g id="group4-7" transform="translate(118.367,-108.033)" v:mID="4" v:groupContext="group">
			<title>工作表.4</title>
			<g id="shape5-8" v:mID="5" v:groupContext="shape" transform="translate(0,-111.216)">
				<title>圆角矩形.19</title>
				<v:userDefs>
					<v:ud v:nameU="CTypeTopLeftSnip" v:prompt="" v:val="VT0(0):5"/>
					<v:ud v:nameU="CTypeTopRightSnip" v:prompt="" v:val="VT0(0):5"/>
					<v:ud v:nameU="CTypeBotLeftSnip" v:prompt="" v:val="VT0(0):5"/>
					<v:ud v:nameU="CTypeBotRightSnip" v:prompt="" v:val="VT0(0):5"/>
					<v:ud v:nameU="CornerLockHoriz" v:prompt="" v:val="VT0(1):5"/>
					<v:ud v:nameU="CornerLockVert" v:prompt="" v:val="VT0(1):5"/>
					<v:ud v:nameU="CornerLockDiag" v:prompt="" v:val="VT0(0):5"/>
					<v:ud v:nameU="TopLeftOffset" v:prompt="" v:val="VT0(0.15748031496063):24"/>
					<v:ud v:nameU="TopRightOffset" v:prompt="" v:val="VT0(0.15748031496063):24"/>
					<v:ud v:nameU="BotLeftOffset" v:prompt="" v:val="VT0(0.15748031496063):24"/>
					<v:ud v:nameU="BotRightOffset" v:prompt="" v:val="VT0(0.15748031496063):24"/>
					<v:ud v:nameU="visVersion" v:prompt="" v:val="VT0(15):26"/>
					<v:ud v:nameU="TopLeftOffset" v:prompt="" v:val="VT0(0.131065564466):1"/>
					<v:ud v:nameU="TopRightOffset" v:prompt="" v:val="VT0(0.131065564466):1"/>
					<v:ud v:nameU="BotLeftOffset" v:prompt="" v:val="VT0(0.131065564466):1"/>
					<v:ud v:nameU="BotRightOffset" v:prompt="" v:val="VT0(0.131065564466):1"/>
				</v:userDefs>
				<path d="M9.44 284.47 L132.11 284.47 A9.43657 9.43657 -180 0 0 141.55 275.03 L141.55 228.81 A9.43657 9.43657 -180
							 0 0 132.11 219.37 L9.44 219.37 A9.43657 9.43657 -180 0 0 0 228.81 L0 275.03 A9.43657 9.43657 -180 0
							 0 9.44 284.47 Z" class="st1"/>
			</g>
			<g id="shape6-10" v:mID="6" v:groupContext="shape" transform="translate(7.07754,-127.492)">
				<title>圆形</title>
				<v:userDefs>
					<v:ud v:nameU="visVersion" v:val="VT0(15):26"/>
				</v:userDefs>
				<path d="M0 270.91 A17.6938 13.5629 0 1 1 35.39 270.91 A17.6938 13.5629 0 1 1 0 270.91 Z" class="st1"/>
			</g>
			<g id="shape7-12" v:mID="7" v:groupContext="shape" transform="translate(99.0856,-127.492)">
				<title>圆形.11</title>
				<v:userDefs>
					<v:ud v:nameU="visVersion" v:val="VT0(15):26"/>
				</v:userDefs>
				<path d="M0 270.91 A17.6938 13.5629 0 1 1 35.39 270.91 A17.6938 13.5629 0 1 1 0 270.91 Z" class="st1"/>
			</g>
			<g id="shape8-14" v:mID="8" v:groupContext="shape" transform="translate(7.07754,5.68434E-14)">
				<title>圆形.12</title>
				<v:userDefs>
					<v:ud v:nameU="visVersion" v:val="VT0(15):26"/>
				</v:userDefs>
				<path d="M0 270.91 A17.6938 13.5629 0 1 1 35.39 270.91 A17.6938 13.5629 0 1 1 0 270.91 Z" class="st1"/>
			</g>
			<g id="shape9-16" v:mID="9" v:groupContext="shape" transform="translate(99.0856,5.68434E-14)">
				<title>圆形.13</title>
				<v:userDefs>
					<v:ud v:nameU="visVersion" v:val="VT0(15):26"/>
				</v:userDefs>
				<path d="M0 270.91 A17.6938 13.5629 0 1 1 35.39 270.91 A17.6938 13.5629 0 1 1 0 270.91 Z" class="st1"/>
			</g>
			<g id="shape10-18" v:mID="10" v:groupContext="shape" v:layerMember="0" transform="translate(42.4652,-133.968)">
				<title>动态连接线</title>
				<path d="M0 277.38 L56.62 277.38" class="st2"/>
			</g>
			<g id="shape11-21" v:mID="11" v:groupContext="shape" v:layerMember="0" transform="translate(109.693,-127.492)">
				<title>动态连接线.15</title>
				<path d="M7.09 284.47 L7.09 384.84" class="st2"/>
			</g>
			<g id="shape12-24" v:mID="12" v:groupContext="shape" v:layerMember="0" transform="translate(17.6848,-127.492)">
				<title>动态连接线.16</title>
				<path d="M7.09 284.47 L7.09 384.84" class="st2"/>
			</g>
		</g>
		<g id="group13-27" transform="translate(316.538,-108.033)" v:mID="13" v:groupContext="group">
			<title>工作表.13</title>
			<g id="shape14-28" v:mID="14" v:groupContext="shape" transform="translate(0,-111.216)">
				<title>圆角矩形.19</title>
				<v:userDefs>
					<v:ud v:nameU="CTypeTopLeftSnip" v:prompt="" v:val="VT0(0):5"/>
					<v:ud v:nameU="CTypeTopRightSnip" v:prompt="" v:val="VT0(0):5"/>
					<v:ud v:nameU="CTypeBotLeftSnip" v:prompt="" v:val="VT0(0):5"/>
					<v:ud v:nameU="CTypeBotRightSnip" v:prompt="" v:val="VT0(0):5"/>
					<v:ud v:nameU="CornerLockHoriz" v:prompt="" v:val="VT0(1):5"/>
					<v:ud v:nameU="CornerLockVert" v:prompt="" v:val="VT0(1):5"/>
					<v:ud v:nameU="CornerLockDiag" v:prompt="" v:val="VT0(0):5"/>
					<v:ud v:nameU="TopLeftOffset" v:prompt="" v:val="VT0(0.15748031496063):24"/>
					<v:ud v:nameU="TopRightOffset" v:prompt="" v:val="VT0(0.15748031496063):24"/>
					<v:ud v:nameU="BotLeftOffset" v:prompt="" v:val="VT0(0.15748031496063):24"/>
					<v:ud v:nameU="BotRightOffset" v:prompt="" v:val="VT0(0.15748031496063):24"/>
					<v:ud v:nameU="visVersion" v:prompt="" v:val="VT0(15):26"/>
					<v:ud v:nameU="TopLeftOffset" v:prompt="" v:val="VT0(0.131065564466):1"/>
					<v:ud v:nameU="TopRightOffset" v:prompt="" v:val="VT0(0.131065564466):1"/>
					<v:ud v:nameU="BotLeftOffset" v:prompt="" v:val="VT0(0.131065564466):1"/>
					<v:ud v:nameU="BotRightOffset" v:prompt="" v:val="VT0(0.131065564466):1"/>
				</v:userDefs>
				<path d="M9.44 284.47 L132.11 284.47 A9.43657 9.43657 -180 0 0 141.55 275.03 L141.55 228.81 A9.43657 9.43657 -180
							 0 0 132.11 219.37 L9.44 219.37 A9.43657 9.43657 -180 0 0 0 228.81 L0 275.03 A9.43657 9.43657 -180 0
							 0 9.44 284.47 Z" class="st1"/>
			</g>
			<g id="shape15-30" v:mID="15" v:groupContext="shape" transform="translate(7.07754,-127.492)">
				<title>圆形</title>
				<v:userDefs>
					<v:ud v:nameU="visVersion" v:val="VT0(15):26"/>
				</v:userDefs>
				<path d="M0 270.91 A17.6938 13.5629 0 1 1 35.39 270.91 A17.6938 13.5629 0 1 1 0 270.91 Z" class="st1"/>
			</g>
			<g id="shape16-32" v:mID="16" v:groupContext="shape" transform="translate(99.0856,-127.492)">
				<title>圆形.11</title>
				<v:userDefs>
					<v:ud v:nameU="visVersion" v:val="VT0(15):26"/>
				</v:userDefs>
				<path d="M0 270.91 A17.6938 13.5629 0 1 1 35.39 270.91 A17.6938 13.5629 0 1 1 0 270.91 Z" class="st1"/>
			</g>
			<g id="shape17-34" v:mID="17" v:groupContext="shape" transform="translate(7.07754,5.68434E-14)">
				<title>圆形.12</title>
				<v:userDefs>
					<v:ud v:nameU="visVersion" v:val="VT0(15):26"/>
				</v:userDefs>
				<path d="M0 270.91 A17.6938 13.5629 0 1 1 35.39 270.91 A17.6938 13.5629 0 1 1 0 270.91 Z" class="st1"/>
			</g>
			<g id="shape18-36" v:mID="18" v:groupContext="shape" transform="translate(99.0856,5.68434E-14)">
				<title>圆形.13</title>
				<v:userDefs>
					<v:ud v:nameU="visVersion" v:val="VT0(15):26"/>
				</v:userDefs>
				<path d="M0 270.91 A17.6938 13.5629 0 1 1 35.39 270.91 A17.6938 13.5629 0 1 1 0 270.91 Z" class="st1"/>
			</g>
			<g id="shape19-38" v:mID="19" v:groupContext="shape" v:layerMember="0" transform="translate(42.4652,-133.968)">
				<title>动态连接线</title>
				<path d="M0 277.38 L56.62 277.38" class="st2"/>
			</g>
			<g id="shape20-41" v:mID="20" v:groupContext="shape" v:layerMember="0" transform="translate(109.693,-127.492)">
				<title>动态连接线.15</title>
				<path d="M7.09 284.47 L7.09 384.84" class="st2"/>
			</g>
			<g id="shape21-44" v:mID="21" v:groupContext="shape" v:layerMember="0" transform="translate(17.6848,-127.492)">
				<title>动态连接线.16</title>
				<path d="M7.09 284.47 L7.09 384.84" class="st2"/>
			</g>
		</g>
		<g id="group22-47" transform="translate(528.864,-108.033)" v:mID="22" v:groupContext="group">
			<title>工作表.22</title>
			<g id="shape23-48" v:mID="23" v:groupContext="shape" transform="translate(0,-111.216)">
				<title>圆角矩形.19</title>
				<v:userDefs>
					<v:ud v:nameU="CTypeTopLeftSnip" v:prompt="" v:val="VT0(0):5"/>
					<v:ud v:nameU="CTypeTopRightSnip" v:prompt="" v:val="VT0(0):5"/>
					<v:ud v:nameU="CTypeBotLeftSnip" v:prompt="" v:val="VT0(0):5"/>
					<v:ud v:nameU="CTypeBotRightSnip" v:prompt="" v:val="VT0(0):5"/>
					<v:ud v:nameU="CornerLockHoriz" v:prompt="" v:val="VT0(1):5"/>
					<v:ud v:nameU="CornerLockVert" v:prompt="" v:val="VT0(1):5"/>
					<v:ud v:nameU="CornerLockDiag" v:prompt="" v:val="VT0(0):5"/>
					<v:ud v:nameU="TopLeftOffset" v:prompt="" v:val="VT0(0.15748031496063):24"/>
					<v:ud v:nameU="TopRightOffset" v:prompt="" v:val="VT0(0.15748031496063):24"/>
					<v:ud v:nameU="BotLeftOffset" v:prompt="" v:val="VT0(0.15748031496063):24"/>
					<v:ud v:nameU="BotRightOffset" v:prompt="" v:val="VT0(0.15748031496063):24"/>
					<v:ud v:nameU="visVersion" v:prompt="" v:val="VT0(15):26"/>
					<v:ud v:nameU="TopLeftOffset" v:prompt="" v:val="VT0(0.131065564466):1"/>
					<v:ud v:nameU="TopRightOffset" v:prompt="" v:val="VT0(0.131065564466):1"/>
					<v:ud v:nameU="BotLeftOffset" v:prompt="" v:val="VT0(0.131065564466):1"/>
					<v:ud v:nameU="BotRightOffset" v:prompt="" v:val="VT0(0.131065564466):1"/>
				</v:userDefs>
				<path d="M9.44 284.47 L132.11 284.47 A9.43657 9.43657 -180 0 0 141.55 275.03 L141.55 228.81 A9.43657 9.43657 -180
							 0 0 132.11 219.37 L9.44 219.37 A9.43657 9.43657 -180 0 0 0 228.81 L0 275.03 A9.43657 9.43657 -180 0
							 0 9.44 284.47 Z" class="st1"/>
			</g>
			<g id="shape24-50" v:mID="24" v:groupContext="shape" transform="translate(7.07754,-127.492)">
				<title>圆形</title>
				<v:userDefs>
					<v:ud v:nameU="visVersion" v:val="VT0(15):26"/>
				</v:userDefs>
				<path d="M0 270.91 A17.6938 13.5629 0 1 1 35.39 270.91 A17.6938 13.5629 0 1 1 0 270.91 Z" class="st1"/>
			</g>
			<g id="shape25-52" v:mID="25" v:groupContext="shape" transform="translate(99.0856,-127.492)">
				<title>圆形.11</title>
				<v:userDefs>
					<v:ud v:nameU="visVersion" v:val="VT0(15):26"/>
				</v:userDefs>
				<path d="M0 270.91 A17.6938 13.5629 0 1 1 35.39 270.91 A17.6938 13.5629 0 1 1 0 270.91 Z" class="st1"/>
			</g>
			<g id="shape26-54" v:mID="26" v:groupContext="shape" transform="translate(7.07754,5.68434E-14)">
				<title>圆形.12</title>
				<v:userDefs>
					<v:ud v:nameU="visVersion" v:val="VT0(15):26"/>
				</v:userDefs>
				<path d="M0 270.91 A17.6938 13.5629 0 1 1 35.39 270.91 A17.6938 13.5629 0 1 1 0 270.91 Z" class="st1"/>
			</g>
			<g id="shape27-56" v:mID="27" v:groupContext="shape" transform="translate(99.0856,5.68434E-14)">
				<title>圆形.13</title>
				<v:userDefs>
					<v:ud v:nameU="visVersion" v:val="VT0(15):26"/>
				</v:userDefs>
				<path d="M0 270.91 A17.6938 13.5629 0 1 1 35.39 270.91 A17.6938 13.5629 0 1 1 0 270.91 Z" class="st1"/>
			</g>
			<g id="shape28-58" v:mID="28" v:groupContext="shape" v:layerMember="0" transform="translate(42.4652,-133.968)">
				<title>动态连接线</title>
				<path d="M0 277.38 L56.62 277.38" class="st2"/>
			</g>
			<g id="shape29-61" v:mID="29" v:groupContext="shape" v:layerMember="0" transform="translate(109.693,-127.492)">
				<title>动态连接线.15</title>
				<path d="M7.09 284.47 L7.09 384.84" class="st2"/>
			</g>
			<g id="shape30-64" v:mID="30" v:groupContext="shape" v:layerMember="0" transform="translate(17.6848,-127.492)">
				<title>动态连接线.16</title>
				<path d="M7.09 284.47 L7.09 384.84" class="st2"/>
			</g>
		</g>
		<g id="shape31-67" v:mID="31" v:groupContext="shape" transform="translate(369.62,-164.726)">
			<title>圆形.114</title>
			<v:userDefs>
				<v:ud v:nameU="visVersion" v:val="VT0(15):26"/>
			</v:userDefs>
			<path d="M0 270.91 A17.6938 13.5629 0 1 1 35.39 270.91 A17.6938 13.5629 0 1 1 0 270.91 Z" class="st1"/>
		</g>
		<g id="shape32-69" v:mID="32" v:groupContext="shape" v:layerMember="0" transform="translate(374.801,-168.697)">
			<title>动态连接线.115</title>
			<path d="M0 284.47 L-20.98 321.98" class="st2"/>
		</g>
		<g id="shape33-72" v:mID="33" v:groupContext="shape" transform="translate(581.946,-164.726)">
			<title>圆形.116</title>
			<v:userDefs>
				<v:ud v:nameU="visVersion" v:val="VT0(15):26"/>
			</v:userDefs>
			<path d="M0 270.91 A17.6938 13.5629 0 1 1 35.39 270.91 A17.6938 13.5629 0 1 1 0 270.91 Z" class="st1"/>
		</g>
		<g id="shape34-74" v:mID="34" v:groupContext="shape" v:layerMember="0" transform="translate(612.153,-168.697)">
			<title>动态连接线.117</title>
			<path d="M0 284.47 L20.98 321.98" class="st2"/>
		</g>
		<g id="shape35-77" v:mID="35" v:groupContext="shape" v:layerMember="0" transform="translate(587.127,-168.697)">
			<title>动态连接线.118</title>
			<path d="M0 284.47 L-20.98 321.98" class="st2"/>
		</g>
		<g id="shape36-80" v:mID="36" v:groupContext="shape" v:layerMember="0" transform="translate(587.127,-187.88)">
			<title>动态连接线.119</title>
			<path d="M0 284.47 L-20.98 232.86" class="st2"/>
		</g>
		<g id="shape37-83" v:mID="37" v:groupContext="shape" v:layerMember="0" transform="translate(612.153,-187.88)">
			<title>动态连接线.120</title>
			<path d="M0 284.47 L20.98 232.86" class="st2"/>
		</g>
		<g id="shape38-86" v:mID="38" v:groupContext="shape" transform="translate(171.449,-164.726)">
			<title>圆形.138</title>
			<v:userDefs>
				<v:ud v:nameU="visVersion" v:val="VT0(15):26"/>
			</v:userDefs>
			<path d="M0 270.91 A17.6938 13.5629 0 1 1 35.39 270.91 A17.6938 13.5629 0 1 1 0 270.91 Z" class="st1"/>
		</g>
		<g id="shape39-88" v:mID="39" v:groupContext="shape" v:layerMember="0" transform="translate(571.33,-114.509)">
			<title>动态连接线.147</title>
			<path d="M0 277.38 L56.62 277.38" class="st2"/>
		</g>
		<g id="shape40-91" v:mID="40" v:groupContext="shape" transform="translate(0.375,-234.511)">
			<title>工作表.40</title>
			<desc>MDNS</desc>
			<v:textBlock v:margins="rect(4,4,4,4)" v:tabSpace="42.5197"/>
			<v:textRect cx="54.2126" cy="269.217" width="108.43" height="30.5085"/>
			<rect x="0" y="253.962" width="108.425" height="30.5085" class="st3"/>
			<text x="33.12" y="274.62" class="st4" v:langID="2052"><v:paragraph v:horizAlign="1"/><v:tabList/>MDNS</text>		</g>
		<g id="shape41-94" v:mID="41" v:groupContext="shape" transform="translate(118.367,-0.375)">
			<title>工作表.41</title>
			<desc>A node join the Edge Cluster wanting to know others</desc>
			<v:textBlock v:margins="rect(4,4,4,4)" v:tabSpace="42.5197"/>
			<v:textRect cx="70.7754" cy="252.377" width="141.56" height="64.1886"/>
			<rect x="0" y="220.282" width="141.551" height="64.1886" class="st3"/>
			<text x="18.04" y="234.38" class="st5" v:langID="2052"><v:paragraph v:horizAlign="1"/><v:tabList/>A node join the <tspan
						x="28.59" dy="1.2em" class="st6">Edge Cluster </tspan><tspan x="18.04" dy="1.2em" class="st6">wanting to know </tspan><tspan
						x="49.68" dy="1.2em" class="st6">others</tspan></text>		</g>
		<g id="shape42-100" v:mID="42" v:groupContext="shape" transform="translate(180.952,-170.395)">
			<title>工作表.42</title>
			<desc>A</desc>
			<v:textBlock v:margins="rect(4,4,4,4)" v:tabSpace="42.5197"/>
			<v:textRect cx="8.2814" cy="277.108" width="16.57" height="14.7257"/>
			<rect x="0" y="269.745" width="16.5628" height="14.7257" class="st3"/>
			<text x="4.77" y="280.71" class="st7" v:langID="2052"><v:paragraph v:horizAlign="1"/><v:tabList/>A</text>		</g>
		<g id="shape43-103" v:mID="43" v:groupContext="shape" transform="translate(340.742,-15.0295)">
			<title>工作表.43</title>
			<desc>Mdns Advertise Discovery</desc>
			<v:textBlock v:margins="rect(4,4,4,4)" v:tabSpace="42.5197"/>
			<v:textRect cx="46.9161" cy="263.196" width="93.84" height="42.5498"/>
			<rect x="0" y="241.921" width="93.8322" height="42.5498" class="st3"/>
			<text x="32.85" y="252.4" class="st5" v:langID="2052"><v:paragraph v:horizAlign="1"/><v:tabList/>Mdns <tspan x="15.28"
						dy="1.2em" class="st6">Advertise </tspan><tspan x="15.28" dy="1.2em" class="st6">Discovery </tspan> </text>		</g>
		<g id="shape44-108" v:mID="44" v:groupContext="shape" v:layerMember="0" transform="translate(399.827,-168.697)">
			<title>动态连接线.198</title>
			<path d="M0 284.47 L20.98 321.98" class="st2"/>
		</g>
		<g id="shape45-111" v:mID="45" v:groupContext="shape" transform="translate(543.038,-15.0596)">
			<title>工作表.45</title>
			<desc>A node knows others in this cluster</desc>
			<v:textBlock v:margins="rect(4,4,4,4)" v:tabSpace="42.5197"/>
			<v:textRect cx="58.8292" cy="263.211" width="117.66" height="42.5197"/>
			<rect x="0" y="241.951" width="117.658" height="42.5197" class="st3"/>
			<text x="16.64" y="252.41" class="st5" v:langID="2052"><v:paragraph v:horizAlign="1"/><v:tabList/>A node knows <tspan
						x="9.61" dy="1.2em" class="st6">others in this </tspan><tspan x="34.22" dy="1.2em" class="st6">cluster</tspan></text>		</g>
		<g id="shape46-116" v:mID="46" v:groupContext="shape" transform="translate(379.377,-171.536)">
			<title>工作表.46</title>
			<desc>A</desc>
			<v:textBlock v:margins="rect(4,4,4,4)" v:tabSpace="42.5197"/>
			<v:textRect cx="8.2814" cy="277.108" width="16.57" height="14.7257"/>
			<rect x="0" y="269.745" width="16.5628" height="14.7257" class="st3"/>
			<text x="4.77" y="280.71" class="st7" v:langID="2052"><v:paragraph v:horizAlign="1"/><v:tabList/>A</text>		</g>
		<g id="shape47-119" v:mID="47" v:groupContext="shape" transform="translate(591.358,-170.926)">
			<title>工作表.47</title>
			<desc>A</desc>
			<v:textBlock v:margins="rect(4,4,4,4)" v:tabSpace="42.5197"/>
			<v:textRect cx="8.2814" cy="277.108" width="16.57" height="14.7257"/>
			<rect x="0" y="269.745" width="16.5628" height="14.7257" class="st3"/>
			<text x="4.77" y="280.71" class="st7" v:langID="2052"><v:paragraph v:horizAlign="1"/><v:tabList/>A</text>		</g>
		<g id="shape48-122" v:mID="48" v:groupContext="shape" transform="translate(167.751,-80.907)">
			<title>圆角矩形.418</title>
			<desc>LAN 2</desc>
			<v:userDefs>
				<v:ud v:nameU="CTypeTopLeftSnip" v:prompt="" v:val="VT0(0):5"/>
				<v:ud v:nameU="CTypeTopRightSnip" v:prompt="" v:val="VT0(0):5"/>
				<v:ud v:nameU="CTypeBotLeftSnip" v:prompt="" v:val="VT0(0):5"/>
				<v:ud v:nameU="CTypeBotRightSnip" v:prompt="" v:val="VT0(0):5"/>
				<v:ud v:nameU="CornerLockHoriz" v:prompt="" v:val="VT0(1):5"/>
				<v:ud v:nameU="CornerLockVert" v:prompt="" v:val="VT0(1):5"/>
				<v:ud v:nameU="CornerLockDiag" v:prompt="" v:val="VT0(0):5"/>
				<v:ud v:nameU="TopLeftOffset" v:prompt="" v:val="VT0(0.15748031496063):24"/>
				<v:ud v:nameU="TopRightOffset" v:prompt="" v:val="VT0(0.15748031496063):24"/>
				<v:ud v:nameU="BotLeftOffset" v:prompt="" v:val="VT0(0.15748031496063):24"/>
				<v:ud v:nameU="BotRightOffset" v:prompt="" v:val="VT0(0.15748031496063):24"/>
				<v:ud v:nameU="visVersion" v:prompt="" v:val="VT0(15):26"/>
				<v:ud v:nameU="TopLeftOffset" v:prompt="" v:val="VT0(0.012473184509074):1"/>
				<v:ud v:nameU="TopRightOffset" v:prompt="" v:val="VT0(0.012473184509074):1"/>
				<v:ud v:nameU="BotLeftOffset" v:prompt="" v:val="VT0(0.012473184509074):1"/>
				<v:ud v:nameU="BotRightOffset" v:prompt="" v:val="VT0(0.012473184509074):1"/>
			</v:userDefs>
			<v:textBlock v:margins="rect(4,4,4,4)" v:tabSpace="42.5197"/>
			<v:textRect cx="21.3916" cy="270.908" width="42.79" height="27.1258"/>
			<path d="M0.9 284.47 L41.89 284.47 a0.898055 0.898055 -180 0 0 0.898069 -0.898069 L42.78 258.24 a0.898055 0.898055 -180
						 0 0 -0.898069 -0.898069 L0.9 257.35 a0.898055 0.898055 -180 0 0 -0.898069 0.898069 L0 283.57 a0.898055 0.898055
						 -180 0 0 0.898069 0.898069 Z" class="st8"/>
			<text x="6.74" y="273.91" class="st9" v:langID="2052"><v:paragraph v:horizAlign="1"/><v:tabList/>LAN 2</text>		</g>
		<g id="shape49-125" v:mID="49" v:groupContext="shape" transform="translate(366.267,-80.907)">
			<title>圆角矩形.419</title>
			<desc>LAN 2</desc>
			<v:userDefs>
				<v:ud v:nameU="CTypeTopLeftSnip" v:prompt="" v:val="VT0(0):5"/>
				<v:ud v:nameU="CTypeTopRightSnip" v:prompt="" v:val="VT0(0):5"/>
				<v:ud v:nameU="CTypeBotLeftSnip" v:prompt="" v:val="VT0(0):5"/>
				<v:ud v:nameU="CTypeBotRightSnip" v:prompt="" v:val="VT0(0):5"/>
				<v:ud v:nameU="CornerLockHoriz" v:prompt="" v:val="VT0(1):5"/>
				<v:ud v:nameU="CornerLockVert" v:prompt="" v:val="VT0(1):5"/>
				<v:ud v:nameU="CornerLockDiag" v:prompt="" v:val="VT0(0):5"/>
				<v:ud v:nameU="TopLeftOffset" v:prompt="" v:val="VT0(0.15748031496063):24"/>
				<v:ud v:nameU="TopRightOffset" v:prompt="" v:val="VT0(0.15748031496063):24"/>
				<v:ud v:nameU="BotLeftOffset" v:prompt="" v:val="VT0(0.15748031496063):24"/>
				<v:ud v:nameU="BotRightOffset" v:prompt="" v:val="VT0(0.15748031496063):24"/>
				<v:ud v:nameU="visVersion" v:prompt="" v:val="VT0(15):26"/>
				<v:ud v:nameU="TopLeftOffset" v:prompt="" v:val="VT0(0.012473184509074):1"/>
				<v:ud v:nameU="TopRightOffset" v:prompt="" v:val="VT0(0.012473184509074):1"/>
				<v:ud v:nameU="BotLeftOffset" v:prompt="" v:val="VT0(0.012473184509074):1"/>
				<v:ud v:nameU="BotRightOffset" v:prompt="" v:val="VT0(0.012473184509074):1"/>
			</v:userDefs>
			<v:textBlock v:margins="rect(4,4,4,4)" v:tabSpace="42.5197"/>
			<v:textRect cx="21.3916" cy="270.908" width="42.79" height="27.1258"/>
			<path d="M0.9 284.47 L41.89 284.47 a0.898055 0.898055 -180 0 0 0.898069 -0.898069 L42.78 258.24 a0.898055 0.898055 -180
						 0 0 -0.898069 -0.898069 L0.9 257.35 a0.898055 0.898055 -180 0 0 -0.898069 0.898069 L0 283.57 a0.898055 0.898055
						 -180 0 0 0.898069 0.898069 Z" class="st8"/>
			<text x="6.74" y="273.91" class="st9" v:langID="2052"><v:paragraph v:horizAlign="1"/><v:tabList/>LAN 2</text>		</g>
		<g id="shape50-128" v:mID="50" v:groupContext="shape" transform="translate(578.248,-80.907)">
			<title>圆角矩形.420</title>
			<desc>LAN 2</desc>
			<v:userDefs>
				<v:ud v:nameU="CTypeTopLeftSnip" v:prompt="" v:val="VT0(0):5"/>
				<v:ud v:nameU="CTypeTopRightSnip" v:prompt="" v:val="VT0(0):5"/>
				<v:ud v:nameU="CTypeBotLeftSnip" v:prompt="" v:val="VT0(0):5"/>
				<v:ud v:nameU="CTypeBotRightSnip" v:prompt="" v:val="VT0(0):5"/>
				<v:ud v:nameU="CornerLockHoriz" v:prompt="" v:val="VT0(1):5"/>
				<v:ud v:nameU="CornerLockVert" v:prompt="" v:val="VT0(1):5"/>
				<v:ud v:nameU="CornerLockDiag" v:prompt="" v:val="VT0(0):5"/>
				<v:ud v:nameU="TopLeftOffset" v:prompt="" v:val="VT0(0.15748031496063):24"/>
				<v:ud v:nameU="TopRightOffset" v:prompt="" v:val="VT0(0.15748031496063):24"/>
				<v:ud v:nameU="BotLeftOffset" v:prompt="" v:val="VT0(0.15748031496063):24"/>
				<v:ud v:nameU="BotRightOffset" v:prompt="" v:val="VT0(0.15748031496063):24"/>
				<v:ud v:nameU="visVersion" v:prompt="" v:val="VT0(15):26"/>
				<v:ud v:nameU="TopLeftOffset" v:prompt="" v:val="VT0(0.012473184509074):1"/>
				<v:ud v:nameU="TopRightOffset" v:prompt="" v:val="VT0(0.012473184509074):1"/>
				<v:ud v:nameU="BotLeftOffset" v:prompt="" v:val="VT0(0.012473184509074):1"/>
				<v:ud v:nameU="BotRightOffset" v:prompt="" v:val="VT0(0.012473184509074):1"/>
			</v:userDefs>
			<v:textBlock v:margins="rect(4,4,4,4)" v:tabSpace="42.5197"/>
			<v:textRect cx="21.3916" cy="270.908" width="42.79" height="27.1258"/>
			<path d="M0.9 284.47 L41.89 284.47 a0.898055 0.898055 -180 0 0 0.898069 -0.898069 L42.78 258.24 a0.898055 0.898055 -180
						 0 0 -0.898069 -0.898069 L0.9 257.35 a0.898055 0.898055 -180 0 0 -0.898069 0.898069 L0 283.57 a0.898055 0.898055
						 -180 0 0 0.898069 0.898069 Z" class="st8"/>
			<text x="6.74" y="273.91" class="st9" v:langID="2052"><v:paragraph v:horizAlign="1"/><v:tabList/>LAN 2</text>		</g>
	</g>
</svg>
