<?xml version="1.0" encoding="UTF-8" standalone="no"?>
<!DOCTYPE svg PUBLIC "-//W3C//DTD SVG 1.1//EN" "http://www.w3.org/Graphics/SVG/1.1/DTD/svg11.dtd">
<!-- 由 Microsoft Visio, SVG Export 生成 case1.svg 页-1 -->
<svg xmlns="http://www.w3.org/2000/svg" xmlns:xlink="http://www.w3.org/1999/xlink" xmlns:ev="http://www.w3.org/2001/xml-events"
		xmlns:v="http://schemas.microsoft.com/visio/2003/SVGExtensions/" width="9.85294in" height="4.2292in"
		viewBox="0 0 709.411 304.502" xml:space="preserve" color-interpolation-filters="sRGB" class="st19">
	<v:documentProperties v:langID="2052" v:metric="true" v:viewMarkup="false"/>

	<style type="text/css">
	<![CDATA[
		.st1 {fill:#ffffff;stroke:#000000;stroke-linecap:round;stroke-linejoin:round;stroke-width:0.24}
		.st2 {fill:#ffffff;stroke:none;stroke-linecap:round;stroke-linejoin:round;stroke-width:0.24}
		.st3 {fill:#000000;font-family:Cascadia Code;font-size:0.833336em;font-weight:bold}
		.st4 {fill:#ff0000;fill-opacity:0.2;stroke:#ff0000;stroke-linecap:round;stroke-linejoin:round;stroke-opacity:0.7;stroke-width:2}
		.st5 {marker-end:url(#mrkr4-24);marker-start:url(#mrkr4-22);stroke:#000000;stroke-linecap:round;stroke-linejoin:round;stroke-width:0.75}
		.st6 {fill:#000000;fill-opacity:1;stroke:#000000;stroke-opacity:1;stroke-width:0.22935779816514}
		.st7 {fill:#9eccf5;fill-opacity:0.95;stroke:none;stroke-linecap:butt;stroke-width:0.0351562}
		.st8 {fill:#48a2ef;fill-opacity:0.95;stroke:none;stroke-linecap:butt;stroke-width:0.0351562}
		.st9 {fill:none;stroke:none;stroke-linecap:round;stroke-linejoin:round;stroke-width:0.75}
		.st10 {fill:#000000;font-family:Cascadia Code;font-size:1.5em;font-weight:bold}
		.st11 {fill:#000000;font-family:Cascadia Code;font-size:1.00001em;font-weight:bold}
		.st12 {fill:#000000;font-family:Cascadia Code;font-size:1.00001em}
		.st13 {font-size:1em}
		.st14 {stroke:#000000;stroke-linecap:round;stroke-linejoin:round;stroke-width:0.75}
		.st15 {marker-end:url(#mrkr4-180);stroke:#00b0f0;stroke-linecap:round;stroke-linejoin:round;stroke-width:2}
		.st16 {fill:#00b0f0;fill-opacity:1;stroke:#00b0f0;stroke-opacity:1;stroke-width:0.44247787610619}
		.st17 {fill:#ffffff;stroke:none;stroke-linecap:butt;stroke-width:7.2}
		.st18 {fill:#0070c0;font-family:Cascadia Code;font-size:0.666664em}
		.st19 {fill:none;fill-rule:evenodd;font-size:12px;overflow:visible;stroke-linecap:square;stroke-miterlimit:3}
	]]>
	</style>

	<defs id="Markers">
		<g id="lend4">
			<path d="M 2 1 L 0 0 L 2 -1 L 2 1 " style="stroke:none"/>
		</g>
		<marker id="mrkr4-22" class="st6" v:arrowType="4" v:arrowSize="2" v:setback="8.24" refX="8.24" orient="auto"
				markerUnits="strokeWidth" overflow="visible">
			<use xlink:href="#lend4" transform="scale(4.36) "/>
		</marker>
		<marker id="mrkr4-24" class="st6" v:arrowType="4" v:arrowSize="2" v:setback="8.72" refX="-8.72" orient="auto"
				markerUnits="strokeWidth" overflow="visible">
			<use xlink:href="#lend4" transform="scale(-4.36,-4.36) "/>
		</marker>
		<marker id="mrkr4-180" class="st16" v:arrowType="4" v:arrowSize="2" v:setback="4.52" refX="-4.52" orient="auto"
				markerUnits="strokeWidth" overflow="visible">
			<use xlink:href="#lend4" transform="scale(-2.26,-2.26) "/>
		</marker>
	</defs>
	<g v:mID="0" v:index="1" v:groupContext="foregroundPage">
		<title>页-1</title>
		<v:pageProperties v:drawingScale="0.0393701" v:pageScale="0.0393701" v:drawingUnits="24" v:shadowOffsetX="8.50394"
				v:shadowOffsetY="-8.50394"/>
		<v:layer v:name="连接线" v:index="0"/>
		<g id="shape1-1" v:mID="1" v:groupContext="shape" transform="translate(120.23,-101.705)">
			<title>Rounded Rectangle.19</title>
			<v:userDefs>
				<v:ud v:nameU="CTypeTopLeftSnip" v:prompt="" v:val="VT0(0):5"/>
				<v:ud v:nameU="CTypeTopRightSnip" v:prompt="" v:val="VT0(0):5"/>
				<v:ud v:nameU="CTypeBotLeftSnip" v:prompt="" v:val="VT0(0):5"/>
				<v:ud v:nameU="CTypeBotRightSnip" v:prompt="" v:val="VT0(0):5"/>
				<v:ud v:nameU="CornerLockHoriz" v:prompt="" v:val="VT0(1):5"/>
				<v:ud v:nameU="CornerLockVert" v:prompt="" v:val="VT0(1):5"/>
				<v:ud v:nameU="CornerLockDiag" v:prompt="" v:val="VT0(0):5"/>
				<v:ud v:nameU="TopLeftOffset" v:prompt="" v:val="VT0(0.15748031496063):24"/>
				<v:ud v:nameU="TopRightOffset" v:prompt="" v:val="VT0(0.15748031496063):24"/>
				<v:ud v:nameU="BotLeftOffset" v:prompt="" v:val="VT0(0.15748031496063):24"/>
				<v:ud v:nameU="BotRightOffset" v:prompt="" v:val="VT0(0.15748031496063):24"/>
				<v:ud v:nameU="visVersion" v:prompt="" v:val="VT0(15):26"/>
				<v:ud v:nameU="TopLeftOffset" v:prompt="" v:val="VT0(0.131065564466):1"/>
				<v:ud v:nameU="TopRightOffset" v:prompt="" v:val="VT0(0.131065564466):1"/>
				<v:ud v:nameU="BotLeftOffset" v:prompt="" v:val="VT0(0.131065564466):1"/>
				<v:ud v:nameU="BotRightOffset" v:prompt="" v:val="VT0(0.131065564466):1"/>
			</v:userDefs>
			<path d="M9.44 304.5 L132.11 304.5 A9.43657 9.43657 -180 0 0 141.55 295.07 L141.55 248.84 A9.43657 9.43657 -180 0 0 132.11
						 239.4 L9.44 239.4 A9.43657 9.43657 -180 0 0 0 248.84 L0 295.07 A9.43657 9.43657 -180 0 0 9.44 304.5 Z"
					class="st1"/>
		</g>
		<g id="shape2-3" v:mID="2" v:groupContext="shape" transform="translate(169.613,-90.3667)">
			<title>圆角矩形.380</title>
			<desc>LAN 2</desc>
			<v:userDefs>
				<v:ud v:nameU="CTypeTopLeftSnip" v:prompt="" v:val="VT0(0):5"/>
				<v:ud v:nameU="CTypeTopRightSnip" v:prompt="" v:val="VT0(0):5"/>
				<v:ud v:nameU="CTypeBotLeftSnip" v:prompt="" v:val="VT0(0):5"/>
				<v:ud v:nameU="CTypeBotRightSnip" v:prompt="" v:val="VT0(0):5"/>
				<v:ud v:nameU="CornerLockHoriz" v:prompt="" v:val="VT0(1):5"/>
				<v:ud v:nameU="CornerLockVert" v:prompt="" v:val="VT0(1):5"/>
				<v:ud v:nameU="CornerLockDiag" v:prompt="" v:val="VT0(0):5"/>
				<v:ud v:nameU="TopLeftOffset" v:prompt="" v:val="VT0(0.15748031496063):24"/>
				<v:ud v:nameU="TopRightOffset" v:prompt="" v:val="VT0(0.15748031496063):24"/>
				<v:ud v:nameU="BotLeftOffset" v:prompt="" v:val="VT0(0.15748031496063):24"/>
				<v:ud v:nameU="BotRightOffset" v:prompt="" v:val="VT0(0.15748031496063):24"/>
				<v:ud v:nameU="visVersion" v:prompt="" v:val="VT0(15):26"/>
				<v:ud v:nameU="TopLeftOffset" v:prompt="" v:val="VT0(0.012473184509074):1"/>
				<v:ud v:nameU="TopRightOffset" v:prompt="" v:val="VT0(0.012473184509074):1"/>
				<v:ud v:nameU="BotLeftOffset" v:prompt="" v:val="VT0(0.012473184509074):1"/>
				<v:ud v:nameU="BotRightOffset" v:prompt="" v:val="VT0(0.012473184509074):1"/>
			</v:userDefs>
			<v:textBlock v:margins="rect(4,4,4,4)" v:tabSpace="42.5197"/>
			<v:textRect cx="21.3916" cy="290.939" width="42.79" height="27.1258"/>
			<path d="M0.9 304.5 L41.89 304.5 a0.898055 0.898055 -180 0 0 0.898069 -0.898069 L42.78 278.27 a0.898055 0.898055 -180
						 0 0 -0.898069 -0.898069 L0.9 277.38 a0.898055 0.898055 -180 0 0 -0.898069 0.898069 L0 303.6 a0.898055 0.898055
						 -180 0 0 0.898069 0.898069 Z" class="st2"/>
			<text x="6.74" y="293.94" class="st3" v:langID="2052"><v:paragraph v:horizAlign="1"/><v:tabList/>LAN 2</text>		</g>
		<g id="shape3-6" v:mID="3" v:groupContext="shape" transform="translate(122.973,-223.69)">
			<title>圆角矩形.19</title>
			<v:userDefs>
				<v:ud v:nameU="CTypeTopLeftSnip" v:prompt="" v:val="VT0(0):5"/>
				<v:ud v:nameU="CTypeTopRightSnip" v:prompt="" v:val="VT0(0):5"/>
				<v:ud v:nameU="CTypeBotLeftSnip" v:prompt="" v:val="VT0(0):5"/>
				<v:ud v:nameU="CTypeBotRightSnip" v:prompt="" v:val="VT0(0):5"/>
				<v:ud v:nameU="CornerLockHoriz" v:prompt="" v:val="VT0(1):5"/>
				<v:ud v:nameU="CornerLockVert" v:prompt="" v:val="VT0(1):5"/>
				<v:ud v:nameU="CornerLockDiag" v:prompt="" v:val="VT0(0):5"/>
				<v:ud v:nameU="TopLeftOffset" v:prompt="" v:val="VT0(0.15748031496063):24"/>
				<v:ud v:nameU="TopRightOffset" v:prompt="" v:val="VT0(0.15748031496063):24"/>
				<v:ud v:nameU="BotLeftOffset" v:prompt="" v:val="VT0(0.15748031496063):24"/>
				<v:ud v:nameU="BotRightOffset" v:prompt="" v:val="VT0(0.15748031496063):24"/>
				<v:ud v:nameU="visVersion" v:prompt="" v:val="VT0(15):26"/>
				<v:ud v:nameU="TopLeftOffset" v:prompt="" v:val="VT0(0.131065564466):1"/>
				<v:ud v:nameU="TopRightOffset" v:prompt="" v:val="VT0(0.131065564466):1"/>
				<v:ud v:nameU="BotLeftOffset" v:prompt="" v:val="VT0(0.131065564466):1"/>
				<v:ud v:nameU="BotRightOffset" v:prompt="" v:val="VT0(0.131065564466):1"/>
			</v:userDefs>
			<path d="M9.44 304.5 L132.11 304.5 A9.43657 9.43657 -180 0 0 141.55 295.07 L141.55 248.84 A9.43657 9.43657 -180 0 0 132.11
						 239.4 L9.44 239.4 A9.43657 9.43657 -180 0 0 0 248.84 L0 295.07 A9.43657 9.43657 -180 0 0 9.44 304.5 Z"
					class="st1"/>
		</g>
		<g id="shape4-8" v:mID="4" v:groupContext="shape" transform="translate(130.051,-239.965)">
			<title>圆形.10</title>
			<v:userDefs>
				<v:ud v:nameU="visVersion" v:val="VT0(15):26"/>
			</v:userDefs>
			<path d="M0 290.94 A17.6938 13.5629 0 1 1 35.39 290.94 A17.6938 13.5629 0 1 1 0 290.94 Z" class="st4"/>
		</g>
		<g id="shape5-10" v:mID="5" v:groupContext="shape" transform="translate(222.059,-239.965)">
			<title>圆形.11</title>
			<v:userDefs>
				<v:ud v:nameU="visVersion" v:val="VT0(15):26"/>
			</v:userDefs>
			<path d="M0 290.94 A17.6938 13.5629 0 1 1 35.39 290.94 A17.6938 13.5629 0 1 1 0 290.94 Z" class="st1"/>
		</g>
		<g id="shape6-12" v:mID="6" v:groupContext="shape" transform="translate(130.051,-112.474)">
			<title>圆形.12</title>
			<v:userDefs>
				<v:ud v:nameU="visVersion" v:val="VT0(15):26"/>
			</v:userDefs>
			<path d="M0 290.94 A17.6938 13.5629 0 1 1 35.39 290.94 A17.6938 13.5629 0 1 1 0 290.94 Z" class="st1"/>
		</g>
		<g id="shape7-14" v:mID="7" v:groupContext="shape" transform="translate(222.059,-112.474)">
			<title>圆形.13</title>
			<v:userDefs>
				<v:ud v:nameU="visVersion" v:val="VT0(15):26"/>
			</v:userDefs>
			<path d="M0 290.94 A17.6938 13.5629 0 1 1 35.39 290.94 A17.6938 13.5629 0 1 1 0 290.94 Z" class="st4"/>
		</g>
		<g id="shape8-16" v:mID="8" v:groupContext="shape" v:layerMember="0" transform="translate(165.439,-246.442)">
			<title>动态连接线.14</title>
			<path d="M6.18 297.42 L6.54 297.42 L50.08 297.42" class="st5"/>
		</g>
		<g id="shape9-25" v:mID="9" v:groupContext="shape" v:layerMember="0" transform="translate(232.666,-239.965)">
			<title>动态连接线.15</title>
			<path d="M7.09 310.68 L7.09 311.04 L7.09 398.33" class="st5"/>
		</g>
		<g id="shape10-32" v:mID="10" v:groupContext="shape" v:layerMember="0" transform="translate(140.658,-239.965)">
			<title>动态连接线.16</title>
			<path d="M7.09 310.68 L7.09 311.04 L7.09 398.33" class="st5"/>
		</g>
		<g id="group11-39" transform="translate(332.737,-177.16)" v:mID="11" v:groupContext="group">
			<title>工作表.11</title>
			<g id="shape12-40" v:mID="12" v:groupContext="shape" transform="translate(0.02625,5.68434E-14)">
				<title>工作表.12</title>
				<path d="M29.51 274.97 C30.48 275.95 30.47 277.55 29.47 278.55 L19.53 288.5 C18.53 289.5 16.93 289.51 15.95 288.54
							 C14.98 287.56 14.99 285.96 15.99 284.96 L25.93 275.01 C26.93 274.01 28.53 273.99 29.51 274.97 L29.51
							 274.97 ZM14.53 289.96 C15.51 290.94 15.49 292.54 14.49 293.54 L4.55 303.49 C3.55 304.49 1.95 304.5 0.98
							 303.53 C0 302.55 0.02 300.95 1.01 299.95 L10.96 290 C11.95 289 13.55 288.98 14.53 289.96 Z"
						class="st7"/>
			</g>
			<g id="shape13-42" v:mID="13" v:groupContext="shape" transform="translate(1.15907E-13,-0.018)">
				<title>工作表.13</title>
				<path d="M29.49 303.53 C28.51 304.5 26.91 304.49 25.92 303.49 L1.01 278.57 C0.02 277.57 0 275.97 0.98 274.99 C1.95
							 274.01 3.55 274.03 4.55 275.03 L29.45 299.95 C30.45 300.95 30.46 302.55 29.49 303.53 L29.49 303.53 Z"
						class="st8"/>
			</g>
		</g>
		<g id="shape14-44" v:mID="14" v:groupContext="shape" transform="translate(172.357,-275.839)">
			<title>圆角矩形.174</title>
			<desc>LAN 1</desc>
			<v:userDefs>
				<v:ud v:nameU="CTypeTopLeftSnip" v:prompt="" v:val="VT0(0):5"/>
				<v:ud v:nameU="CTypeTopRightSnip" v:prompt="" v:val="VT0(0):5"/>
				<v:ud v:nameU="CTypeBotLeftSnip" v:prompt="" v:val="VT0(0):5"/>
				<v:ud v:nameU="CTypeBotRightSnip" v:prompt="" v:val="VT0(0):5"/>
				<v:ud v:nameU="CornerLockHoriz" v:prompt="" v:val="VT0(1):5"/>
				<v:ud v:nameU="CornerLockVert" v:prompt="" v:val="VT0(1):5"/>
				<v:ud v:nameU="CornerLockDiag" v:prompt="" v:val="VT0(0):5"/>
				<v:ud v:nameU="TopLeftOffset" v:prompt="" v:val="VT0(0.15748031496063):24"/>
				<v:ud v:nameU="TopRightOffset" v:prompt="" v:val="VT0(0.15748031496063):24"/>
				<v:ud v:nameU="BotLeftOffset" v:prompt="" v:val="VT0(0.15748031496063):24"/>
				<v:ud v:nameU="BotRightOffset" v:prompt="" v:val="VT0(0.15748031496063):24"/>
				<v:ud v:nameU="visVersion" v:prompt="" v:val="VT0(15):26"/>
				<v:ud v:nameU="TopLeftOffset" v:prompt="" v:val="VT0(0.012473184509074):1"/>
				<v:ud v:nameU="TopRightOffset" v:prompt="" v:val="VT0(0.012473184509074):1"/>
				<v:ud v:nameU="BotLeftOffset" v:prompt="" v:val="VT0(0.012473184509074):1"/>
				<v:ud v:nameU="BotRightOffset" v:prompt="" v:val="VT0(0.012473184509074):1"/>
			</v:userDefs>
			<v:textBlock v:margins="rect(4,4,4,4)" v:tabSpace="42.5197"/>
			<v:textRect cx="21.3916" cy="290.939" width="42.79" height="27.1258"/>
			<path d="M0.9 304.5 L41.89 304.5 a0.898055 0.898055 -180 0 0 0.898069 -0.898069 L42.78 278.27 a0.898055 0.898055 -180
						 0 0 -0.898069 -0.898069 L0.9 277.38 a0.898055 0.898055 -180 0 0 -0.898069 0.898069 L0 303.6 a0.898055 0.898055
						 -180 0 0 0.898069 0.898069 Z" class="st2"/>
			<text x="6.74" y="293.94" class="st3" v:langID="2052"><v:paragraph v:horizAlign="1"/><v:tabList/>LAN 1</text>		</g>
		<g id="shape15-47" v:mID="15" v:groupContext="shape" transform="translate(0.375,-239.753)">
			<title>工作表.15</title>
			<desc>Relay</desc>
			<v:textBlock v:margins="rect(4,4,4,4)" v:tabSpace="42.5197"/>
			<v:textRect cx="54.2126" cy="289.248" width="108.43" height="30.5085"/>
			<rect x="0" y="273.994" width="108.425" height="30.5085" class="st9"/>
			<text x="27.85" y="294.65" class="st10" v:langID="2052"><v:paragraph v:horizAlign="1"/><v:tabList/>Relay</text>		</g>
		<g id="shape16-50" v:mID="16" v:groupContext="shape" transform="translate(139.536,-118.713)">
			<title>工作表.16</title>
			<desc>A</desc>
			<v:textBlock v:margins="rect(4,4,4,4)" v:tabSpace="42.5197"/>
			<v:textRect cx="8.2814" cy="297.14" width="16.57" height="14.7257"/>
			<rect x="0" y="289.777" width="16.5628" height="14.7257" class="st9"/>
			<text x="4.77" y="300.74" class="st11" v:langID="2052"><v:paragraph v:horizAlign="1"/><v:tabList/>A</text>		</g>
		<g id="shape17-53" v:mID="17" v:groupContext="shape" transform="translate(225.021,-118.713)">
			<title>工作表.17</title>
			<desc>R2</desc>
			<v:textBlock v:margins="rect(4,4,4,4)" v:tabSpace="42.5197"/>
			<v:textRect cx="15.255" cy="297.14" width="30.51" height="14.7257"/>
			<rect x="0" y="289.777" width="30.51" height="14.7257" class="st9"/>
			<text x="8.22" y="300.74" class="st11" v:langID="2052"><v:paragraph v:horizAlign="1"/><v:tabList/>R2</text>		</g>
		<g id="shape18-56" v:mID="18" v:groupContext="shape" transform="translate(231.399,-245.72)">
			<title>工作表.18</title>
			<desc>B</desc>
			<v:textBlock v:margins="rect(4,4,4,4)" v:tabSpace="42.5197"/>
			<v:textRect cx="8.2814" cy="297.14" width="16.57" height="14.7257"/>
			<rect x="0" y="289.777" width="16.5628" height="14.7257" class="st9"/>
			<text x="4.77" y="300.74" class="st11" v:langID="2052"><v:paragraph v:horizAlign="1"/><v:tabList/>B</text>		</g>
		<g id="shape19-59" v:mID="19" v:groupContext="shape" transform="translate(311.014,-13.8312)">
			<title>工作表.19</title>
			<desc>A disconnect from R1</desc>
			<v:textBlock v:margins="rect(4,4,4,4)" v:tabSpace="42.5197"/>
			<v:textRect cx="79.8789" cy="283.243" width="159.76" height="42.5197"/>
			<rect x="0" y="261.983" width="159.758" height="42.5197" class="st9"/>
			<text x="9.57" y="286.84" class="st12" v:langID="2052"><v:paragraph v:horizAlign="1"/><v:tabList/>A disconnect from R1</text>		</g>
		<g id="shape20-62" v:mID="20" v:groupContext="shape" transform="translate(515.195,-3.21181)">
			<title>工作表.20</title>
			<desc>A use R2 as the new Realy to connect B sustaining Service:Lin...</desc>
			<v:textBlock v:margins="rect(4,4,4,4)" v:tabSpace="42.5197"/>
			<v:textRect cx="96.9208" cy="275.389" width="193.85" height="58.227"/>
			<rect x="0" y="246.275" width="193.842" height="58.227" class="st9"/>
			<text x="9.03" y="264.59" class="st12" v:langID="2052"><v:paragraph v:horizAlign="1"/><v:tabList/>A use R2 as the new Realy <tspan
						x="12.55" dy="1.2em" class="st13">to connect B  sustaining </tspan><tspan x="47.7" dy="1.2em" class="st13">Service:Linkab</tspan></text>		</g>
		<g id="shape21-67" v:mID="21" v:groupContext="shape" transform="translate(132.148,-245.996)">
			<title>工作表.21</title>
			<desc>R1</desc>
			<v:textBlock v:margins="rect(4,4,4,4)" v:tabSpace="42.5197"/>
			<v:textRect cx="15.255" cy="297.14" width="30.51" height="14.7257"/>
			<rect x="0" y="289.777" width="30.51" height="14.7257" class="st9"/>
			<text x="8.22" y="300.74" class="st11" v:langID="2052"><v:paragraph v:horizAlign="1"/><v:tabList/>R1</text>		</g>
		<g id="shape22-70" v:mID="22" v:groupContext="shape" transform="translate(320.117,-103.123)">
			<title>Rounded Rectangle.381</title>
			<v:userDefs>
				<v:ud v:nameU="CTypeTopLeftSnip" v:prompt="" v:val="VT0(0):5"/>
				<v:ud v:nameU="CTypeTopRightSnip" v:prompt="" v:val="VT0(0):5"/>
				<v:ud v:nameU="CTypeBotLeftSnip" v:prompt="" v:val="VT0(0):5"/>
				<v:ud v:nameU="CTypeBotRightSnip" v:prompt="" v:val="VT0(0):5"/>
				<v:ud v:nameU="CornerLockHoriz" v:prompt="" v:val="VT0(1):5"/>
				<v:ud v:nameU="CornerLockVert" v:prompt="" v:val="VT0(1):5"/>
				<v:ud v:nameU="CornerLockDiag" v:prompt="" v:val="VT0(0):5"/>
				<v:ud v:nameU="TopLeftOffset" v:prompt="" v:val="VT0(0.15748031496063):24"/>
				<v:ud v:nameU="TopRightOffset" v:prompt="" v:val="VT0(0.15748031496063):24"/>
				<v:ud v:nameU="BotLeftOffset" v:prompt="" v:val="VT0(0.15748031496063):24"/>
				<v:ud v:nameU="BotRightOffset" v:prompt="" v:val="VT0(0.15748031496063):24"/>
				<v:ud v:nameU="visVersion" v:prompt="" v:val="VT0(15):26"/>
				<v:ud v:nameU="TopLeftOffset" v:prompt="" v:val="VT0(0.131065564466):1"/>
				<v:ud v:nameU="TopRightOffset" v:prompt="" v:val="VT0(0.131065564466):1"/>
				<v:ud v:nameU="BotLeftOffset" v:prompt="" v:val="VT0(0.131065564466):1"/>
				<v:ud v:nameU="BotRightOffset" v:prompt="" v:val="VT0(0.131065564466):1"/>
			</v:userDefs>
			<path d="M9.44 304.5 L132.11 304.5 A9.43657 9.43657 -180 0 0 141.55 295.07 L141.55 248.84 A9.43657 9.43657 -180 0 0 132.11
						 239.4 L9.44 239.4 A9.43657 9.43657 -180 0 0 0 248.84 L0 295.07 A9.43657 9.43657 -180 0 0 9.44 304.5 Z"
					class="st1"/>
		</g>
		<g id="shape23-72" v:mID="23" v:groupContext="shape" transform="translate(369.501,-90.3666)">
			<title>圆角矩形.382</title>
			<desc>LAN 2</desc>
			<v:userDefs>
				<v:ud v:nameU="CTypeTopLeftSnip" v:prompt="" v:val="VT0(0):5"/>
				<v:ud v:nameU="CTypeTopRightSnip" v:prompt="" v:val="VT0(0):5"/>
				<v:ud v:nameU="CTypeBotLeftSnip" v:prompt="" v:val="VT0(0):5"/>
				<v:ud v:nameU="CTypeBotRightSnip" v:prompt="" v:val="VT0(0):5"/>
				<v:ud v:nameU="CornerLockHoriz" v:prompt="" v:val="VT0(1):5"/>
				<v:ud v:nameU="CornerLockVert" v:prompt="" v:val="VT0(1):5"/>
				<v:ud v:nameU="CornerLockDiag" v:prompt="" v:val="VT0(0):5"/>
				<v:ud v:nameU="TopLeftOffset" v:prompt="" v:val="VT0(0.15748031496063):24"/>
				<v:ud v:nameU="TopRightOffset" v:prompt="" v:val="VT0(0.15748031496063):24"/>
				<v:ud v:nameU="BotLeftOffset" v:prompt="" v:val="VT0(0.15748031496063):24"/>
				<v:ud v:nameU="BotRightOffset" v:prompt="" v:val="VT0(0.15748031496063):24"/>
				<v:ud v:nameU="visVersion" v:prompt="" v:val="VT0(15):26"/>
				<v:ud v:nameU="TopLeftOffset" v:prompt="" v:val="VT0(0.012473184509074):1"/>
				<v:ud v:nameU="TopRightOffset" v:prompt="" v:val="VT0(0.012473184509074):1"/>
				<v:ud v:nameU="BotLeftOffset" v:prompt="" v:val="VT0(0.012473184509074):1"/>
				<v:ud v:nameU="BotRightOffset" v:prompt="" v:val="VT0(0.012473184509074):1"/>
			</v:userDefs>
			<v:textBlock v:margins="rect(4,4,4,4)" v:tabSpace="42.5197"/>
			<v:textRect cx="21.3916" cy="290.939" width="42.79" height="27.1258"/>
			<path d="M0.9 304.5 L41.89 304.5 a0.898055 0.898055 -180 0 0 0.898069 -0.898069 L42.78 278.27 a0.898055 0.898055 -180
						 0 0 -0.898069 -0.898069 L0.9 277.38 a0.898055 0.898055 -180 0 0 -0.898069 0.898069 L0 303.6 a0.898055 0.898055
						 -180 0 0 0.898069 0.898069 Z" class="st2"/>
			<text x="6.74" y="293.94" class="st3" v:langID="2052"><v:paragraph v:horizAlign="1"/><v:tabList/>LAN 2</text>		</g>
		<g id="shape24-75" v:mID="24" v:groupContext="shape" transform="translate(322.861,-225.107)">
			<title>圆角矩形.383</title>
			<v:userDefs>
				<v:ud v:nameU="CTypeTopLeftSnip" v:prompt="" v:val="VT0(0):5"/>
				<v:ud v:nameU="CTypeTopRightSnip" v:prompt="" v:val="VT0(0):5"/>
				<v:ud v:nameU="CTypeBotLeftSnip" v:prompt="" v:val="VT0(0):5"/>
				<v:ud v:nameU="CTypeBotRightSnip" v:prompt="" v:val="VT0(0):5"/>
				<v:ud v:nameU="CornerLockHoriz" v:prompt="" v:val="VT0(1):5"/>
				<v:ud v:nameU="CornerLockVert" v:prompt="" v:val="VT0(1):5"/>
				<v:ud v:nameU="CornerLockDiag" v:prompt="" v:val="VT0(0):5"/>
				<v:ud v:nameU="TopLeftOffset" v:prompt="" v:val="VT0(0.15748031496063):24"/>
				<v:ud v:nameU="TopRightOffset" v:prompt="" v:val="VT0(0.15748031496063):24"/>
				<v:ud v:nameU="BotLeftOffset" v:prompt="" v:val="VT0(0.15748031496063):24"/>
				<v:ud v:nameU="BotRightOffset" v:prompt="" v:val="VT0(0.15748031496063):24"/>
				<v:ud v:nameU="visVersion" v:prompt="" v:val="VT0(15):26"/>
				<v:ud v:nameU="TopLeftOffset" v:prompt="" v:val="VT0(0.131065564466):1"/>
				<v:ud v:nameU="TopRightOffset" v:prompt="" v:val="VT0(0.131065564466):1"/>
				<v:ud v:nameU="BotLeftOffset" v:prompt="" v:val="VT0(0.131065564466):1"/>
				<v:ud v:nameU="BotRightOffset" v:prompt="" v:val="VT0(0.131065564466):1"/>
			</v:userDefs>
			<path d="M9.44 304.5 L132.11 304.5 A9.43657 9.43657 -180 0 0 141.55 295.07 L141.55 248.84 A9.43657 9.43657 -180 0 0 132.11
						 239.4 L9.44 239.4 A9.43657 9.43657 -180 0 0 0 248.84 L0 295.07 A9.43657 9.43657 -180 0 0 9.44 304.5 Z"
					class="st1"/>
		</g>
		<g id="shape25-77" v:mID="25" v:groupContext="shape" transform="translate(329.939,-241.383)">
			<title>圆形.384</title>
			<v:userDefs>
				<v:ud v:nameU="visVersion" v:val="VT0(15):26"/>
			</v:userDefs>
			<path d="M0 290.94 A17.6938 13.5629 0 1 1 35.39 290.94 A17.6938 13.5629 0 1 1 0 290.94 Z" class="st4"/>
		</g>
		<g id="shape26-79" v:mID="26" v:groupContext="shape" transform="translate(421.947,-241.383)">
			<title>圆形.385</title>
			<v:userDefs>
				<v:ud v:nameU="visVersion" v:val="VT0(15):26"/>
			</v:userDefs>
			<path d="M0 290.94 A17.6938 13.5629 0 1 1 35.39 290.94 A17.6938 13.5629 0 1 1 0 290.94 Z" class="st1"/>
		</g>
		<g id="shape27-81" v:mID="27" v:groupContext="shape" transform="translate(329.939,-113.891)">
			<title>圆形.386</title>
			<v:userDefs>
				<v:ud v:nameU="visVersion" v:val="VT0(15):26"/>
			</v:userDefs>
			<path d="M0 290.94 A17.6938 13.5629 0 1 1 35.39 290.94 A17.6938 13.5629 0 1 1 0 290.94 Z" class="st1"/>
		</g>
		<g id="shape28-83" v:mID="28" v:groupContext="shape" transform="translate(421.947,-113.891)">
			<title>圆形.387</title>
			<v:userDefs>
				<v:ud v:nameU="visVersion" v:val="VT0(15):26"/>
			</v:userDefs>
			<path d="M0 290.94 A17.6938 13.5629 0 1 1 35.39 290.94 A17.6938 13.5629 0 1 1 0 290.94 Z" class="st4"/>
		</g>
		<g id="shape29-85" v:mID="29" v:groupContext="shape" v:layerMember="0" transform="translate(365.327,-247.859)">
			<title>动态连接线.388</title>
			<path d="M6.18 297.42 L6.54 297.42 L50.08 297.42" class="st5"/>
		</g>
		<g id="shape30-92" v:mID="30" v:groupContext="shape" v:layerMember="0" transform="translate(432.554,-241.383)">
			<title>动态连接线.389</title>
			<path d="M7.09 310.68 L7.09 311.04 L7.09 398.33" class="st5"/>
		</g>
		<g id="shape31-99" v:mID="31" v:groupContext="shape" v:layerMember="0" transform="translate(340.546,-241.383)">
			<title>Dynamic connector.16</title>
			<path d="M7.09 304.5 L7.09 404.87" class="st14"/>
		</g>
		<g id="shape32-102" v:mID="32" v:groupContext="shape" transform="translate(372.245,-277.257)">
			<title>圆角矩形.391</title>
			<desc>LAN 1</desc>
			<v:userDefs>
				<v:ud v:nameU="CTypeTopLeftSnip" v:prompt="" v:val="VT0(0):5"/>
				<v:ud v:nameU="CTypeTopRightSnip" v:prompt="" v:val="VT0(0):5"/>
				<v:ud v:nameU="CTypeBotLeftSnip" v:prompt="" v:val="VT0(0):5"/>
				<v:ud v:nameU="CTypeBotRightSnip" v:prompt="" v:val="VT0(0):5"/>
				<v:ud v:nameU="CornerLockHoriz" v:prompt="" v:val="VT0(1):5"/>
				<v:ud v:nameU="CornerLockVert" v:prompt="" v:val="VT0(1):5"/>
				<v:ud v:nameU="CornerLockDiag" v:prompt="" v:val="VT0(0):5"/>
				<v:ud v:nameU="TopLeftOffset" v:prompt="" v:val="VT0(0.15748031496063):24"/>
				<v:ud v:nameU="TopRightOffset" v:prompt="" v:val="VT0(0.15748031496063):24"/>
				<v:ud v:nameU="BotLeftOffset" v:prompt="" v:val="VT0(0.15748031496063):24"/>
				<v:ud v:nameU="BotRightOffset" v:prompt="" v:val="VT0(0.15748031496063):24"/>
				<v:ud v:nameU="visVersion" v:prompt="" v:val="VT0(15):26"/>
				<v:ud v:nameU="TopLeftOffset" v:prompt="" v:val="VT0(0.012473184509074):1"/>
				<v:ud v:nameU="TopRightOffset" v:prompt="" v:val="VT0(0.012473184509074):1"/>
				<v:ud v:nameU="BotLeftOffset" v:prompt="" v:val="VT0(0.012473184509074):1"/>
				<v:ud v:nameU="BotRightOffset" v:prompt="" v:val="VT0(0.012473184509074):1"/>
			</v:userDefs>
			<v:textBlock v:margins="rect(4,4,4,4)" v:tabSpace="42.5197"/>
			<v:textRect cx="21.3916" cy="290.939" width="42.79" height="27.1258"/>
			<path d="M0.9 304.5 L41.89 304.5 a0.898055 0.898055 -180 0 0 0.898069 -0.898069 L42.78 278.27 a0.898055 0.898055 -180
						 0 0 -0.898069 -0.898069 L0.9 277.38 a0.898055 0.898055 -180 0 0 -0.898069 0.898069 L0 303.6 a0.898055 0.898055
						 -180 0 0 0.898069 0.898069 Z" class="st2"/>
			<text x="6.74" y="293.94" class="st3" v:langID="2052"><v:paragraph v:horizAlign="1"/><v:tabList/>LAN 1</text>		</g>
		<g id="shape33-105" v:mID="33" v:groupContext="shape" transform="translate(339.424,-120.13)">
			<title>工作表.33</title>
			<desc>A</desc>
			<v:textBlock v:margins="rect(4,4,4,4)" v:tabSpace="42.5197"/>
			<v:textRect cx="8.2814" cy="297.14" width="16.57" height="14.7257"/>
			<rect x="0" y="289.777" width="16.5628" height="14.7257" class="st9"/>
			<text x="4.77" y="300.74" class="st11" v:langID="2052"><v:paragraph v:horizAlign="1"/><v:tabList/>A</text>		</g>
		<g id="shape34-108" v:mID="34" v:groupContext="shape" transform="translate(424.909,-120.13)">
			<title>工作表.34</title>
			<desc>R2</desc>
			<v:textBlock v:margins="rect(4,4,4,4)" v:tabSpace="42.5197"/>
			<v:textRect cx="15.255" cy="297.14" width="30.51" height="14.7257"/>
			<rect x="0" y="289.777" width="30.51" height="14.7257" class="st9"/>
			<text x="8.22" y="300.74" class="st11" v:langID="2052"><v:paragraph v:horizAlign="1"/><v:tabList/>R2</text>		</g>
		<g id="shape35-111" v:mID="35" v:groupContext="shape" transform="translate(431.287,-247.137)">
			<title>工作表.35</title>
			<desc>B</desc>
			<v:textBlock v:margins="rect(4,4,4,4)" v:tabSpace="42.5197"/>
			<v:textRect cx="8.2814" cy="297.14" width="16.57" height="14.7257"/>
			<rect x="0" y="289.777" width="16.5628" height="14.7257" class="st9"/>
			<text x="4.77" y="300.74" class="st11" v:langID="2052"><v:paragraph v:horizAlign="1"/><v:tabList/>B</text>		</g>
		<g id="shape36-114" v:mID="36" v:groupContext="shape" transform="translate(332.036,-247.413)">
			<title>工作表.36</title>
			<desc>R1</desc>
			<v:textBlock v:margins="rect(4,4,4,4)" v:tabSpace="42.5197"/>
			<v:textRect cx="15.255" cy="297.14" width="30.51" height="14.7257"/>
			<rect x="0" y="289.777" width="30.51" height="14.7257" class="st9"/>
			<text x="8.22" y="300.74" class="st11" v:langID="2052"><v:paragraph v:horizAlign="1"/><v:tabList/>R1</text>		</g>
		<g id="shape37-117" v:mID="37" v:groupContext="shape" transform="translate(532.716,-103.123)">
			<title>Rounded Rectangle.396</title>
			<v:userDefs>
				<v:ud v:nameU="CTypeTopLeftSnip" v:prompt="" v:val="VT0(0):5"/>
				<v:ud v:nameU="CTypeTopRightSnip" v:prompt="" v:val="VT0(0):5"/>
				<v:ud v:nameU="CTypeBotLeftSnip" v:prompt="" v:val="VT0(0):5"/>
				<v:ud v:nameU="CTypeBotRightSnip" v:prompt="" v:val="VT0(0):5"/>
				<v:ud v:nameU="CornerLockHoriz" v:prompt="" v:val="VT0(1):5"/>
				<v:ud v:nameU="CornerLockVert" v:prompt="" v:val="VT0(1):5"/>
				<v:ud v:nameU="CornerLockDiag" v:prompt="" v:val="VT0(0):5"/>
				<v:ud v:nameU="TopLeftOffset" v:prompt="" v:val="VT0(0.15748031496063):24"/>
				<v:ud v:nameU="TopRightOffset" v:prompt="" v:val="VT0(0.15748031496063):24"/>
				<v:ud v:nameU="BotLeftOffset" v:prompt="" v:val="VT0(0.15748031496063):24"/>
				<v:ud v:nameU="BotRightOffset" v:prompt="" v:val="VT0(0.15748031496063):24"/>
				<v:ud v:nameU="visVersion" v:prompt="" v:val="VT0(15):26"/>
				<v:ud v:nameU="TopLeftOffset" v:prompt="" v:val="VT0(0.131065564466):1"/>
				<v:ud v:nameU="TopRightOffset" v:prompt="" v:val="VT0(0.131065564466):1"/>
				<v:ud v:nameU="BotLeftOffset" v:prompt="" v:val="VT0(0.131065564466):1"/>
				<v:ud v:nameU="BotRightOffset" v:prompt="" v:val="VT0(0.131065564466):1"/>
			</v:userDefs>
			<path d="M9.44 304.5 L132.11 304.5 A9.43657 9.43657 -180 0 0 141.55 295.07 L141.55 248.84 A9.43657 9.43657 -180 0 0 132.11
						 239.4 L9.44 239.4 A9.43657 9.43657 -180 0 0 0 248.84 L0 295.07 A9.43657 9.43657 -180 0 0 9.44 304.5 Z"
					class="st1"/>
		</g>
		<g id="shape38-119" v:mID="38" v:groupContext="shape" transform="translate(584.844,-90.9769)">
			<title>圆角矩形.397</title>
			<desc>LAN 2</desc>
			<v:userDefs>
				<v:ud v:nameU="CTypeTopLeftSnip" v:prompt="" v:val="VT0(0):5"/>
				<v:ud v:nameU="CTypeTopRightSnip" v:prompt="" v:val="VT0(0):5"/>
				<v:ud v:nameU="CTypeBotLeftSnip" v:prompt="" v:val="VT0(0):5"/>
				<v:ud v:nameU="CTypeBotRightSnip" v:prompt="" v:val="VT0(0):5"/>
				<v:ud v:nameU="CornerLockHoriz" v:prompt="" v:val="VT0(1):5"/>
				<v:ud v:nameU="CornerLockVert" v:prompt="" v:val="VT0(1):5"/>
				<v:ud v:nameU="CornerLockDiag" v:prompt="" v:val="VT0(0):5"/>
				<v:ud v:nameU="TopLeftOffset" v:prompt="" v:val="VT0(0.15748031496063):24"/>
				<v:ud v:nameU="TopRightOffset" v:prompt="" v:val="VT0(0.15748031496063):24"/>
				<v:ud v:nameU="BotLeftOffset" v:prompt="" v:val="VT0(0.15748031496063):24"/>
				<v:ud v:nameU="BotRightOffset" v:prompt="" v:val="VT0(0.15748031496063):24"/>
				<v:ud v:nameU="visVersion" v:prompt="" v:val="VT0(15):26"/>
				<v:ud v:nameU="TopLeftOffset" v:prompt="" v:val="VT0(0.012473184509074):1"/>
				<v:ud v:nameU="TopRightOffset" v:prompt="" v:val="VT0(0.012473184509074):1"/>
				<v:ud v:nameU="BotLeftOffset" v:prompt="" v:val="VT0(0.012473184509074):1"/>
				<v:ud v:nameU="BotRightOffset" v:prompt="" v:val="VT0(0.012473184509074):1"/>
			</v:userDefs>
			<v:textBlock v:margins="rect(4,4,4,4)" v:tabSpace="42.5197"/>
			<v:textRect cx="21.3916" cy="290.939" width="42.79" height="27.1258"/>
			<path d="M0.9 304.5 L41.89 304.5 a0.898055 0.898055 -180 0 0 0.898069 -0.898069 L42.78 278.27 a0.898055 0.898055 -180
						 0 0 -0.898069 -0.898069 L0.9 277.38 a0.898055 0.898055 -180 0 0 -0.898069 0.898069 L0 303.6 a0.898055 0.898055
						 -180 0 0 0.898069 0.898069 Z" class="st2"/>
			<text x="6.74" y="293.94" class="st3" v:langID="2052"><v:paragraph v:horizAlign="1"/><v:tabList/>LAN 2</text>		</g>
		<g id="shape39-122" v:mID="39" v:groupContext="shape" transform="translate(535.46,-225.107)">
			<title>圆角矩形.398</title>
			<v:userDefs>
				<v:ud v:nameU="CTypeTopLeftSnip" v:prompt="" v:val="VT0(0):5"/>
				<v:ud v:nameU="CTypeTopRightSnip" v:prompt="" v:val="VT0(0):5"/>
				<v:ud v:nameU="CTypeBotLeftSnip" v:prompt="" v:val="VT0(0):5"/>
				<v:ud v:nameU="CTypeBotRightSnip" v:prompt="" v:val="VT0(0):5"/>
				<v:ud v:nameU="CornerLockHoriz" v:prompt="" v:val="VT0(1):5"/>
				<v:ud v:nameU="CornerLockVert" v:prompt="" v:val="VT0(1):5"/>
				<v:ud v:nameU="CornerLockDiag" v:prompt="" v:val="VT0(0):5"/>
				<v:ud v:nameU="TopLeftOffset" v:prompt="" v:val="VT0(0.15748031496063):24"/>
				<v:ud v:nameU="TopRightOffset" v:prompt="" v:val="VT0(0.15748031496063):24"/>
				<v:ud v:nameU="BotLeftOffset" v:prompt="" v:val="VT0(0.15748031496063):24"/>
				<v:ud v:nameU="BotRightOffset" v:prompt="" v:val="VT0(0.15748031496063):24"/>
				<v:ud v:nameU="visVersion" v:prompt="" v:val="VT0(15):26"/>
				<v:ud v:nameU="TopLeftOffset" v:prompt="" v:val="VT0(0.131065564466):1"/>
				<v:ud v:nameU="TopRightOffset" v:prompt="" v:val="VT0(0.131065564466):1"/>
				<v:ud v:nameU="BotLeftOffset" v:prompt="" v:val="VT0(0.131065564466):1"/>
				<v:ud v:nameU="BotRightOffset" v:prompt="" v:val="VT0(0.131065564466):1"/>
			</v:userDefs>
			<path d="M9.44 304.5 L132.11 304.5 A9.43657 9.43657 -180 0 0 141.55 295.07 L141.55 248.84 A9.43657 9.43657 -180 0 0 132.11
						 239.4 L9.44 239.4 A9.43657 9.43657 -180 0 0 0 248.84 L0 295.07 A9.43657 9.43657 -180 0 0 9.44 304.5 Z"
					class="st1"/>
		</g>
		<g id="shape40-124" v:mID="40" v:groupContext="shape" transform="translate(542.537,-241.383)">
			<title>圆形.399</title>
			<v:userDefs>
				<v:ud v:nameU="visVersion" v:val="VT0(15):26"/>
			</v:userDefs>
			<path d="M0 290.94 A17.6938 13.5629 0 1 1 35.39 290.94 A17.6938 13.5629 0 1 1 0 290.94 Z" class="st4"/>
		</g>
		<g id="shape41-126" v:mID="41" v:groupContext="shape" transform="translate(634.545,-241.383)">
			<title>圆形.400</title>
			<v:userDefs>
				<v:ud v:nameU="visVersion" v:val="VT0(15):26"/>
			</v:userDefs>
			<path d="M0 290.94 A17.6938 13.5629 0 1 1 35.39 290.94 A17.6938 13.5629 0 1 1 0 290.94 Z" class="st1"/>
		</g>
		<g id="shape42-128" v:mID="42" v:groupContext="shape" transform="translate(542.537,-113.891)">
			<title>圆形.401</title>
			<v:userDefs>
				<v:ud v:nameU="visVersion" v:val="VT0(15):26"/>
			</v:userDefs>
			<path d="M0 290.94 A17.6938 13.5629 0 1 1 35.39 290.94 A17.6938 13.5629 0 1 1 0 290.94 Z" class="st1"/>
		</g>
		<g id="shape43-130" v:mID="43" v:groupContext="shape" transform="translate(634.545,-113.891)">
			<title>圆形.402</title>
			<v:userDefs>
				<v:ud v:nameU="visVersion" v:val="VT0(15):26"/>
			</v:userDefs>
			<path d="M0 290.94 A17.6938 13.5629 0 1 1 35.39 290.94 A17.6938 13.5629 0 1 1 0 290.94 Z" class="st4"/>
		</g>
		<g id="shape44-132" v:mID="44" v:groupContext="shape" v:layerMember="0" transform="translate(577.925,-247.859)">
			<title>动态连接线.403</title>
			<path d="M6.18 297.42 L6.54 297.42 L50.08 297.42" class="st5"/>
		</g>
		<g id="shape45-139" v:mID="45" v:groupContext="shape" v:layerMember="0" transform="translate(645.153,-241.383)">
			<title>动态连接线.404</title>
			<path d="M7.09 310.68 L7.09 311.04 L7.09 398.33" class="st5"/>
		</g>
		<g id="shape46-146" v:mID="46" v:groupContext="shape" transform="translate(584.844,-277.257)">
			<title>圆角矩形.406</title>
			<desc>LAN 1</desc>
			<v:userDefs>
				<v:ud v:nameU="CTypeTopLeftSnip" v:prompt="" v:val="VT0(0):5"/>
				<v:ud v:nameU="CTypeTopRightSnip" v:prompt="" v:val="VT0(0):5"/>
				<v:ud v:nameU="CTypeBotLeftSnip" v:prompt="" v:val="VT0(0):5"/>
				<v:ud v:nameU="CTypeBotRightSnip" v:prompt="" v:val="VT0(0):5"/>
				<v:ud v:nameU="CornerLockHoriz" v:prompt="" v:val="VT0(1):5"/>
				<v:ud v:nameU="CornerLockVert" v:prompt="" v:val="VT0(1):5"/>
				<v:ud v:nameU="CornerLockDiag" v:prompt="" v:val="VT0(0):5"/>
				<v:ud v:nameU="TopLeftOffset" v:prompt="" v:val="VT0(0.15748031496063):24"/>
				<v:ud v:nameU="TopRightOffset" v:prompt="" v:val="VT0(0.15748031496063):24"/>
				<v:ud v:nameU="BotLeftOffset" v:prompt="" v:val="VT0(0.15748031496063):24"/>
				<v:ud v:nameU="BotRightOffset" v:prompt="" v:val="VT0(0.15748031496063):24"/>
				<v:ud v:nameU="visVersion" v:prompt="" v:val="VT0(15):26"/>
				<v:ud v:nameU="TopLeftOffset" v:prompt="" v:val="VT0(0.012473184509074):1"/>
				<v:ud v:nameU="TopRightOffset" v:prompt="" v:val="VT0(0.012473184509074):1"/>
				<v:ud v:nameU="BotLeftOffset" v:prompt="" v:val="VT0(0.012473184509074):1"/>
				<v:ud v:nameU="BotRightOffset" v:prompt="" v:val="VT0(0.012473184509074):1"/>
			</v:userDefs>
			<v:textBlock v:margins="rect(4,4,4,4)" v:tabSpace="42.5197"/>
			<v:textRect cx="21.3916" cy="290.939" width="42.79" height="27.1258"/>
			<path d="M0.9 304.5 L41.89 304.5 a0.898055 0.898055 -180 0 0 0.898069 -0.898069 L42.78 278.27 a0.898055 0.898055 -180
						 0 0 -0.898069 -0.898069 L0.9 277.38 a0.898055 0.898055 -180 0 0 -0.898069 0.898069 L0 303.6 a0.898055 0.898055
						 -180 0 0 0.898069 0.898069 Z" class="st2"/>
			<text x="6.74" y="293.94" class="st3" v:langID="2052"><v:paragraph v:horizAlign="1"/><v:tabList/>LAN 1</text>		</g>
		<g id="shape47-149" v:mID="47" v:groupContext="shape" transform="translate(552.023,-120.13)">
			<title>工作表.47</title>
			<desc>A</desc>
			<v:textBlock v:margins="rect(4,4,4,4)" v:tabSpace="42.5197"/>
			<v:textRect cx="8.2814" cy="297.14" width="16.57" height="14.7257"/>
			<rect x="0" y="289.777" width="16.5628" height="14.7257" class="st9"/>
			<text x="4.77" y="300.74" class="st11" v:langID="2052"><v:paragraph v:horizAlign="1"/><v:tabList/>A</text>		</g>
		<g id="shape48-152" v:mID="48" v:groupContext="shape" transform="translate(637.507,-120.13)">
			<title>工作表.48</title>
			<desc>R2</desc>
			<v:textBlock v:margins="rect(4,4,4,4)" v:tabSpace="42.5197"/>
			<v:textRect cx="15.255" cy="297.14" width="30.51" height="14.7257"/>
			<rect x="0" y="289.777" width="30.51" height="14.7257" class="st9"/>
			<text x="8.22" y="300.74" class="st11" v:langID="2052"><v:paragraph v:horizAlign="1"/><v:tabList/>R2</text>		</g>
		<g id="shape49-155" v:mID="49" v:groupContext="shape" transform="translate(643.885,-247.137)">
			<title>工作表.49</title>
			<desc>B</desc>
			<v:textBlock v:margins="rect(4,4,4,4)" v:tabSpace="42.5197"/>
			<v:textRect cx="8.2814" cy="297.14" width="16.57" height="14.7257"/>
			<rect x="0" y="289.777" width="16.5628" height="14.7257" class="st9"/>
			<text x="4.77" y="300.74" class="st11" v:langID="2052"><v:paragraph v:horizAlign="1"/><v:tabList/>B</text>		</g>
		<g id="shape50-158" v:mID="50" v:groupContext="shape" transform="translate(544.635,-247.413)">
			<title>工作表.50</title>
			<desc>R1</desc>
			<v:textBlock v:margins="rect(4,4,4,4)" v:tabSpace="42.5197"/>
			<v:textRect cx="15.255" cy="297.14" width="30.51" height="14.7257"/>
			<rect x="0" y="289.777" width="30.51" height="14.7257" class="st9"/>
			<text x="8.22" y="300.74" class="st11" v:langID="2052"><v:paragraph v:horizAlign="1"/><v:tabList/>R1</text>		</g>
		<g id="shape51-161" v:mID="51" v:groupContext="shape" v:layerMember="0" transform="translate(365.327,-120.367)">
			<title>动态连接线</title>
			<path d="M6.18 297.42 L6.54 297.42 L50.08 297.42" class="st5"/>
		</g>
		<g id="shape52-168" v:mID="52" v:groupContext="shape" v:layerMember="0" transform="translate(577.925,-120.367)">
			<title>动态连接线.412</title>
			<path d="M6.18 297.42 L6.54 297.42 L50.08 297.42" class="st5"/>
		</g>
		<g id="shape53-175" v:mID="53" v:groupContext="shape" v:layerMember="0" transform="translate(572.744,-137.046)">
			<title>动态连接线.413</title>
			<desc>Linkab</desc>
			<v:textBlock v:margins="rect(4,4,4,4)" v:tabSpace="42.5197"/>
			<v:textRect cx="33.4909" cy="250.348" width="40.82" height="17.6036"/>
			<path d="M0 304.5 L62.23 203.88" class="st15"/>
			<rect v:rectContext="textBkgnd" x="19.4283" y="245.549" width="28.1255" height="9.59985" class="st17"/>
			<text x="19.43" y="252.75" class="st18" v:langID="2052"><v:paragraph v:horizAlign="1"/><v:tabList/>Linkab</text>		</g>
		<g id="shape54-183" v:mID="54" v:groupContext="shape" v:layerMember="0" transform="translate(160.258,-135.628)">
			<title>动态连接线.414</title>
			<desc>Linkab</desc>
			<v:textBlock v:margins="rect(4,4,4,4)" v:tabSpace="42.5197"/>
			<v:textRect cx="33.4909" cy="250.348" width="40.82" height="17.6036"/>
			<path d="M0 304.5 L62.23 203.88" class="st15"/>
			<rect v:rectContext="textBkgnd" x="19.4283" y="245.549" width="28.1255" height="9.59985" class="st17"/>
			<text x="19.43" y="252.75" class="st18" v:langID="2052"><v:paragraph v:horizAlign="1"/><v:tabList/>Linkab</text>		</g>
		<g id="shape55-190" v:mID="55" v:groupContext="shape" transform="translate(109.2,-0.375)">
			<title>工作表.55</title>
			<desc>A use R1 as Realy to connect B providing Service:Linkab</desc>
			<v:textBlock v:margins="rect(4,4,4,4)" v:tabSpace="42.5197"/>
			<v:textRect cx="81.805" cy="275.389" width="163.62" height="58.227"/>
			<rect x="0" y="246.275" width="163.61" height="58.227" class="st9"/>
			<text x="11.49" y="264.59" class="st12" v:langID="2052"><v:paragraph v:horizAlign="1"/><v:tabList/>A use R1 as Realy to <tspan
						x="11.49" dy="1.2em" class="st13">connect B  providing </tspan><tspan x="32.59" dy="1.2em" class="st13">Service:Linkab</tspan></text>		</g>
	</g>
</svg>
